G04 #@! TF.GenerationSoftware,KiCad,Pcbnew,5.0.2-bee76a0~70~ubuntu18.04.1*
G04 #@! TF.CreationDate,2019-03-27T10:36:52-04:00*
G04 #@! TF.ProjectId,DAC,4441432e-6b69-4636-9164-5f7063625858,rev?*
G04 #@! TF.SameCoordinates,Original*
G04 #@! TF.FileFunction,Soldermask,Bot*
G04 #@! TF.FilePolarity,Negative*
%FSLAX46Y46*%
G04 Gerber Fmt 4.6, Leading zero omitted, Abs format (unit mm)*
G04 Created by KiCad (PCBNEW 5.0.2-bee76a0~70~ubuntu18.04.1) date Wed 27 Mar 2019 10:36:52 AM EDT*
%MOMM*%
%LPD*%
G01*
G04 APERTURE LIST*
%ADD10C,0.100000*%
G04 APERTURE END LIST*
D10*
G36*
X54858228Y-55061703D02*
X55013100Y-55125853D01*
X55152481Y-55218985D01*
X55271015Y-55337519D01*
X55364147Y-55476900D01*
X55428297Y-55631772D01*
X55461000Y-55796184D01*
X55461000Y-55963816D01*
X55428297Y-56128228D01*
X55364147Y-56283100D01*
X55271015Y-56422481D01*
X55152481Y-56541015D01*
X55013100Y-56634147D01*
X54858228Y-56698297D01*
X54693816Y-56731000D01*
X54526184Y-56731000D01*
X54361772Y-56698297D01*
X54206900Y-56634147D01*
X54067519Y-56541015D01*
X53948985Y-56422481D01*
X53855853Y-56283100D01*
X53791703Y-56128228D01*
X53759000Y-55963816D01*
X53759000Y-55796184D01*
X53791703Y-55631772D01*
X53855853Y-55476900D01*
X53948985Y-55337519D01*
X54067519Y-55218985D01*
X54206900Y-55125853D01*
X54361772Y-55061703D01*
X54526184Y-55029000D01*
X54693816Y-55029000D01*
X54858228Y-55061703D01*
X54858228Y-55061703D01*
G37*
G36*
X16676821Y-55041313D02*
X16676824Y-55041314D01*
X16676825Y-55041314D01*
X16837239Y-55089975D01*
X16837241Y-55089976D01*
X16837244Y-55089977D01*
X16985078Y-55168995D01*
X17114659Y-55275341D01*
X17221005Y-55404922D01*
X17300023Y-55552756D01*
X17300024Y-55552759D01*
X17300025Y-55552761D01*
X17348686Y-55713175D01*
X17348687Y-55713179D01*
X17365117Y-55880000D01*
X17348687Y-56046821D01*
X17348686Y-56046824D01*
X17348686Y-56046825D01*
X17323993Y-56128228D01*
X17300023Y-56207244D01*
X17221005Y-56355078D01*
X17114659Y-56484659D01*
X16985078Y-56591005D01*
X16837244Y-56670023D01*
X16837241Y-56670024D01*
X16837239Y-56670025D01*
X16676825Y-56718686D01*
X16676824Y-56718686D01*
X16676821Y-56718687D01*
X16551804Y-56731000D01*
X16468196Y-56731000D01*
X16343179Y-56718687D01*
X16343176Y-56718686D01*
X16343175Y-56718686D01*
X16182761Y-56670025D01*
X16182759Y-56670024D01*
X16182756Y-56670023D01*
X16034922Y-56591005D01*
X15905341Y-56484659D01*
X15798995Y-56355078D01*
X15719977Y-56207244D01*
X15696008Y-56128228D01*
X15671314Y-56046825D01*
X15671314Y-56046824D01*
X15671313Y-56046821D01*
X15654883Y-55880000D01*
X15671313Y-55713179D01*
X15671314Y-55713175D01*
X15719975Y-55552761D01*
X15719976Y-55552759D01*
X15719977Y-55552756D01*
X15798995Y-55404922D01*
X15905341Y-55275341D01*
X16034922Y-55168995D01*
X16182756Y-55089977D01*
X16182759Y-55089976D01*
X16182761Y-55089975D01*
X16343175Y-55041314D01*
X16343176Y-55041314D01*
X16343179Y-55041313D01*
X16468196Y-55029000D01*
X16551804Y-55029000D01*
X16676821Y-55041313D01*
X16676821Y-55041313D01*
G37*
G36*
X40888228Y-55061703D02*
X41043100Y-55125853D01*
X41182481Y-55218985D01*
X41301015Y-55337519D01*
X41394147Y-55476900D01*
X41458297Y-55631772D01*
X41491000Y-55796184D01*
X41491000Y-55963816D01*
X41458297Y-56128228D01*
X41394147Y-56283100D01*
X41301015Y-56422481D01*
X41182481Y-56541015D01*
X41043100Y-56634147D01*
X40888228Y-56698297D01*
X40723816Y-56731000D01*
X40556184Y-56731000D01*
X40391772Y-56698297D01*
X40236900Y-56634147D01*
X40097519Y-56541015D01*
X39978985Y-56422481D01*
X39885853Y-56283100D01*
X39821703Y-56128228D01*
X39789000Y-55963816D01*
X39789000Y-55796184D01*
X39821703Y-55631772D01*
X39885853Y-55476900D01*
X39978985Y-55337519D01*
X40097519Y-55218985D01*
X40236900Y-55125853D01*
X40391772Y-55061703D01*
X40556184Y-55029000D01*
X40723816Y-55029000D01*
X40888228Y-55061703D01*
X40888228Y-55061703D01*
G37*
G36*
X30646821Y-55041313D02*
X30646824Y-55041314D01*
X30646825Y-55041314D01*
X30807239Y-55089975D01*
X30807241Y-55089976D01*
X30807244Y-55089977D01*
X30955078Y-55168995D01*
X31084659Y-55275341D01*
X31191005Y-55404922D01*
X31270023Y-55552756D01*
X31270024Y-55552759D01*
X31270025Y-55552761D01*
X31318686Y-55713175D01*
X31318687Y-55713179D01*
X31335117Y-55880000D01*
X31318687Y-56046821D01*
X31318686Y-56046824D01*
X31318686Y-56046825D01*
X31293993Y-56128228D01*
X31270023Y-56207244D01*
X31191005Y-56355078D01*
X31084659Y-56484659D01*
X30955078Y-56591005D01*
X30807244Y-56670023D01*
X30807241Y-56670024D01*
X30807239Y-56670025D01*
X30646825Y-56718686D01*
X30646824Y-56718686D01*
X30646821Y-56718687D01*
X30521804Y-56731000D01*
X30438196Y-56731000D01*
X30313179Y-56718687D01*
X30313176Y-56718686D01*
X30313175Y-56718686D01*
X30152761Y-56670025D01*
X30152759Y-56670024D01*
X30152756Y-56670023D01*
X30004922Y-56591005D01*
X29875341Y-56484659D01*
X29768995Y-56355078D01*
X29689977Y-56207244D01*
X29666008Y-56128228D01*
X29641314Y-56046825D01*
X29641314Y-56046824D01*
X29641313Y-56046821D01*
X29624883Y-55880000D01*
X29641313Y-55713179D01*
X29641314Y-55713175D01*
X29689975Y-55552761D01*
X29689976Y-55552759D01*
X29689977Y-55552756D01*
X29768995Y-55404922D01*
X29875341Y-55275341D01*
X30004922Y-55168995D01*
X30152756Y-55089977D01*
X30152759Y-55089976D01*
X30152761Y-55089975D01*
X30313175Y-55041314D01*
X30313176Y-55041314D01*
X30313179Y-55041313D01*
X30438196Y-55029000D01*
X30521804Y-55029000D01*
X30646821Y-55041313D01*
X30646821Y-55041313D01*
G37*
G36*
X44616821Y-55041313D02*
X44616824Y-55041314D01*
X44616825Y-55041314D01*
X44777239Y-55089975D01*
X44777241Y-55089976D01*
X44777244Y-55089977D01*
X44925078Y-55168995D01*
X45054659Y-55275341D01*
X45161005Y-55404922D01*
X45240023Y-55552756D01*
X45240024Y-55552759D01*
X45240025Y-55552761D01*
X45288686Y-55713175D01*
X45288687Y-55713179D01*
X45305117Y-55880000D01*
X45288687Y-56046821D01*
X45288686Y-56046824D01*
X45288686Y-56046825D01*
X45263993Y-56128228D01*
X45240023Y-56207244D01*
X45161005Y-56355078D01*
X45054659Y-56484659D01*
X44925078Y-56591005D01*
X44777244Y-56670023D01*
X44777241Y-56670024D01*
X44777239Y-56670025D01*
X44616825Y-56718686D01*
X44616824Y-56718686D01*
X44616821Y-56718687D01*
X44491804Y-56731000D01*
X44408196Y-56731000D01*
X44283179Y-56718687D01*
X44283176Y-56718686D01*
X44283175Y-56718686D01*
X44122761Y-56670025D01*
X44122759Y-56670024D01*
X44122756Y-56670023D01*
X43974922Y-56591005D01*
X43845341Y-56484659D01*
X43738995Y-56355078D01*
X43659977Y-56207244D01*
X43636008Y-56128228D01*
X43611314Y-56046825D01*
X43611314Y-56046824D01*
X43611313Y-56046821D01*
X43594883Y-55880000D01*
X43611313Y-55713179D01*
X43611314Y-55713175D01*
X43659975Y-55552761D01*
X43659976Y-55552759D01*
X43659977Y-55552756D01*
X43738995Y-55404922D01*
X43845341Y-55275341D01*
X43974922Y-55168995D01*
X44122756Y-55089977D01*
X44122759Y-55089976D01*
X44122761Y-55089975D01*
X44283175Y-55041314D01*
X44283176Y-55041314D01*
X44283179Y-55041313D01*
X44408196Y-55029000D01*
X44491804Y-55029000D01*
X44616821Y-55041313D01*
X44616821Y-55041313D01*
G37*
G36*
X26918228Y-55061703D02*
X27073100Y-55125853D01*
X27212481Y-55218985D01*
X27331015Y-55337519D01*
X27424147Y-55476900D01*
X27488297Y-55631772D01*
X27521000Y-55796184D01*
X27521000Y-55963816D01*
X27488297Y-56128228D01*
X27424147Y-56283100D01*
X27331015Y-56422481D01*
X27212481Y-56541015D01*
X27073100Y-56634147D01*
X26918228Y-56698297D01*
X26753816Y-56731000D01*
X26586184Y-56731000D01*
X26421772Y-56698297D01*
X26266900Y-56634147D01*
X26127519Y-56541015D01*
X26008985Y-56422481D01*
X25915853Y-56283100D01*
X25851703Y-56128228D01*
X25819000Y-55963816D01*
X25819000Y-55796184D01*
X25851703Y-55631772D01*
X25915853Y-55476900D01*
X26008985Y-55337519D01*
X26127519Y-55218985D01*
X26266900Y-55125853D01*
X26421772Y-55061703D01*
X26586184Y-55029000D01*
X26753816Y-55029000D01*
X26918228Y-55061703D01*
X26918228Y-55061703D01*
G37*
G36*
X40806821Y-48691313D02*
X40806824Y-48691314D01*
X40806825Y-48691314D01*
X40967239Y-48739975D01*
X40967241Y-48739976D01*
X40967244Y-48739977D01*
X41115078Y-48818995D01*
X41244659Y-48925341D01*
X41351005Y-49054922D01*
X41430023Y-49202756D01*
X41430024Y-49202759D01*
X41430025Y-49202761D01*
X41478686Y-49363175D01*
X41478687Y-49363179D01*
X41495117Y-49530000D01*
X41478687Y-49696821D01*
X41478686Y-49696824D01*
X41478686Y-49696825D01*
X41453993Y-49778228D01*
X41430023Y-49857244D01*
X41351005Y-50005078D01*
X41244659Y-50134659D01*
X41115078Y-50241005D01*
X40967244Y-50320023D01*
X40967241Y-50320024D01*
X40967239Y-50320025D01*
X40806825Y-50368686D01*
X40806824Y-50368686D01*
X40806821Y-50368687D01*
X40681804Y-50381000D01*
X40598196Y-50381000D01*
X40473179Y-50368687D01*
X40473176Y-50368686D01*
X40473175Y-50368686D01*
X40312761Y-50320025D01*
X40312759Y-50320024D01*
X40312756Y-50320023D01*
X40164922Y-50241005D01*
X40035341Y-50134659D01*
X39928995Y-50005078D01*
X39849977Y-49857244D01*
X39826008Y-49778228D01*
X39801314Y-49696825D01*
X39801314Y-49696824D01*
X39801313Y-49696821D01*
X39784883Y-49530000D01*
X39801313Y-49363179D01*
X39801314Y-49363175D01*
X39849975Y-49202761D01*
X39849976Y-49202759D01*
X39849977Y-49202756D01*
X39928995Y-49054922D01*
X40035341Y-48925341D01*
X40164922Y-48818995D01*
X40312756Y-48739977D01*
X40312759Y-48739976D01*
X40312761Y-48739975D01*
X40473175Y-48691314D01*
X40473176Y-48691314D01*
X40473179Y-48691313D01*
X40598196Y-48679000D01*
X40681804Y-48679000D01*
X40806821Y-48691313D01*
X40806821Y-48691313D01*
G37*
G36*
X54776821Y-48691313D02*
X54776824Y-48691314D01*
X54776825Y-48691314D01*
X54937239Y-48739975D01*
X54937241Y-48739976D01*
X54937244Y-48739977D01*
X55085078Y-48818995D01*
X55214659Y-48925341D01*
X55321005Y-49054922D01*
X55400023Y-49202756D01*
X55400024Y-49202759D01*
X55400025Y-49202761D01*
X55448686Y-49363175D01*
X55448687Y-49363179D01*
X55465117Y-49530000D01*
X55448687Y-49696821D01*
X55448686Y-49696824D01*
X55448686Y-49696825D01*
X55423993Y-49778228D01*
X55400023Y-49857244D01*
X55321005Y-50005078D01*
X55214659Y-50134659D01*
X55085078Y-50241005D01*
X54937244Y-50320023D01*
X54937241Y-50320024D01*
X54937239Y-50320025D01*
X54776825Y-50368686D01*
X54776824Y-50368686D01*
X54776821Y-50368687D01*
X54651804Y-50381000D01*
X54568196Y-50381000D01*
X54443179Y-50368687D01*
X54443176Y-50368686D01*
X54443175Y-50368686D01*
X54282761Y-50320025D01*
X54282759Y-50320024D01*
X54282756Y-50320023D01*
X54134922Y-50241005D01*
X54005341Y-50134659D01*
X53898995Y-50005078D01*
X53819977Y-49857244D01*
X53796008Y-49778228D01*
X53771314Y-49696825D01*
X53771314Y-49696824D01*
X53771313Y-49696821D01*
X53754883Y-49530000D01*
X53771313Y-49363179D01*
X53771314Y-49363175D01*
X53819975Y-49202761D01*
X53819976Y-49202759D01*
X53819977Y-49202756D01*
X53898995Y-49054922D01*
X54005341Y-48925341D01*
X54134922Y-48818995D01*
X54282756Y-48739977D01*
X54282759Y-48739976D01*
X54282761Y-48739975D01*
X54443175Y-48691314D01*
X54443176Y-48691314D01*
X54443179Y-48691313D01*
X54568196Y-48679000D01*
X54651804Y-48679000D01*
X54776821Y-48691313D01*
X54776821Y-48691313D01*
G37*
G36*
X30728228Y-48711703D02*
X30883100Y-48775853D01*
X31022481Y-48868985D01*
X31141015Y-48987519D01*
X31234147Y-49126900D01*
X31298297Y-49281772D01*
X31331000Y-49446184D01*
X31331000Y-49613816D01*
X31298297Y-49778228D01*
X31234147Y-49933100D01*
X31141015Y-50072481D01*
X31022481Y-50191015D01*
X30883100Y-50284147D01*
X30728228Y-50348297D01*
X30563816Y-50381000D01*
X30396184Y-50381000D01*
X30231772Y-50348297D01*
X30076900Y-50284147D01*
X29937519Y-50191015D01*
X29818985Y-50072481D01*
X29725853Y-49933100D01*
X29661703Y-49778228D01*
X29629000Y-49613816D01*
X29629000Y-49446184D01*
X29661703Y-49281772D01*
X29725853Y-49126900D01*
X29818985Y-48987519D01*
X29937519Y-48868985D01*
X30076900Y-48775853D01*
X30231772Y-48711703D01*
X30396184Y-48679000D01*
X30563816Y-48679000D01*
X30728228Y-48711703D01*
X30728228Y-48711703D01*
G37*
G36*
X26836821Y-48691313D02*
X26836824Y-48691314D01*
X26836825Y-48691314D01*
X26997239Y-48739975D01*
X26997241Y-48739976D01*
X26997244Y-48739977D01*
X27145078Y-48818995D01*
X27274659Y-48925341D01*
X27381005Y-49054922D01*
X27460023Y-49202756D01*
X27460024Y-49202759D01*
X27460025Y-49202761D01*
X27508686Y-49363175D01*
X27508687Y-49363179D01*
X27525117Y-49530000D01*
X27508687Y-49696821D01*
X27508686Y-49696824D01*
X27508686Y-49696825D01*
X27483993Y-49778228D01*
X27460023Y-49857244D01*
X27381005Y-50005078D01*
X27274659Y-50134659D01*
X27145078Y-50241005D01*
X26997244Y-50320023D01*
X26997241Y-50320024D01*
X26997239Y-50320025D01*
X26836825Y-50368686D01*
X26836824Y-50368686D01*
X26836821Y-50368687D01*
X26711804Y-50381000D01*
X26628196Y-50381000D01*
X26503179Y-50368687D01*
X26503176Y-50368686D01*
X26503175Y-50368686D01*
X26342761Y-50320025D01*
X26342759Y-50320024D01*
X26342756Y-50320023D01*
X26194922Y-50241005D01*
X26065341Y-50134659D01*
X25958995Y-50005078D01*
X25879977Y-49857244D01*
X25856008Y-49778228D01*
X25831314Y-49696825D01*
X25831314Y-49696824D01*
X25831313Y-49696821D01*
X25814883Y-49530000D01*
X25831313Y-49363179D01*
X25831314Y-49363175D01*
X25879975Y-49202761D01*
X25879976Y-49202759D01*
X25879977Y-49202756D01*
X25958995Y-49054922D01*
X26065341Y-48925341D01*
X26194922Y-48818995D01*
X26342756Y-48739977D01*
X26342759Y-48739976D01*
X26342761Y-48739975D01*
X26503175Y-48691314D01*
X26503176Y-48691314D01*
X26503179Y-48691313D01*
X26628196Y-48679000D01*
X26711804Y-48679000D01*
X26836821Y-48691313D01*
X26836821Y-48691313D01*
G37*
G36*
X16758228Y-48711703D02*
X16913100Y-48775853D01*
X17052481Y-48868985D01*
X17171015Y-48987519D01*
X17264147Y-49126900D01*
X17328297Y-49281772D01*
X17361000Y-49446184D01*
X17361000Y-49613816D01*
X17328297Y-49778228D01*
X17264147Y-49933100D01*
X17171015Y-50072481D01*
X17052481Y-50191015D01*
X16913100Y-50284147D01*
X16758228Y-50348297D01*
X16593816Y-50381000D01*
X16426184Y-50381000D01*
X16261772Y-50348297D01*
X16106900Y-50284147D01*
X15967519Y-50191015D01*
X15848985Y-50072481D01*
X15755853Y-49933100D01*
X15691703Y-49778228D01*
X15659000Y-49613816D01*
X15659000Y-49446184D01*
X15691703Y-49281772D01*
X15755853Y-49126900D01*
X15848985Y-48987519D01*
X15967519Y-48868985D01*
X16106900Y-48775853D01*
X16261772Y-48711703D01*
X16426184Y-48679000D01*
X16593816Y-48679000D01*
X16758228Y-48711703D01*
X16758228Y-48711703D01*
G37*
G36*
X44698228Y-48711703D02*
X44853100Y-48775853D01*
X44992481Y-48868985D01*
X45111015Y-48987519D01*
X45204147Y-49126900D01*
X45268297Y-49281772D01*
X45301000Y-49446184D01*
X45301000Y-49613816D01*
X45268297Y-49778228D01*
X45204147Y-49933100D01*
X45111015Y-50072481D01*
X44992481Y-50191015D01*
X44853100Y-50284147D01*
X44698228Y-50348297D01*
X44533816Y-50381000D01*
X44366184Y-50381000D01*
X44201772Y-50348297D01*
X44046900Y-50284147D01*
X43907519Y-50191015D01*
X43788985Y-50072481D01*
X43695853Y-49933100D01*
X43631703Y-49778228D01*
X43599000Y-49613816D01*
X43599000Y-49446184D01*
X43631703Y-49281772D01*
X43695853Y-49126900D01*
X43788985Y-48987519D01*
X43907519Y-48868985D01*
X44046900Y-48775853D01*
X44201772Y-48711703D01*
X44366184Y-48679000D01*
X44533816Y-48679000D01*
X44698228Y-48711703D01*
X44698228Y-48711703D01*
G37*
G36*
X21838228Y-42361703D02*
X21993100Y-42425853D01*
X22132481Y-42518985D01*
X22251015Y-42637519D01*
X22344147Y-42776900D01*
X22408297Y-42931772D01*
X22441000Y-43096184D01*
X22441000Y-43263816D01*
X22408297Y-43428228D01*
X22344147Y-43583100D01*
X22251015Y-43722481D01*
X22132481Y-43841015D01*
X21993100Y-43934147D01*
X21838228Y-43998297D01*
X21673816Y-44031000D01*
X21506184Y-44031000D01*
X21341772Y-43998297D01*
X21186900Y-43934147D01*
X21047519Y-43841015D01*
X20928985Y-43722481D01*
X20835853Y-43583100D01*
X20771703Y-43428228D01*
X20739000Y-43263816D01*
X20739000Y-43096184D01*
X20771703Y-42931772D01*
X20835853Y-42776900D01*
X20928985Y-42637519D01*
X21047519Y-42518985D01*
X21186900Y-42425853D01*
X21341772Y-42361703D01*
X21506184Y-42329000D01*
X21673816Y-42329000D01*
X21838228Y-42361703D01*
X21838228Y-42361703D01*
G37*
G36*
X49778228Y-42361703D02*
X49933100Y-42425853D01*
X50072481Y-42518985D01*
X50191015Y-42637519D01*
X50284147Y-42776900D01*
X50348297Y-42931772D01*
X50381000Y-43096184D01*
X50381000Y-43263816D01*
X50348297Y-43428228D01*
X50284147Y-43583100D01*
X50191015Y-43722481D01*
X50072481Y-43841015D01*
X49933100Y-43934147D01*
X49778228Y-43998297D01*
X49613816Y-44031000D01*
X49446184Y-44031000D01*
X49281772Y-43998297D01*
X49126900Y-43934147D01*
X48987519Y-43841015D01*
X48868985Y-43722481D01*
X48775853Y-43583100D01*
X48711703Y-43428228D01*
X48679000Y-43263816D01*
X48679000Y-43096184D01*
X48711703Y-42931772D01*
X48775853Y-42776900D01*
X48868985Y-42637519D01*
X48987519Y-42518985D01*
X49126900Y-42425853D01*
X49281772Y-42361703D01*
X49446184Y-42329000D01*
X49613816Y-42329000D01*
X49778228Y-42361703D01*
X49778228Y-42361703D01*
G37*
G36*
X47238228Y-42361703D02*
X47393100Y-42425853D01*
X47532481Y-42518985D01*
X47651015Y-42637519D01*
X47744147Y-42776900D01*
X47808297Y-42931772D01*
X47841000Y-43096184D01*
X47841000Y-43263816D01*
X47808297Y-43428228D01*
X47744147Y-43583100D01*
X47651015Y-43722481D01*
X47532481Y-43841015D01*
X47393100Y-43934147D01*
X47238228Y-43998297D01*
X47073816Y-44031000D01*
X46906184Y-44031000D01*
X46741772Y-43998297D01*
X46586900Y-43934147D01*
X46447519Y-43841015D01*
X46328985Y-43722481D01*
X46235853Y-43583100D01*
X46171703Y-43428228D01*
X46139000Y-43263816D01*
X46139000Y-43096184D01*
X46171703Y-42931772D01*
X46235853Y-42776900D01*
X46328985Y-42637519D01*
X46447519Y-42518985D01*
X46586900Y-42425853D01*
X46741772Y-42361703D01*
X46906184Y-42329000D01*
X47073816Y-42329000D01*
X47238228Y-42361703D01*
X47238228Y-42361703D01*
G37*
G36*
X17361000Y-44031000D02*
X15659000Y-44031000D01*
X15659000Y-42329000D01*
X17361000Y-42329000D01*
X17361000Y-44031000D01*
X17361000Y-44031000D01*
G37*
G36*
X19298228Y-42361703D02*
X19453100Y-42425853D01*
X19592481Y-42518985D01*
X19711015Y-42637519D01*
X19804147Y-42776900D01*
X19868297Y-42931772D01*
X19901000Y-43096184D01*
X19901000Y-43263816D01*
X19868297Y-43428228D01*
X19804147Y-43583100D01*
X19711015Y-43722481D01*
X19592481Y-43841015D01*
X19453100Y-43934147D01*
X19298228Y-43998297D01*
X19133816Y-44031000D01*
X18966184Y-44031000D01*
X18801772Y-43998297D01*
X18646900Y-43934147D01*
X18507519Y-43841015D01*
X18388985Y-43722481D01*
X18295853Y-43583100D01*
X18231703Y-43428228D01*
X18199000Y-43263816D01*
X18199000Y-43096184D01*
X18231703Y-42931772D01*
X18295853Y-42776900D01*
X18388985Y-42637519D01*
X18507519Y-42518985D01*
X18646900Y-42425853D01*
X18801772Y-42361703D01*
X18966184Y-42329000D01*
X19133816Y-42329000D01*
X19298228Y-42361703D01*
X19298228Y-42361703D01*
G37*
G36*
X24378228Y-42361703D02*
X24533100Y-42425853D01*
X24672481Y-42518985D01*
X24791015Y-42637519D01*
X24884147Y-42776900D01*
X24948297Y-42931772D01*
X24981000Y-43096184D01*
X24981000Y-43263816D01*
X24948297Y-43428228D01*
X24884147Y-43583100D01*
X24791015Y-43722481D01*
X24672481Y-43841015D01*
X24533100Y-43934147D01*
X24378228Y-43998297D01*
X24213816Y-44031000D01*
X24046184Y-44031000D01*
X23881772Y-43998297D01*
X23726900Y-43934147D01*
X23587519Y-43841015D01*
X23468985Y-43722481D01*
X23375853Y-43583100D01*
X23311703Y-43428228D01*
X23279000Y-43263816D01*
X23279000Y-43096184D01*
X23311703Y-42931772D01*
X23375853Y-42776900D01*
X23468985Y-42637519D01*
X23587519Y-42518985D01*
X23726900Y-42425853D01*
X23881772Y-42361703D01*
X24046184Y-42329000D01*
X24213816Y-42329000D01*
X24378228Y-42361703D01*
X24378228Y-42361703D01*
G37*
G36*
X26918228Y-42361703D02*
X27073100Y-42425853D01*
X27212481Y-42518985D01*
X27331015Y-42637519D01*
X27424147Y-42776900D01*
X27488297Y-42931772D01*
X27521000Y-43096184D01*
X27521000Y-43263816D01*
X27488297Y-43428228D01*
X27424147Y-43583100D01*
X27331015Y-43722481D01*
X27212481Y-43841015D01*
X27073100Y-43934147D01*
X26918228Y-43998297D01*
X26753816Y-44031000D01*
X26586184Y-44031000D01*
X26421772Y-43998297D01*
X26266900Y-43934147D01*
X26127519Y-43841015D01*
X26008985Y-43722481D01*
X25915853Y-43583100D01*
X25851703Y-43428228D01*
X25819000Y-43263816D01*
X25819000Y-43096184D01*
X25851703Y-42931772D01*
X25915853Y-42776900D01*
X26008985Y-42637519D01*
X26127519Y-42518985D01*
X26266900Y-42425853D01*
X26421772Y-42361703D01*
X26586184Y-42329000D01*
X26753816Y-42329000D01*
X26918228Y-42361703D01*
X26918228Y-42361703D01*
G37*
G36*
X31998228Y-42361703D02*
X32153100Y-42425853D01*
X32292481Y-42518985D01*
X32411015Y-42637519D01*
X32504147Y-42776900D01*
X32568297Y-42931772D01*
X32601000Y-43096184D01*
X32601000Y-43263816D01*
X32568297Y-43428228D01*
X32504147Y-43583100D01*
X32411015Y-43722481D01*
X32292481Y-43841015D01*
X32153100Y-43934147D01*
X31998228Y-43998297D01*
X31833816Y-44031000D01*
X31666184Y-44031000D01*
X31501772Y-43998297D01*
X31346900Y-43934147D01*
X31207519Y-43841015D01*
X31088985Y-43722481D01*
X30995853Y-43583100D01*
X30931703Y-43428228D01*
X30899000Y-43263816D01*
X30899000Y-43096184D01*
X30931703Y-42931772D01*
X30995853Y-42776900D01*
X31088985Y-42637519D01*
X31207519Y-42518985D01*
X31346900Y-42425853D01*
X31501772Y-42361703D01*
X31666184Y-42329000D01*
X31833816Y-42329000D01*
X31998228Y-42361703D01*
X31998228Y-42361703D01*
G37*
G36*
X44698228Y-42361703D02*
X44853100Y-42425853D01*
X44992481Y-42518985D01*
X45111015Y-42637519D01*
X45204147Y-42776900D01*
X45268297Y-42931772D01*
X45301000Y-43096184D01*
X45301000Y-43263816D01*
X45268297Y-43428228D01*
X45204147Y-43583100D01*
X45111015Y-43722481D01*
X44992481Y-43841015D01*
X44853100Y-43934147D01*
X44698228Y-43998297D01*
X44533816Y-44031000D01*
X44366184Y-44031000D01*
X44201772Y-43998297D01*
X44046900Y-43934147D01*
X43907519Y-43841015D01*
X43788985Y-43722481D01*
X43695853Y-43583100D01*
X43631703Y-43428228D01*
X43599000Y-43263816D01*
X43599000Y-43096184D01*
X43631703Y-42931772D01*
X43695853Y-42776900D01*
X43788985Y-42637519D01*
X43907519Y-42518985D01*
X44046900Y-42425853D01*
X44201772Y-42361703D01*
X44366184Y-42329000D01*
X44533816Y-42329000D01*
X44698228Y-42361703D01*
X44698228Y-42361703D01*
G37*
G36*
X34538228Y-42361703D02*
X34693100Y-42425853D01*
X34832481Y-42518985D01*
X34951015Y-42637519D01*
X35044147Y-42776900D01*
X35108297Y-42931772D01*
X35141000Y-43096184D01*
X35141000Y-43263816D01*
X35108297Y-43428228D01*
X35044147Y-43583100D01*
X34951015Y-43722481D01*
X34832481Y-43841015D01*
X34693100Y-43934147D01*
X34538228Y-43998297D01*
X34373816Y-44031000D01*
X34206184Y-44031000D01*
X34041772Y-43998297D01*
X33886900Y-43934147D01*
X33747519Y-43841015D01*
X33628985Y-43722481D01*
X33535853Y-43583100D01*
X33471703Y-43428228D01*
X33439000Y-43263816D01*
X33439000Y-43096184D01*
X33471703Y-42931772D01*
X33535853Y-42776900D01*
X33628985Y-42637519D01*
X33747519Y-42518985D01*
X33886900Y-42425853D01*
X34041772Y-42361703D01*
X34206184Y-42329000D01*
X34373816Y-42329000D01*
X34538228Y-42361703D01*
X34538228Y-42361703D01*
G37*
G36*
X37078228Y-42361703D02*
X37233100Y-42425853D01*
X37372481Y-42518985D01*
X37491015Y-42637519D01*
X37584147Y-42776900D01*
X37648297Y-42931772D01*
X37681000Y-43096184D01*
X37681000Y-43263816D01*
X37648297Y-43428228D01*
X37584147Y-43583100D01*
X37491015Y-43722481D01*
X37372481Y-43841015D01*
X37233100Y-43934147D01*
X37078228Y-43998297D01*
X36913816Y-44031000D01*
X36746184Y-44031000D01*
X36581772Y-43998297D01*
X36426900Y-43934147D01*
X36287519Y-43841015D01*
X36168985Y-43722481D01*
X36075853Y-43583100D01*
X36011703Y-43428228D01*
X35979000Y-43263816D01*
X35979000Y-43096184D01*
X36011703Y-42931772D01*
X36075853Y-42776900D01*
X36168985Y-42637519D01*
X36287519Y-42518985D01*
X36426900Y-42425853D01*
X36581772Y-42361703D01*
X36746184Y-42329000D01*
X36913816Y-42329000D01*
X37078228Y-42361703D01*
X37078228Y-42361703D01*
G37*
G36*
X39618228Y-42361703D02*
X39773100Y-42425853D01*
X39912481Y-42518985D01*
X40031015Y-42637519D01*
X40124147Y-42776900D01*
X40188297Y-42931772D01*
X40221000Y-43096184D01*
X40221000Y-43263816D01*
X40188297Y-43428228D01*
X40124147Y-43583100D01*
X40031015Y-43722481D01*
X39912481Y-43841015D01*
X39773100Y-43934147D01*
X39618228Y-43998297D01*
X39453816Y-44031000D01*
X39286184Y-44031000D01*
X39121772Y-43998297D01*
X38966900Y-43934147D01*
X38827519Y-43841015D01*
X38708985Y-43722481D01*
X38615853Y-43583100D01*
X38551703Y-43428228D01*
X38519000Y-43263816D01*
X38519000Y-43096184D01*
X38551703Y-42931772D01*
X38615853Y-42776900D01*
X38708985Y-42637519D01*
X38827519Y-42518985D01*
X38966900Y-42425853D01*
X39121772Y-42361703D01*
X39286184Y-42329000D01*
X39453816Y-42329000D01*
X39618228Y-42361703D01*
X39618228Y-42361703D01*
G37*
G36*
X42158228Y-42361703D02*
X42313100Y-42425853D01*
X42452481Y-42518985D01*
X42571015Y-42637519D01*
X42664147Y-42776900D01*
X42728297Y-42931772D01*
X42761000Y-43096184D01*
X42761000Y-43263816D01*
X42728297Y-43428228D01*
X42664147Y-43583100D01*
X42571015Y-43722481D01*
X42452481Y-43841015D01*
X42313100Y-43934147D01*
X42158228Y-43998297D01*
X41993816Y-44031000D01*
X41826184Y-44031000D01*
X41661772Y-43998297D01*
X41506900Y-43934147D01*
X41367519Y-43841015D01*
X41248985Y-43722481D01*
X41155853Y-43583100D01*
X41091703Y-43428228D01*
X41059000Y-43263816D01*
X41059000Y-43096184D01*
X41091703Y-42931772D01*
X41155853Y-42776900D01*
X41248985Y-42637519D01*
X41367519Y-42518985D01*
X41506900Y-42425853D01*
X41661772Y-42361703D01*
X41826184Y-42329000D01*
X41993816Y-42329000D01*
X42158228Y-42361703D01*
X42158228Y-42361703D01*
G37*
G36*
X29458228Y-42361703D02*
X29613100Y-42425853D01*
X29752481Y-42518985D01*
X29871015Y-42637519D01*
X29964147Y-42776900D01*
X30028297Y-42931772D01*
X30061000Y-43096184D01*
X30061000Y-43263816D01*
X30028297Y-43428228D01*
X29964147Y-43583100D01*
X29871015Y-43722481D01*
X29752481Y-43841015D01*
X29613100Y-43934147D01*
X29458228Y-43998297D01*
X29293816Y-44031000D01*
X29126184Y-44031000D01*
X28961772Y-43998297D01*
X28806900Y-43934147D01*
X28667519Y-43841015D01*
X28548985Y-43722481D01*
X28455853Y-43583100D01*
X28391703Y-43428228D01*
X28359000Y-43263816D01*
X28359000Y-43096184D01*
X28391703Y-42931772D01*
X28455853Y-42776900D01*
X28548985Y-42637519D01*
X28667519Y-42518985D01*
X28806900Y-42425853D01*
X28961772Y-42361703D01*
X29126184Y-42329000D01*
X29293816Y-42329000D01*
X29458228Y-42361703D01*
X29458228Y-42361703D01*
G37*
G36*
X49778228Y-39821703D02*
X49933100Y-39885853D01*
X50072481Y-39978985D01*
X50191015Y-40097519D01*
X50284147Y-40236900D01*
X50348297Y-40391772D01*
X50381000Y-40556184D01*
X50381000Y-40723816D01*
X50348297Y-40888228D01*
X50284147Y-41043100D01*
X50191015Y-41182481D01*
X50072481Y-41301015D01*
X49933100Y-41394147D01*
X49778228Y-41458297D01*
X49613816Y-41491000D01*
X49446184Y-41491000D01*
X49281772Y-41458297D01*
X49126900Y-41394147D01*
X48987519Y-41301015D01*
X48868985Y-41182481D01*
X48775853Y-41043100D01*
X48711703Y-40888228D01*
X48679000Y-40723816D01*
X48679000Y-40556184D01*
X48711703Y-40391772D01*
X48775853Y-40236900D01*
X48868985Y-40097519D01*
X48987519Y-39978985D01*
X49126900Y-39885853D01*
X49281772Y-39821703D01*
X49446184Y-39789000D01*
X49613816Y-39789000D01*
X49778228Y-39821703D01*
X49778228Y-39821703D01*
G37*
G36*
X49778228Y-37281703D02*
X49933100Y-37345853D01*
X50072481Y-37438985D01*
X50191015Y-37557519D01*
X50284147Y-37696900D01*
X50348297Y-37851772D01*
X50381000Y-38016184D01*
X50381000Y-38183816D01*
X50348297Y-38348228D01*
X50284147Y-38503100D01*
X50191015Y-38642481D01*
X50072481Y-38761015D01*
X49933100Y-38854147D01*
X49778228Y-38918297D01*
X49613816Y-38951000D01*
X49446184Y-38951000D01*
X49281772Y-38918297D01*
X49126900Y-38854147D01*
X48987519Y-38761015D01*
X48868985Y-38642481D01*
X48775853Y-38503100D01*
X48711703Y-38348228D01*
X48679000Y-38183816D01*
X48679000Y-38016184D01*
X48711703Y-37851772D01*
X48775853Y-37696900D01*
X48868985Y-37557519D01*
X48987519Y-37438985D01*
X49126900Y-37345853D01*
X49281772Y-37281703D01*
X49446184Y-37249000D01*
X49613816Y-37249000D01*
X49778228Y-37281703D01*
X49778228Y-37281703D01*
G37*
G36*
X23151981Y-34597468D02*
X23334150Y-34672925D01*
X23498103Y-34782475D01*
X23637525Y-34921897D01*
X23747075Y-35085850D01*
X23822532Y-35268019D01*
X23861000Y-35461410D01*
X23861000Y-35658590D01*
X23822532Y-35851981D01*
X23747075Y-36034150D01*
X23637525Y-36198103D01*
X23498103Y-36337525D01*
X23334150Y-36447075D01*
X23151981Y-36522532D01*
X22958590Y-36561000D01*
X22761410Y-36561000D01*
X22568019Y-36522532D01*
X22385850Y-36447075D01*
X22221897Y-36337525D01*
X22082475Y-36198103D01*
X21972925Y-36034150D01*
X21897468Y-35851981D01*
X21859000Y-35658590D01*
X21859000Y-35461410D01*
X21897468Y-35268019D01*
X21972925Y-35085850D01*
X22082475Y-34921897D01*
X22221897Y-34782475D01*
X22385850Y-34672925D01*
X22568019Y-34597468D01*
X22761410Y-34559000D01*
X22958590Y-34559000D01*
X23151981Y-34597468D01*
X23151981Y-34597468D01*
G37*
G36*
X26961981Y-34597468D02*
X27144150Y-34672925D01*
X27308103Y-34782475D01*
X27447525Y-34921897D01*
X27557075Y-35085850D01*
X27632532Y-35268019D01*
X27671000Y-35461410D01*
X27671000Y-35658590D01*
X27632532Y-35851981D01*
X27557075Y-36034150D01*
X27447525Y-36198103D01*
X27308103Y-36337525D01*
X27144150Y-36447075D01*
X26961981Y-36522532D01*
X26768590Y-36561000D01*
X26571410Y-36561000D01*
X26378019Y-36522532D01*
X26195850Y-36447075D01*
X26031897Y-36337525D01*
X25892475Y-36198103D01*
X25782925Y-36034150D01*
X25707468Y-35851981D01*
X25669000Y-35658590D01*
X25669000Y-35461410D01*
X25707468Y-35268019D01*
X25782925Y-35085850D01*
X25892475Y-34921897D01*
X26031897Y-34782475D01*
X26195850Y-34672925D01*
X26378019Y-34597468D01*
X26571410Y-34559000D01*
X26768590Y-34559000D01*
X26961981Y-34597468D01*
X26961981Y-34597468D01*
G37*
G36*
X31998228Y-34741703D02*
X32153100Y-34805853D01*
X32292481Y-34898985D01*
X32411015Y-35017519D01*
X32504147Y-35156900D01*
X32568297Y-35311772D01*
X32601000Y-35476184D01*
X32601000Y-35643816D01*
X32568297Y-35808228D01*
X32504147Y-35963100D01*
X32411015Y-36102481D01*
X32292481Y-36221015D01*
X32153100Y-36314147D01*
X31998228Y-36378297D01*
X31833816Y-36411000D01*
X31666184Y-36411000D01*
X31501772Y-36378297D01*
X31346900Y-36314147D01*
X31207519Y-36221015D01*
X31088985Y-36102481D01*
X30995853Y-35963100D01*
X30931703Y-35808228D01*
X30899000Y-35643816D01*
X30899000Y-35476184D01*
X30931703Y-35311772D01*
X30995853Y-35156900D01*
X31088985Y-35017519D01*
X31207519Y-34898985D01*
X31346900Y-34805853D01*
X31501772Y-34741703D01*
X31666184Y-34709000D01*
X31833816Y-34709000D01*
X31998228Y-34741703D01*
X31998228Y-34741703D01*
G37*
G36*
X34538228Y-34741703D02*
X34693100Y-34805853D01*
X34832481Y-34898985D01*
X34951015Y-35017519D01*
X35044147Y-35156900D01*
X35108297Y-35311772D01*
X35141000Y-35476184D01*
X35141000Y-35643816D01*
X35108297Y-35808228D01*
X35044147Y-35963100D01*
X34951015Y-36102481D01*
X34832481Y-36221015D01*
X34693100Y-36314147D01*
X34538228Y-36378297D01*
X34373816Y-36411000D01*
X34206184Y-36411000D01*
X34041772Y-36378297D01*
X33886900Y-36314147D01*
X33747519Y-36221015D01*
X33628985Y-36102481D01*
X33535853Y-35963100D01*
X33471703Y-35808228D01*
X33439000Y-35643816D01*
X33439000Y-35476184D01*
X33471703Y-35311772D01*
X33535853Y-35156900D01*
X33628985Y-35017519D01*
X33747519Y-34898985D01*
X33886900Y-34805853D01*
X34041772Y-34741703D01*
X34206184Y-34709000D01*
X34373816Y-34709000D01*
X34538228Y-34741703D01*
X34538228Y-34741703D01*
G37*
G36*
X49778228Y-34741703D02*
X49933100Y-34805853D01*
X50072481Y-34898985D01*
X50191015Y-35017519D01*
X50284147Y-35156900D01*
X50348297Y-35311772D01*
X50381000Y-35476184D01*
X50381000Y-35643816D01*
X50348297Y-35808228D01*
X50284147Y-35963100D01*
X50191015Y-36102481D01*
X50072481Y-36221015D01*
X49933100Y-36314147D01*
X49778228Y-36378297D01*
X49613816Y-36411000D01*
X49446184Y-36411000D01*
X49281772Y-36378297D01*
X49126900Y-36314147D01*
X48987519Y-36221015D01*
X48868985Y-36102481D01*
X48775853Y-35963100D01*
X48711703Y-35808228D01*
X48679000Y-35643816D01*
X48679000Y-35476184D01*
X48711703Y-35311772D01*
X48775853Y-35156900D01*
X48868985Y-35017519D01*
X48987519Y-34898985D01*
X49126900Y-34805853D01*
X49281772Y-34741703D01*
X49446184Y-34709000D01*
X49613816Y-34709000D01*
X49778228Y-34741703D01*
X49778228Y-34741703D01*
G37*
G36*
X37078228Y-34741703D02*
X37233100Y-34805853D01*
X37372481Y-34898985D01*
X37491015Y-35017519D01*
X37584147Y-35156900D01*
X37648297Y-35311772D01*
X37681000Y-35476184D01*
X37681000Y-35643816D01*
X37648297Y-35808228D01*
X37584147Y-35963100D01*
X37491015Y-36102481D01*
X37372481Y-36221015D01*
X37233100Y-36314147D01*
X37078228Y-36378297D01*
X36913816Y-36411000D01*
X36746184Y-36411000D01*
X36581772Y-36378297D01*
X36426900Y-36314147D01*
X36287519Y-36221015D01*
X36168985Y-36102481D01*
X36075853Y-35963100D01*
X36011703Y-35808228D01*
X35979000Y-35643816D01*
X35979000Y-35476184D01*
X36011703Y-35311772D01*
X36075853Y-35156900D01*
X36168985Y-35017519D01*
X36287519Y-34898985D01*
X36426900Y-34805853D01*
X36581772Y-34741703D01*
X36746184Y-34709000D01*
X36913816Y-34709000D01*
X37078228Y-34741703D01*
X37078228Y-34741703D01*
G37*
G36*
X39618228Y-34741703D02*
X39773100Y-34805853D01*
X39912481Y-34898985D01*
X40031015Y-35017519D01*
X40124147Y-35156900D01*
X40188297Y-35311772D01*
X40221000Y-35476184D01*
X40221000Y-35643816D01*
X40188297Y-35808228D01*
X40124147Y-35963100D01*
X40031015Y-36102481D01*
X39912481Y-36221015D01*
X39773100Y-36314147D01*
X39618228Y-36378297D01*
X39453816Y-36411000D01*
X39286184Y-36411000D01*
X39121772Y-36378297D01*
X38966900Y-36314147D01*
X38827519Y-36221015D01*
X38708985Y-36102481D01*
X38615853Y-35963100D01*
X38551703Y-35808228D01*
X38519000Y-35643816D01*
X38519000Y-35476184D01*
X38551703Y-35311772D01*
X38615853Y-35156900D01*
X38708985Y-35017519D01*
X38827519Y-34898985D01*
X38966900Y-34805853D01*
X39121772Y-34741703D01*
X39286184Y-34709000D01*
X39453816Y-34709000D01*
X39618228Y-34741703D01*
X39618228Y-34741703D01*
G37*
G36*
X47238228Y-34741703D02*
X47393100Y-34805853D01*
X47532481Y-34898985D01*
X47651015Y-35017519D01*
X47744147Y-35156900D01*
X47808297Y-35311772D01*
X47841000Y-35476184D01*
X47841000Y-35643816D01*
X47808297Y-35808228D01*
X47744147Y-35963100D01*
X47651015Y-36102481D01*
X47532481Y-36221015D01*
X47393100Y-36314147D01*
X47238228Y-36378297D01*
X47073816Y-36411000D01*
X46906184Y-36411000D01*
X46741772Y-36378297D01*
X46586900Y-36314147D01*
X46447519Y-36221015D01*
X46328985Y-36102481D01*
X46235853Y-35963100D01*
X46171703Y-35808228D01*
X46139000Y-35643816D01*
X46139000Y-35476184D01*
X46171703Y-35311772D01*
X46235853Y-35156900D01*
X46328985Y-35017519D01*
X46447519Y-34898985D01*
X46586900Y-34805853D01*
X46741772Y-34741703D01*
X46906184Y-34709000D01*
X47073816Y-34709000D01*
X47238228Y-34741703D01*
X47238228Y-34741703D01*
G37*
G36*
X42158228Y-34741703D02*
X42313100Y-34805853D01*
X42452481Y-34898985D01*
X42571015Y-35017519D01*
X42664147Y-35156900D01*
X42728297Y-35311772D01*
X42761000Y-35476184D01*
X42761000Y-35643816D01*
X42728297Y-35808228D01*
X42664147Y-35963100D01*
X42571015Y-36102481D01*
X42452481Y-36221015D01*
X42313100Y-36314147D01*
X42158228Y-36378297D01*
X41993816Y-36411000D01*
X41826184Y-36411000D01*
X41661772Y-36378297D01*
X41506900Y-36314147D01*
X41367519Y-36221015D01*
X41248985Y-36102481D01*
X41155853Y-35963100D01*
X41091703Y-35808228D01*
X41059000Y-35643816D01*
X41059000Y-35476184D01*
X41091703Y-35311772D01*
X41155853Y-35156900D01*
X41248985Y-35017519D01*
X41367519Y-34898985D01*
X41506900Y-34805853D01*
X41661772Y-34741703D01*
X41826184Y-34709000D01*
X41993816Y-34709000D01*
X42158228Y-34741703D01*
X42158228Y-34741703D01*
G37*
G36*
X44698228Y-34741703D02*
X44853100Y-34805853D01*
X44992481Y-34898985D01*
X45111015Y-35017519D01*
X45204147Y-35156900D01*
X45268297Y-35311772D01*
X45301000Y-35476184D01*
X45301000Y-35643816D01*
X45268297Y-35808228D01*
X45204147Y-35963100D01*
X45111015Y-36102481D01*
X44992481Y-36221015D01*
X44853100Y-36314147D01*
X44698228Y-36378297D01*
X44533816Y-36411000D01*
X44366184Y-36411000D01*
X44201772Y-36378297D01*
X44046900Y-36314147D01*
X43907519Y-36221015D01*
X43788985Y-36102481D01*
X43695853Y-35963100D01*
X43631703Y-35808228D01*
X43599000Y-35643816D01*
X43599000Y-35476184D01*
X43631703Y-35311772D01*
X43695853Y-35156900D01*
X43788985Y-35017519D01*
X43907519Y-34898985D01*
X44046900Y-34805853D01*
X44201772Y-34741703D01*
X44366184Y-34709000D01*
X44533816Y-34709000D01*
X44698228Y-34741703D01*
X44698228Y-34741703D01*
G37*
G36*
X62396821Y-32181313D02*
X62396824Y-32181314D01*
X62396825Y-32181314D01*
X62557239Y-32229975D01*
X62557241Y-32229976D01*
X62557244Y-32229977D01*
X62705078Y-32308995D01*
X62834659Y-32415341D01*
X62941005Y-32544922D01*
X63020023Y-32692756D01*
X63020024Y-32692759D01*
X63020025Y-32692761D01*
X63068686Y-32853175D01*
X63068687Y-32853179D01*
X63085117Y-33020000D01*
X63068687Y-33186821D01*
X63068686Y-33186824D01*
X63068686Y-33186825D01*
X63043993Y-33268228D01*
X63020023Y-33347244D01*
X62941005Y-33495078D01*
X62834659Y-33624659D01*
X62705078Y-33731005D01*
X62557244Y-33810023D01*
X62557241Y-33810024D01*
X62557239Y-33810025D01*
X62396825Y-33858686D01*
X62396824Y-33858686D01*
X62396821Y-33858687D01*
X62271804Y-33871000D01*
X62188196Y-33871000D01*
X62063179Y-33858687D01*
X62063176Y-33858686D01*
X62063175Y-33858686D01*
X61902761Y-33810025D01*
X61902759Y-33810024D01*
X61902756Y-33810023D01*
X61754922Y-33731005D01*
X61625341Y-33624659D01*
X61518995Y-33495078D01*
X61439977Y-33347244D01*
X61416008Y-33268228D01*
X61391314Y-33186825D01*
X61391314Y-33186824D01*
X61391313Y-33186821D01*
X61374883Y-33020000D01*
X61391313Y-32853179D01*
X61391314Y-32853175D01*
X61439975Y-32692761D01*
X61439976Y-32692759D01*
X61439977Y-32692756D01*
X61518995Y-32544922D01*
X61625341Y-32415341D01*
X61754922Y-32308995D01*
X61902756Y-32229977D01*
X61902759Y-32229976D01*
X61902761Y-32229975D01*
X62063175Y-32181314D01*
X62063176Y-32181314D01*
X62063179Y-32181313D01*
X62188196Y-32169000D01*
X62271804Y-32169000D01*
X62396821Y-32181313D01*
X62396821Y-32181313D01*
G37*
G36*
X49778228Y-32201703D02*
X49933100Y-32265853D01*
X50072481Y-32358985D01*
X50191015Y-32477519D01*
X50284147Y-32616900D01*
X50348297Y-32771772D01*
X50381000Y-32936184D01*
X50381000Y-33103816D01*
X50348297Y-33268228D01*
X50284147Y-33423100D01*
X50191015Y-33562481D01*
X50072481Y-33681015D01*
X49933100Y-33774147D01*
X49778228Y-33838297D01*
X49613816Y-33871000D01*
X49446184Y-33871000D01*
X49281772Y-33838297D01*
X49126900Y-33774147D01*
X48987519Y-33681015D01*
X48868985Y-33562481D01*
X48775853Y-33423100D01*
X48711703Y-33268228D01*
X48679000Y-33103816D01*
X48679000Y-32936184D01*
X48711703Y-32771772D01*
X48775853Y-32616900D01*
X48868985Y-32477519D01*
X48987519Y-32358985D01*
X49126900Y-32265853D01*
X49281772Y-32201703D01*
X49446184Y-32169000D01*
X49613816Y-32169000D01*
X49778228Y-32201703D01*
X49778228Y-32201703D01*
G37*
G36*
X47238228Y-32201703D02*
X47393100Y-32265853D01*
X47532481Y-32358985D01*
X47651015Y-32477519D01*
X47744147Y-32616900D01*
X47808297Y-32771772D01*
X47841000Y-32936184D01*
X47841000Y-33103816D01*
X47808297Y-33268228D01*
X47744147Y-33423100D01*
X47651015Y-33562481D01*
X47532481Y-33681015D01*
X47393100Y-33774147D01*
X47238228Y-33838297D01*
X47073816Y-33871000D01*
X46906184Y-33871000D01*
X46741772Y-33838297D01*
X46586900Y-33774147D01*
X46447519Y-33681015D01*
X46328985Y-33562481D01*
X46235853Y-33423100D01*
X46171703Y-33268228D01*
X46139000Y-33103816D01*
X46139000Y-32936184D01*
X46171703Y-32771772D01*
X46235853Y-32616900D01*
X46328985Y-32477519D01*
X46447519Y-32358985D01*
X46586900Y-32265853D01*
X46741772Y-32201703D01*
X46906184Y-32169000D01*
X47073816Y-32169000D01*
X47238228Y-32201703D01*
X47238228Y-32201703D01*
G37*
G36*
X34538228Y-32201703D02*
X34693100Y-32265853D01*
X34832481Y-32358985D01*
X34951015Y-32477519D01*
X35044147Y-32616900D01*
X35108297Y-32771772D01*
X35141000Y-32936184D01*
X35141000Y-33103816D01*
X35108297Y-33268228D01*
X35044147Y-33423100D01*
X34951015Y-33562481D01*
X34832481Y-33681015D01*
X34693100Y-33774147D01*
X34538228Y-33838297D01*
X34373816Y-33871000D01*
X34206184Y-33871000D01*
X34041772Y-33838297D01*
X33886900Y-33774147D01*
X33747519Y-33681015D01*
X33628985Y-33562481D01*
X33535853Y-33423100D01*
X33471703Y-33268228D01*
X33439000Y-33103816D01*
X33439000Y-32936184D01*
X33471703Y-32771772D01*
X33535853Y-32616900D01*
X33628985Y-32477519D01*
X33747519Y-32358985D01*
X33886900Y-32265853D01*
X34041772Y-32201703D01*
X34206184Y-32169000D01*
X34373816Y-32169000D01*
X34538228Y-32201703D01*
X34538228Y-32201703D01*
G37*
G36*
X44698228Y-32201703D02*
X44853100Y-32265853D01*
X44992481Y-32358985D01*
X45111015Y-32477519D01*
X45204147Y-32616900D01*
X45268297Y-32771772D01*
X45301000Y-32936184D01*
X45301000Y-33103816D01*
X45268297Y-33268228D01*
X45204147Y-33423100D01*
X45111015Y-33562481D01*
X44992481Y-33681015D01*
X44853100Y-33774147D01*
X44698228Y-33838297D01*
X44533816Y-33871000D01*
X44366184Y-33871000D01*
X44201772Y-33838297D01*
X44046900Y-33774147D01*
X43907519Y-33681015D01*
X43788985Y-33562481D01*
X43695853Y-33423100D01*
X43631703Y-33268228D01*
X43599000Y-33103816D01*
X43599000Y-32936184D01*
X43631703Y-32771772D01*
X43695853Y-32616900D01*
X43788985Y-32477519D01*
X43907519Y-32358985D01*
X44046900Y-32265853D01*
X44201772Y-32201703D01*
X44366184Y-32169000D01*
X44533816Y-32169000D01*
X44698228Y-32201703D01*
X44698228Y-32201703D01*
G37*
G36*
X37078228Y-32201703D02*
X37233100Y-32265853D01*
X37372481Y-32358985D01*
X37491015Y-32477519D01*
X37584147Y-32616900D01*
X37648297Y-32771772D01*
X37681000Y-32936184D01*
X37681000Y-33103816D01*
X37648297Y-33268228D01*
X37584147Y-33423100D01*
X37491015Y-33562481D01*
X37372481Y-33681015D01*
X37233100Y-33774147D01*
X37078228Y-33838297D01*
X36913816Y-33871000D01*
X36746184Y-33871000D01*
X36581772Y-33838297D01*
X36426900Y-33774147D01*
X36287519Y-33681015D01*
X36168985Y-33562481D01*
X36075853Y-33423100D01*
X36011703Y-33268228D01*
X35979000Y-33103816D01*
X35979000Y-32936184D01*
X36011703Y-32771772D01*
X36075853Y-32616900D01*
X36168985Y-32477519D01*
X36287519Y-32358985D01*
X36426900Y-32265853D01*
X36581772Y-32201703D01*
X36746184Y-32169000D01*
X36913816Y-32169000D01*
X37078228Y-32201703D01*
X37078228Y-32201703D01*
G37*
G36*
X39618228Y-32201703D02*
X39773100Y-32265853D01*
X39912481Y-32358985D01*
X40031015Y-32477519D01*
X40124147Y-32616900D01*
X40188297Y-32771772D01*
X40221000Y-32936184D01*
X40221000Y-33103816D01*
X40188297Y-33268228D01*
X40124147Y-33423100D01*
X40031015Y-33562481D01*
X39912481Y-33681015D01*
X39773100Y-33774147D01*
X39618228Y-33838297D01*
X39453816Y-33871000D01*
X39286184Y-33871000D01*
X39121772Y-33838297D01*
X38966900Y-33774147D01*
X38827519Y-33681015D01*
X38708985Y-33562481D01*
X38615853Y-33423100D01*
X38551703Y-33268228D01*
X38519000Y-33103816D01*
X38519000Y-32936184D01*
X38551703Y-32771772D01*
X38615853Y-32616900D01*
X38708985Y-32477519D01*
X38827519Y-32358985D01*
X38966900Y-32265853D01*
X39121772Y-32201703D01*
X39286184Y-32169000D01*
X39453816Y-32169000D01*
X39618228Y-32201703D01*
X39618228Y-32201703D01*
G37*
G36*
X42158228Y-32201703D02*
X42313100Y-32265853D01*
X42452481Y-32358985D01*
X42571015Y-32477519D01*
X42664147Y-32616900D01*
X42728297Y-32771772D01*
X42761000Y-32936184D01*
X42761000Y-33103816D01*
X42728297Y-33268228D01*
X42664147Y-33423100D01*
X42571015Y-33562481D01*
X42452481Y-33681015D01*
X42313100Y-33774147D01*
X42158228Y-33838297D01*
X41993816Y-33871000D01*
X41826184Y-33871000D01*
X41661772Y-33838297D01*
X41506900Y-33774147D01*
X41367519Y-33681015D01*
X41248985Y-33562481D01*
X41155853Y-33423100D01*
X41091703Y-33268228D01*
X41059000Y-33103816D01*
X41059000Y-32936184D01*
X41091703Y-32771772D01*
X41155853Y-32616900D01*
X41248985Y-32477519D01*
X41367519Y-32358985D01*
X41506900Y-32265853D01*
X41661772Y-32201703D01*
X41826184Y-32169000D01*
X41993816Y-32169000D01*
X42158228Y-32201703D01*
X42158228Y-32201703D01*
G37*
G36*
X31998228Y-32201703D02*
X32153100Y-32265853D01*
X32292481Y-32358985D01*
X32411015Y-32477519D01*
X32504147Y-32616900D01*
X32568297Y-32771772D01*
X32601000Y-32936184D01*
X32601000Y-33103816D01*
X32568297Y-33268228D01*
X32504147Y-33423100D01*
X32411015Y-33562481D01*
X32292481Y-33681015D01*
X32153100Y-33774147D01*
X31998228Y-33838297D01*
X31833816Y-33871000D01*
X31666184Y-33871000D01*
X31501772Y-33838297D01*
X31346900Y-33774147D01*
X31207519Y-33681015D01*
X31088985Y-33562481D01*
X30995853Y-33423100D01*
X30931703Y-33268228D01*
X30899000Y-33103816D01*
X30899000Y-32936184D01*
X30931703Y-32771772D01*
X30995853Y-32616900D01*
X31088985Y-32477519D01*
X31207519Y-32358985D01*
X31346900Y-32265853D01*
X31501772Y-32201703D01*
X31666184Y-32169000D01*
X31833816Y-32169000D01*
X31998228Y-32201703D01*
X31998228Y-32201703D01*
G37*
G36*
X54776821Y-32181313D02*
X54776824Y-32181314D01*
X54776825Y-32181314D01*
X54937239Y-32229975D01*
X54937241Y-32229976D01*
X54937244Y-32229977D01*
X55085078Y-32308995D01*
X55214659Y-32415341D01*
X55321005Y-32544922D01*
X55400023Y-32692756D01*
X55400024Y-32692759D01*
X55400025Y-32692761D01*
X55448686Y-32853175D01*
X55448687Y-32853179D01*
X55465117Y-33020000D01*
X55448687Y-33186821D01*
X55448686Y-33186824D01*
X55448686Y-33186825D01*
X55423993Y-33268228D01*
X55400023Y-33347244D01*
X55321005Y-33495078D01*
X55214659Y-33624659D01*
X55085078Y-33731005D01*
X54937244Y-33810023D01*
X54937241Y-33810024D01*
X54937239Y-33810025D01*
X54776825Y-33858686D01*
X54776824Y-33858686D01*
X54776821Y-33858687D01*
X54651804Y-33871000D01*
X54568196Y-33871000D01*
X54443179Y-33858687D01*
X54443176Y-33858686D01*
X54443175Y-33858686D01*
X54282761Y-33810025D01*
X54282759Y-33810024D01*
X54282756Y-33810023D01*
X54134922Y-33731005D01*
X54005341Y-33624659D01*
X53898995Y-33495078D01*
X53819977Y-33347244D01*
X53796008Y-33268228D01*
X53771314Y-33186825D01*
X53771314Y-33186824D01*
X53771313Y-33186821D01*
X53754883Y-33020000D01*
X53771313Y-32853179D01*
X53771314Y-32853175D01*
X53819975Y-32692761D01*
X53819976Y-32692759D01*
X53819977Y-32692756D01*
X53898995Y-32544922D01*
X54005341Y-32415341D01*
X54134922Y-32308995D01*
X54282756Y-32229977D01*
X54282759Y-32229976D01*
X54282761Y-32229975D01*
X54443175Y-32181314D01*
X54443176Y-32181314D01*
X54443179Y-32181313D01*
X54568196Y-32169000D01*
X54651804Y-32169000D01*
X54776821Y-32181313D01*
X54776821Y-32181313D01*
G37*
G36*
X19298228Y-29661703D02*
X19453100Y-29725853D01*
X19592481Y-29818985D01*
X19711015Y-29937519D01*
X19804147Y-30076900D01*
X19868297Y-30231772D01*
X19901000Y-30396184D01*
X19901000Y-30563816D01*
X19868297Y-30728228D01*
X19804147Y-30883100D01*
X19711015Y-31022481D01*
X19592481Y-31141015D01*
X19453100Y-31234147D01*
X19298228Y-31298297D01*
X19133816Y-31331000D01*
X18966184Y-31331000D01*
X18801772Y-31298297D01*
X18646900Y-31234147D01*
X18507519Y-31141015D01*
X18388985Y-31022481D01*
X18295853Y-30883100D01*
X18231703Y-30728228D01*
X18199000Y-30563816D01*
X18199000Y-30396184D01*
X18231703Y-30231772D01*
X18295853Y-30076900D01*
X18388985Y-29937519D01*
X18507519Y-29818985D01*
X18646900Y-29725853D01*
X18801772Y-29661703D01*
X18966184Y-29629000D01*
X19133816Y-29629000D01*
X19298228Y-29661703D01*
X19298228Y-29661703D01*
G37*
G36*
X24378228Y-29661703D02*
X24533100Y-29725853D01*
X24672481Y-29818985D01*
X24791015Y-29937519D01*
X24884147Y-30076900D01*
X24948297Y-30231772D01*
X24981000Y-30396184D01*
X24981000Y-30563816D01*
X24948297Y-30728228D01*
X24884147Y-30883100D01*
X24791015Y-31022481D01*
X24672481Y-31141015D01*
X24533100Y-31234147D01*
X24378228Y-31298297D01*
X24213816Y-31331000D01*
X24046184Y-31331000D01*
X23881772Y-31298297D01*
X23726900Y-31234147D01*
X23587519Y-31141015D01*
X23468985Y-31022481D01*
X23375853Y-30883100D01*
X23311703Y-30728228D01*
X23279000Y-30563816D01*
X23279000Y-30396184D01*
X23311703Y-30231772D01*
X23375853Y-30076900D01*
X23468985Y-29937519D01*
X23587519Y-29818985D01*
X23726900Y-29725853D01*
X23881772Y-29661703D01*
X24046184Y-29629000D01*
X24213816Y-29629000D01*
X24378228Y-29661703D01*
X24378228Y-29661703D01*
G37*
G36*
X62396821Y-29641313D02*
X62396824Y-29641314D01*
X62396825Y-29641314D01*
X62557239Y-29689975D01*
X62557241Y-29689976D01*
X62557244Y-29689977D01*
X62705078Y-29768995D01*
X62834659Y-29875341D01*
X62941005Y-30004922D01*
X63020023Y-30152756D01*
X63020024Y-30152759D01*
X63020025Y-30152761D01*
X63068686Y-30313175D01*
X63068687Y-30313179D01*
X63085117Y-30480000D01*
X63068687Y-30646821D01*
X63068686Y-30646824D01*
X63068686Y-30646825D01*
X63043993Y-30728228D01*
X63020023Y-30807244D01*
X62941005Y-30955078D01*
X62834659Y-31084659D01*
X62705078Y-31191005D01*
X62557244Y-31270023D01*
X62557241Y-31270024D01*
X62557239Y-31270025D01*
X62396825Y-31318686D01*
X62396824Y-31318686D01*
X62396821Y-31318687D01*
X62271804Y-31331000D01*
X62188196Y-31331000D01*
X62063179Y-31318687D01*
X62063176Y-31318686D01*
X62063175Y-31318686D01*
X61902761Y-31270025D01*
X61902759Y-31270024D01*
X61902756Y-31270023D01*
X61754922Y-31191005D01*
X61625341Y-31084659D01*
X61518995Y-30955078D01*
X61439977Y-30807244D01*
X61416008Y-30728228D01*
X61391314Y-30646825D01*
X61391314Y-30646824D01*
X61391313Y-30646821D01*
X61374883Y-30480000D01*
X61391313Y-30313179D01*
X61391314Y-30313175D01*
X61439975Y-30152761D01*
X61439976Y-30152759D01*
X61439977Y-30152756D01*
X61518995Y-30004922D01*
X61625341Y-29875341D01*
X61754922Y-29768995D01*
X61902756Y-29689977D01*
X61902759Y-29689976D01*
X61902761Y-29689975D01*
X62063175Y-29641314D01*
X62063176Y-29641314D01*
X62063179Y-29641313D01*
X62188196Y-29629000D01*
X62271804Y-29629000D01*
X62396821Y-29641313D01*
X62396821Y-29641313D01*
G37*
G36*
X54776821Y-29641313D02*
X54776824Y-29641314D01*
X54776825Y-29641314D01*
X54937239Y-29689975D01*
X54937241Y-29689976D01*
X54937244Y-29689977D01*
X55085078Y-29768995D01*
X55214659Y-29875341D01*
X55321005Y-30004922D01*
X55400023Y-30152756D01*
X55400024Y-30152759D01*
X55400025Y-30152761D01*
X55448686Y-30313175D01*
X55448687Y-30313179D01*
X55465117Y-30480000D01*
X55448687Y-30646821D01*
X55448686Y-30646824D01*
X55448686Y-30646825D01*
X55423993Y-30728228D01*
X55400023Y-30807244D01*
X55321005Y-30955078D01*
X55214659Y-31084659D01*
X55085078Y-31191005D01*
X54937244Y-31270023D01*
X54937241Y-31270024D01*
X54937239Y-31270025D01*
X54776825Y-31318686D01*
X54776824Y-31318686D01*
X54776821Y-31318687D01*
X54651804Y-31331000D01*
X54568196Y-31331000D01*
X54443179Y-31318687D01*
X54443176Y-31318686D01*
X54443175Y-31318686D01*
X54282761Y-31270025D01*
X54282759Y-31270024D01*
X54282756Y-31270023D01*
X54134922Y-31191005D01*
X54005341Y-31084659D01*
X53898995Y-30955078D01*
X53819977Y-30807244D01*
X53796008Y-30728228D01*
X53771314Y-30646825D01*
X53771314Y-30646824D01*
X53771313Y-30646821D01*
X53754883Y-30480000D01*
X53771313Y-30313179D01*
X53771314Y-30313175D01*
X53819975Y-30152761D01*
X53819976Y-30152759D01*
X53819977Y-30152756D01*
X53898995Y-30004922D01*
X54005341Y-29875341D01*
X54134922Y-29768995D01*
X54282756Y-29689977D01*
X54282759Y-29689976D01*
X54282761Y-29689975D01*
X54443175Y-29641314D01*
X54443176Y-29641314D01*
X54443179Y-29641313D01*
X54568196Y-29629000D01*
X54651804Y-29629000D01*
X54776821Y-29641313D01*
X54776821Y-29641313D01*
G37*
G36*
X49778228Y-29661703D02*
X49933100Y-29725853D01*
X50072481Y-29818985D01*
X50191015Y-29937519D01*
X50284147Y-30076900D01*
X50348297Y-30231772D01*
X50381000Y-30396184D01*
X50381000Y-30563816D01*
X50348297Y-30728228D01*
X50284147Y-30883100D01*
X50191015Y-31022481D01*
X50072481Y-31141015D01*
X49933100Y-31234147D01*
X49778228Y-31298297D01*
X49613816Y-31331000D01*
X49446184Y-31331000D01*
X49281772Y-31298297D01*
X49126900Y-31234147D01*
X48987519Y-31141015D01*
X48868985Y-31022481D01*
X48775853Y-30883100D01*
X48711703Y-30728228D01*
X48679000Y-30563816D01*
X48679000Y-30396184D01*
X48711703Y-30231772D01*
X48775853Y-30076900D01*
X48868985Y-29937519D01*
X48987519Y-29818985D01*
X49126900Y-29725853D01*
X49281772Y-29661703D01*
X49446184Y-29629000D01*
X49613816Y-29629000D01*
X49778228Y-29661703D01*
X49778228Y-29661703D01*
G37*
G36*
X29458228Y-29661703D02*
X29613100Y-29725853D01*
X29752481Y-29818985D01*
X29871015Y-29937519D01*
X29964147Y-30076900D01*
X30028297Y-30231772D01*
X30061000Y-30396184D01*
X30061000Y-30563816D01*
X30028297Y-30728228D01*
X29964147Y-30883100D01*
X29871015Y-31022481D01*
X29752481Y-31141015D01*
X29613100Y-31234147D01*
X29458228Y-31298297D01*
X29293816Y-31331000D01*
X29126184Y-31331000D01*
X28961772Y-31298297D01*
X28806900Y-31234147D01*
X28667519Y-31141015D01*
X28548985Y-31022481D01*
X28455853Y-30883100D01*
X28391703Y-30728228D01*
X28359000Y-30563816D01*
X28359000Y-30396184D01*
X28391703Y-30231772D01*
X28455853Y-30076900D01*
X28548985Y-29937519D01*
X28667519Y-29818985D01*
X28806900Y-29725853D01*
X28961772Y-29661703D01*
X29126184Y-29629000D01*
X29293816Y-29629000D01*
X29458228Y-29661703D01*
X29458228Y-29661703D01*
G37*
G36*
X26918228Y-29661703D02*
X27073100Y-29725853D01*
X27212481Y-29818985D01*
X27331015Y-29937519D01*
X27424147Y-30076900D01*
X27488297Y-30231772D01*
X27521000Y-30396184D01*
X27521000Y-30563816D01*
X27488297Y-30728228D01*
X27424147Y-30883100D01*
X27331015Y-31022481D01*
X27212481Y-31141015D01*
X27073100Y-31234147D01*
X26918228Y-31298297D01*
X26753816Y-31331000D01*
X26586184Y-31331000D01*
X26421772Y-31298297D01*
X26266900Y-31234147D01*
X26127519Y-31141015D01*
X26008985Y-31022481D01*
X25915853Y-30883100D01*
X25851703Y-30728228D01*
X25819000Y-30563816D01*
X25819000Y-30396184D01*
X25851703Y-30231772D01*
X25915853Y-30076900D01*
X26008985Y-29937519D01*
X26127519Y-29818985D01*
X26266900Y-29725853D01*
X26421772Y-29661703D01*
X26586184Y-29629000D01*
X26753816Y-29629000D01*
X26918228Y-29661703D01*
X26918228Y-29661703D01*
G37*
G36*
X34538228Y-27121703D02*
X34693100Y-27185853D01*
X34832481Y-27278985D01*
X34951015Y-27397519D01*
X35044147Y-27536900D01*
X35108297Y-27691772D01*
X35141000Y-27856184D01*
X35141000Y-28023816D01*
X35108297Y-28188228D01*
X35044147Y-28343100D01*
X34951015Y-28482481D01*
X34832481Y-28601015D01*
X34693100Y-28694147D01*
X34538228Y-28758297D01*
X34373816Y-28791000D01*
X34206184Y-28791000D01*
X34041772Y-28758297D01*
X33886900Y-28694147D01*
X33747519Y-28601015D01*
X33628985Y-28482481D01*
X33535853Y-28343100D01*
X33471703Y-28188228D01*
X33439000Y-28023816D01*
X33439000Y-27856184D01*
X33471703Y-27691772D01*
X33535853Y-27536900D01*
X33628985Y-27397519D01*
X33747519Y-27278985D01*
X33886900Y-27185853D01*
X34041772Y-27121703D01*
X34206184Y-27089000D01*
X34373816Y-27089000D01*
X34538228Y-27121703D01*
X34538228Y-27121703D01*
G37*
G36*
X39618228Y-27121703D02*
X39773100Y-27185853D01*
X39912481Y-27278985D01*
X40031015Y-27397519D01*
X40124147Y-27536900D01*
X40188297Y-27691772D01*
X40221000Y-27856184D01*
X40221000Y-28023816D01*
X40188297Y-28188228D01*
X40124147Y-28343100D01*
X40031015Y-28482481D01*
X39912481Y-28601015D01*
X39773100Y-28694147D01*
X39618228Y-28758297D01*
X39453816Y-28791000D01*
X39286184Y-28791000D01*
X39121772Y-28758297D01*
X38966900Y-28694147D01*
X38827519Y-28601015D01*
X38708985Y-28482481D01*
X38615853Y-28343100D01*
X38551703Y-28188228D01*
X38519000Y-28023816D01*
X38519000Y-27856184D01*
X38551703Y-27691772D01*
X38615853Y-27536900D01*
X38708985Y-27397519D01*
X38827519Y-27278985D01*
X38966900Y-27185853D01*
X39121772Y-27121703D01*
X39286184Y-27089000D01*
X39453816Y-27089000D01*
X39618228Y-27121703D01*
X39618228Y-27121703D01*
G37*
G36*
X42158228Y-27121703D02*
X42313100Y-27185853D01*
X42452481Y-27278985D01*
X42571015Y-27397519D01*
X42664147Y-27536900D01*
X42728297Y-27691772D01*
X42761000Y-27856184D01*
X42761000Y-28023816D01*
X42728297Y-28188228D01*
X42664147Y-28343100D01*
X42571015Y-28482481D01*
X42452481Y-28601015D01*
X42313100Y-28694147D01*
X42158228Y-28758297D01*
X41993816Y-28791000D01*
X41826184Y-28791000D01*
X41661772Y-28758297D01*
X41506900Y-28694147D01*
X41367519Y-28601015D01*
X41248985Y-28482481D01*
X41155853Y-28343100D01*
X41091703Y-28188228D01*
X41059000Y-28023816D01*
X41059000Y-27856184D01*
X41091703Y-27691772D01*
X41155853Y-27536900D01*
X41248985Y-27397519D01*
X41367519Y-27278985D01*
X41506900Y-27185853D01*
X41661772Y-27121703D01*
X41826184Y-27089000D01*
X41993816Y-27089000D01*
X42158228Y-27121703D01*
X42158228Y-27121703D01*
G37*
G36*
X44698228Y-27121703D02*
X44853100Y-27185853D01*
X44992481Y-27278985D01*
X45111015Y-27397519D01*
X45204147Y-27536900D01*
X45268297Y-27691772D01*
X45301000Y-27856184D01*
X45301000Y-28023816D01*
X45268297Y-28188228D01*
X45204147Y-28343100D01*
X45111015Y-28482481D01*
X44992481Y-28601015D01*
X44853100Y-28694147D01*
X44698228Y-28758297D01*
X44533816Y-28791000D01*
X44366184Y-28791000D01*
X44201772Y-28758297D01*
X44046900Y-28694147D01*
X43907519Y-28601015D01*
X43788985Y-28482481D01*
X43695853Y-28343100D01*
X43631703Y-28188228D01*
X43599000Y-28023816D01*
X43599000Y-27856184D01*
X43631703Y-27691772D01*
X43695853Y-27536900D01*
X43788985Y-27397519D01*
X43907519Y-27278985D01*
X44046900Y-27185853D01*
X44201772Y-27121703D01*
X44366184Y-27089000D01*
X44533816Y-27089000D01*
X44698228Y-27121703D01*
X44698228Y-27121703D01*
G37*
G36*
X47238228Y-27121703D02*
X47393100Y-27185853D01*
X47532481Y-27278985D01*
X47651015Y-27397519D01*
X47744147Y-27536900D01*
X47808297Y-27691772D01*
X47841000Y-27856184D01*
X47841000Y-28023816D01*
X47808297Y-28188228D01*
X47744147Y-28343100D01*
X47651015Y-28482481D01*
X47532481Y-28601015D01*
X47393100Y-28694147D01*
X47238228Y-28758297D01*
X47073816Y-28791000D01*
X46906184Y-28791000D01*
X46741772Y-28758297D01*
X46586900Y-28694147D01*
X46447519Y-28601015D01*
X46328985Y-28482481D01*
X46235853Y-28343100D01*
X46171703Y-28188228D01*
X46139000Y-28023816D01*
X46139000Y-27856184D01*
X46171703Y-27691772D01*
X46235853Y-27536900D01*
X46328985Y-27397519D01*
X46447519Y-27278985D01*
X46586900Y-27185853D01*
X46741772Y-27121703D01*
X46906184Y-27089000D01*
X47073816Y-27089000D01*
X47238228Y-27121703D01*
X47238228Y-27121703D01*
G37*
G36*
X31998228Y-27121703D02*
X32153100Y-27185853D01*
X32292481Y-27278985D01*
X32411015Y-27397519D01*
X32504147Y-27536900D01*
X32568297Y-27691772D01*
X32601000Y-27856184D01*
X32601000Y-28023816D01*
X32568297Y-28188228D01*
X32504147Y-28343100D01*
X32411015Y-28482481D01*
X32292481Y-28601015D01*
X32153100Y-28694147D01*
X31998228Y-28758297D01*
X31833816Y-28791000D01*
X31666184Y-28791000D01*
X31501772Y-28758297D01*
X31346900Y-28694147D01*
X31207519Y-28601015D01*
X31088985Y-28482481D01*
X30995853Y-28343100D01*
X30931703Y-28188228D01*
X30899000Y-28023816D01*
X30899000Y-27856184D01*
X30931703Y-27691772D01*
X30995853Y-27536900D01*
X31088985Y-27397519D01*
X31207519Y-27278985D01*
X31346900Y-27185853D01*
X31501772Y-27121703D01*
X31666184Y-27089000D01*
X31833816Y-27089000D01*
X31998228Y-27121703D01*
X31998228Y-27121703D01*
G37*
G36*
X29458228Y-27121703D02*
X29613100Y-27185853D01*
X29752481Y-27278985D01*
X29871015Y-27397519D01*
X29964147Y-27536900D01*
X30028297Y-27691772D01*
X30061000Y-27856184D01*
X30061000Y-28023816D01*
X30028297Y-28188228D01*
X29964147Y-28343100D01*
X29871015Y-28482481D01*
X29752481Y-28601015D01*
X29613100Y-28694147D01*
X29458228Y-28758297D01*
X29293816Y-28791000D01*
X29126184Y-28791000D01*
X28961772Y-28758297D01*
X28806900Y-28694147D01*
X28667519Y-28601015D01*
X28548985Y-28482481D01*
X28455853Y-28343100D01*
X28391703Y-28188228D01*
X28359000Y-28023816D01*
X28359000Y-27856184D01*
X28391703Y-27691772D01*
X28455853Y-27536900D01*
X28548985Y-27397519D01*
X28667519Y-27278985D01*
X28806900Y-27185853D01*
X28961772Y-27121703D01*
X29126184Y-27089000D01*
X29293816Y-27089000D01*
X29458228Y-27121703D01*
X29458228Y-27121703D01*
G37*
G36*
X16758228Y-27121703D02*
X16913100Y-27185853D01*
X17052481Y-27278985D01*
X17171015Y-27397519D01*
X17264147Y-27536900D01*
X17328297Y-27691772D01*
X17361000Y-27856184D01*
X17361000Y-28023816D01*
X17328297Y-28188228D01*
X17264147Y-28343100D01*
X17171015Y-28482481D01*
X17052481Y-28601015D01*
X16913100Y-28694147D01*
X16758228Y-28758297D01*
X16593816Y-28791000D01*
X16426184Y-28791000D01*
X16261772Y-28758297D01*
X16106900Y-28694147D01*
X15967519Y-28601015D01*
X15848985Y-28482481D01*
X15755853Y-28343100D01*
X15691703Y-28188228D01*
X15659000Y-28023816D01*
X15659000Y-27856184D01*
X15691703Y-27691772D01*
X15755853Y-27536900D01*
X15848985Y-27397519D01*
X15967519Y-27278985D01*
X16106900Y-27185853D01*
X16261772Y-27121703D01*
X16426184Y-27089000D01*
X16593816Y-27089000D01*
X16758228Y-27121703D01*
X16758228Y-27121703D01*
G37*
G36*
X24378228Y-27121703D02*
X24533100Y-27185853D01*
X24672481Y-27278985D01*
X24791015Y-27397519D01*
X24884147Y-27536900D01*
X24948297Y-27691772D01*
X24981000Y-27856184D01*
X24981000Y-28023816D01*
X24948297Y-28188228D01*
X24884147Y-28343100D01*
X24791015Y-28482481D01*
X24672481Y-28601015D01*
X24533100Y-28694147D01*
X24378228Y-28758297D01*
X24213816Y-28791000D01*
X24046184Y-28791000D01*
X23881772Y-28758297D01*
X23726900Y-28694147D01*
X23587519Y-28601015D01*
X23468985Y-28482481D01*
X23375853Y-28343100D01*
X23311703Y-28188228D01*
X23279000Y-28023816D01*
X23279000Y-27856184D01*
X23311703Y-27691772D01*
X23375853Y-27536900D01*
X23468985Y-27397519D01*
X23587519Y-27278985D01*
X23726900Y-27185853D01*
X23881772Y-27121703D01*
X24046184Y-27089000D01*
X24213816Y-27089000D01*
X24378228Y-27121703D01*
X24378228Y-27121703D01*
G37*
G36*
X49778228Y-27121703D02*
X49933100Y-27185853D01*
X50072481Y-27278985D01*
X50191015Y-27397519D01*
X50284147Y-27536900D01*
X50348297Y-27691772D01*
X50381000Y-27856184D01*
X50381000Y-28023816D01*
X50348297Y-28188228D01*
X50284147Y-28343100D01*
X50191015Y-28482481D01*
X50072481Y-28601015D01*
X49933100Y-28694147D01*
X49778228Y-28758297D01*
X49613816Y-28791000D01*
X49446184Y-28791000D01*
X49281772Y-28758297D01*
X49126900Y-28694147D01*
X48987519Y-28601015D01*
X48868985Y-28482481D01*
X48775853Y-28343100D01*
X48711703Y-28188228D01*
X48679000Y-28023816D01*
X48679000Y-27856184D01*
X48711703Y-27691772D01*
X48775853Y-27536900D01*
X48868985Y-27397519D01*
X48987519Y-27278985D01*
X49126900Y-27185853D01*
X49281772Y-27121703D01*
X49446184Y-27089000D01*
X49613816Y-27089000D01*
X49778228Y-27121703D01*
X49778228Y-27121703D01*
G37*
G36*
X26918228Y-27121703D02*
X27073100Y-27185853D01*
X27212481Y-27278985D01*
X27331015Y-27397519D01*
X27424147Y-27536900D01*
X27488297Y-27691772D01*
X27521000Y-27856184D01*
X27521000Y-28023816D01*
X27488297Y-28188228D01*
X27424147Y-28343100D01*
X27331015Y-28482481D01*
X27212481Y-28601015D01*
X27073100Y-28694147D01*
X26918228Y-28758297D01*
X26753816Y-28791000D01*
X26586184Y-28791000D01*
X26421772Y-28758297D01*
X26266900Y-28694147D01*
X26127519Y-28601015D01*
X26008985Y-28482481D01*
X25915853Y-28343100D01*
X25851703Y-28188228D01*
X25819000Y-28023816D01*
X25819000Y-27856184D01*
X25851703Y-27691772D01*
X25915853Y-27536900D01*
X26008985Y-27397519D01*
X26127519Y-27278985D01*
X26266900Y-27185853D01*
X26421772Y-27121703D01*
X26586184Y-27089000D01*
X26753816Y-27089000D01*
X26918228Y-27121703D01*
X26918228Y-27121703D01*
G37*
G36*
X37078228Y-27121703D02*
X37233100Y-27185853D01*
X37372481Y-27278985D01*
X37491015Y-27397519D01*
X37584147Y-27536900D01*
X37648297Y-27691772D01*
X37681000Y-27856184D01*
X37681000Y-28023816D01*
X37648297Y-28188228D01*
X37584147Y-28343100D01*
X37491015Y-28482481D01*
X37372481Y-28601015D01*
X37233100Y-28694147D01*
X37078228Y-28758297D01*
X36913816Y-28791000D01*
X36746184Y-28791000D01*
X36581772Y-28758297D01*
X36426900Y-28694147D01*
X36287519Y-28601015D01*
X36168985Y-28482481D01*
X36075853Y-28343100D01*
X36011703Y-28188228D01*
X35979000Y-28023816D01*
X35979000Y-27856184D01*
X36011703Y-27691772D01*
X36075853Y-27536900D01*
X36168985Y-27397519D01*
X36287519Y-27278985D01*
X36426900Y-27185853D01*
X36581772Y-27121703D01*
X36746184Y-27089000D01*
X36913816Y-27089000D01*
X37078228Y-27121703D01*
X37078228Y-27121703D01*
G37*
G36*
X54776821Y-27101313D02*
X54776824Y-27101314D01*
X54776825Y-27101314D01*
X54937239Y-27149975D01*
X54937241Y-27149976D01*
X54937244Y-27149977D01*
X55085078Y-27228995D01*
X55214659Y-27335341D01*
X55321005Y-27464922D01*
X55400023Y-27612756D01*
X55400024Y-27612759D01*
X55400025Y-27612761D01*
X55448686Y-27773175D01*
X55448687Y-27773179D01*
X55465117Y-27940000D01*
X55448687Y-28106821D01*
X55448686Y-28106824D01*
X55448686Y-28106825D01*
X55423993Y-28188228D01*
X55400023Y-28267244D01*
X55321005Y-28415078D01*
X55214659Y-28544659D01*
X55085078Y-28651005D01*
X54937244Y-28730023D01*
X54937241Y-28730024D01*
X54937239Y-28730025D01*
X54776825Y-28778686D01*
X54776824Y-28778686D01*
X54776821Y-28778687D01*
X54651804Y-28791000D01*
X54568196Y-28791000D01*
X54443179Y-28778687D01*
X54443176Y-28778686D01*
X54443175Y-28778686D01*
X54282761Y-28730025D01*
X54282759Y-28730024D01*
X54282756Y-28730023D01*
X54134922Y-28651005D01*
X54005341Y-28544659D01*
X53898995Y-28415078D01*
X53819977Y-28267244D01*
X53796008Y-28188228D01*
X53771314Y-28106825D01*
X53771314Y-28106824D01*
X53771313Y-28106821D01*
X53754883Y-27940000D01*
X53771313Y-27773179D01*
X53771314Y-27773175D01*
X53819975Y-27612761D01*
X53819976Y-27612759D01*
X53819977Y-27612756D01*
X53898995Y-27464922D01*
X54005341Y-27335341D01*
X54134922Y-27228995D01*
X54282756Y-27149977D01*
X54282759Y-27149976D01*
X54282761Y-27149975D01*
X54443175Y-27101314D01*
X54443176Y-27101314D01*
X54443179Y-27101313D01*
X54568196Y-27089000D01*
X54651804Y-27089000D01*
X54776821Y-27101313D01*
X54776821Y-27101313D01*
G37*
G36*
X19298228Y-27121703D02*
X19453100Y-27185853D01*
X19592481Y-27278985D01*
X19711015Y-27397519D01*
X19804147Y-27536900D01*
X19868297Y-27691772D01*
X19901000Y-27856184D01*
X19901000Y-28023816D01*
X19868297Y-28188228D01*
X19804147Y-28343100D01*
X19711015Y-28482481D01*
X19592481Y-28601015D01*
X19453100Y-28694147D01*
X19298228Y-28758297D01*
X19133816Y-28791000D01*
X18966184Y-28791000D01*
X18801772Y-28758297D01*
X18646900Y-28694147D01*
X18507519Y-28601015D01*
X18388985Y-28482481D01*
X18295853Y-28343100D01*
X18231703Y-28188228D01*
X18199000Y-28023816D01*
X18199000Y-27856184D01*
X18231703Y-27691772D01*
X18295853Y-27536900D01*
X18388985Y-27397519D01*
X18507519Y-27278985D01*
X18646900Y-27185853D01*
X18801772Y-27121703D01*
X18966184Y-27089000D01*
X19133816Y-27089000D01*
X19298228Y-27121703D01*
X19298228Y-27121703D01*
G37*
G36*
X62396821Y-27101313D02*
X62396824Y-27101314D01*
X62396825Y-27101314D01*
X62557239Y-27149975D01*
X62557241Y-27149976D01*
X62557244Y-27149977D01*
X62705078Y-27228995D01*
X62834659Y-27335341D01*
X62941005Y-27464922D01*
X63020023Y-27612756D01*
X63020024Y-27612759D01*
X63020025Y-27612761D01*
X63068686Y-27773175D01*
X63068687Y-27773179D01*
X63085117Y-27940000D01*
X63068687Y-28106821D01*
X63068686Y-28106824D01*
X63068686Y-28106825D01*
X63043993Y-28188228D01*
X63020023Y-28267244D01*
X62941005Y-28415078D01*
X62834659Y-28544659D01*
X62705078Y-28651005D01*
X62557244Y-28730023D01*
X62557241Y-28730024D01*
X62557239Y-28730025D01*
X62396825Y-28778686D01*
X62396824Y-28778686D01*
X62396821Y-28778687D01*
X62271804Y-28791000D01*
X62188196Y-28791000D01*
X62063179Y-28778687D01*
X62063176Y-28778686D01*
X62063175Y-28778686D01*
X61902761Y-28730025D01*
X61902759Y-28730024D01*
X61902756Y-28730023D01*
X61754922Y-28651005D01*
X61625341Y-28544659D01*
X61518995Y-28415078D01*
X61439977Y-28267244D01*
X61416008Y-28188228D01*
X61391314Y-28106825D01*
X61391314Y-28106824D01*
X61391313Y-28106821D01*
X61374883Y-27940000D01*
X61391313Y-27773179D01*
X61391314Y-27773175D01*
X61439975Y-27612761D01*
X61439976Y-27612759D01*
X61439977Y-27612756D01*
X61518995Y-27464922D01*
X61625341Y-27335341D01*
X61754922Y-27228995D01*
X61902756Y-27149977D01*
X61902759Y-27149976D01*
X61902761Y-27149975D01*
X62063175Y-27101314D01*
X62063176Y-27101314D01*
X62063179Y-27101313D01*
X62188196Y-27089000D01*
X62271804Y-27089000D01*
X62396821Y-27101313D01*
X62396821Y-27101313D01*
G37*
G36*
X21838228Y-27121703D02*
X21993100Y-27185853D01*
X22132481Y-27278985D01*
X22251015Y-27397519D01*
X22344147Y-27536900D01*
X22408297Y-27691772D01*
X22441000Y-27856184D01*
X22441000Y-28023816D01*
X22408297Y-28188228D01*
X22344147Y-28343100D01*
X22251015Y-28482481D01*
X22132481Y-28601015D01*
X21993100Y-28694147D01*
X21838228Y-28758297D01*
X21673816Y-28791000D01*
X21506184Y-28791000D01*
X21341772Y-28758297D01*
X21186900Y-28694147D01*
X21047519Y-28601015D01*
X20928985Y-28482481D01*
X20835853Y-28343100D01*
X20771703Y-28188228D01*
X20739000Y-28023816D01*
X20739000Y-27856184D01*
X20771703Y-27691772D01*
X20835853Y-27536900D01*
X20928985Y-27397519D01*
X21047519Y-27278985D01*
X21186900Y-27185853D01*
X21341772Y-27121703D01*
X21506184Y-27089000D01*
X21673816Y-27089000D01*
X21838228Y-27121703D01*
X21838228Y-27121703D01*
G37*
G36*
X55461000Y-26251000D02*
X53759000Y-26251000D01*
X53759000Y-24549000D01*
X55461000Y-24549000D01*
X55461000Y-26251000D01*
X55461000Y-26251000D01*
G37*
G36*
X62396821Y-24561313D02*
X62396824Y-24561314D01*
X62396825Y-24561314D01*
X62557239Y-24609975D01*
X62557241Y-24609976D01*
X62557244Y-24609977D01*
X62705078Y-24688995D01*
X62834659Y-24795341D01*
X62941005Y-24924922D01*
X63020023Y-25072756D01*
X63068687Y-25233179D01*
X63085117Y-25400000D01*
X63068687Y-25566821D01*
X63020023Y-25727244D01*
X62941005Y-25875078D01*
X62834659Y-26004659D01*
X62705078Y-26111005D01*
X62557244Y-26190023D01*
X62557241Y-26190024D01*
X62557239Y-26190025D01*
X62396825Y-26238686D01*
X62396824Y-26238686D01*
X62396821Y-26238687D01*
X62271804Y-26251000D01*
X62188196Y-26251000D01*
X62063179Y-26238687D01*
X62063176Y-26238686D01*
X62063175Y-26238686D01*
X61902761Y-26190025D01*
X61902759Y-26190024D01*
X61902756Y-26190023D01*
X61754922Y-26111005D01*
X61625341Y-26004659D01*
X61518995Y-25875078D01*
X61439977Y-25727244D01*
X61391313Y-25566821D01*
X61374883Y-25400000D01*
X61391313Y-25233179D01*
X61439977Y-25072756D01*
X61518995Y-24924922D01*
X61625341Y-24795341D01*
X61754922Y-24688995D01*
X61902756Y-24609977D01*
X61902759Y-24609976D01*
X61902761Y-24609975D01*
X62063175Y-24561314D01*
X62063176Y-24561314D01*
X62063179Y-24561313D01*
X62188196Y-24549000D01*
X62271804Y-24549000D01*
X62396821Y-24561313D01*
X62396821Y-24561313D01*
G37*
G36*
X50830680Y-20350680D02*
X48229320Y-20350680D01*
X48229320Y-17749320D01*
X50830680Y-17749320D01*
X50830680Y-20350680D01*
X50830680Y-20350680D01*
G37*
G36*
X38130680Y-20350680D02*
X35529320Y-20350680D01*
X35529320Y-17749320D01*
X38130680Y-17749320D01*
X38130680Y-20350680D01*
X38130680Y-20350680D01*
G37*
G36*
X34034393Y-17799304D02*
X34271102Y-17897352D01*
X34484138Y-18039698D01*
X34665302Y-18220862D01*
X34807648Y-18433898D01*
X34905696Y-18670607D01*
X34955680Y-18921893D01*
X34955680Y-19178107D01*
X34905696Y-19429393D01*
X34807648Y-19666102D01*
X34665302Y-19879138D01*
X34484138Y-20060302D01*
X34271102Y-20202648D01*
X34034393Y-20300696D01*
X33783107Y-20350680D01*
X33526893Y-20350680D01*
X33275607Y-20300696D01*
X33038898Y-20202648D01*
X32825862Y-20060302D01*
X32644698Y-19879138D01*
X32502352Y-19666102D01*
X32404304Y-19429393D01*
X32354320Y-19178107D01*
X32354320Y-18921893D01*
X32404304Y-18670607D01*
X32502352Y-18433898D01*
X32644698Y-18220862D01*
X32825862Y-18039698D01*
X33038898Y-17897352D01*
X33275607Y-17799304D01*
X33526893Y-17749320D01*
X33783107Y-17749320D01*
X34034393Y-17799304D01*
X34034393Y-17799304D01*
G37*
G36*
X30859393Y-17799304D02*
X31096102Y-17897352D01*
X31309138Y-18039698D01*
X31490302Y-18220862D01*
X31632648Y-18433898D01*
X31730696Y-18670607D01*
X31780680Y-18921893D01*
X31780680Y-19178107D01*
X31730696Y-19429393D01*
X31632648Y-19666102D01*
X31490302Y-19879138D01*
X31309138Y-20060302D01*
X31096102Y-20202648D01*
X30859393Y-20300696D01*
X30608107Y-20350680D01*
X30351893Y-20350680D01*
X30100607Y-20300696D01*
X29863898Y-20202648D01*
X29650862Y-20060302D01*
X29469698Y-19879138D01*
X29327352Y-19666102D01*
X29229304Y-19429393D01*
X29179320Y-19178107D01*
X29179320Y-18921893D01*
X29229304Y-18670607D01*
X29327352Y-18433898D01*
X29469698Y-18220862D01*
X29650862Y-18039698D01*
X29863898Y-17897352D01*
X30100607Y-17799304D01*
X30351893Y-17749320D01*
X30608107Y-17749320D01*
X30859393Y-17799304D01*
X30859393Y-17799304D01*
G37*
G36*
X46099393Y-17799304D02*
X46336102Y-17897352D01*
X46549138Y-18039698D01*
X46730302Y-18220862D01*
X46872648Y-18433898D01*
X46970696Y-18670607D01*
X47020680Y-18921893D01*
X47020680Y-19178107D01*
X46970696Y-19429393D01*
X46872648Y-19666102D01*
X46730302Y-19879138D01*
X46549138Y-20060302D01*
X46336102Y-20202648D01*
X46099393Y-20300696D01*
X45848107Y-20350680D01*
X45591893Y-20350680D01*
X45340607Y-20300696D01*
X45103898Y-20202648D01*
X44890862Y-20060302D01*
X44709698Y-19879138D01*
X44567352Y-19666102D01*
X44469304Y-19429393D01*
X44419320Y-19178107D01*
X44419320Y-18921893D01*
X44469304Y-18670607D01*
X44567352Y-18433898D01*
X44709698Y-18220862D01*
X44890862Y-18039698D01*
X45103898Y-17897352D01*
X45340607Y-17799304D01*
X45591893Y-17749320D01*
X45848107Y-17749320D01*
X46099393Y-17799304D01*
X46099393Y-17799304D01*
G37*
G36*
X61339393Y-17799304D02*
X61576102Y-17897352D01*
X61789138Y-18039698D01*
X61970302Y-18220862D01*
X62112648Y-18433898D01*
X62210696Y-18670607D01*
X62260680Y-18921893D01*
X62260680Y-19178107D01*
X62210696Y-19429393D01*
X62112648Y-19666102D01*
X61970302Y-19879138D01*
X61789138Y-20060302D01*
X61576102Y-20202648D01*
X61339393Y-20300696D01*
X61088107Y-20350680D01*
X60831893Y-20350680D01*
X60580607Y-20300696D01*
X60343898Y-20202648D01*
X60130862Y-20060302D01*
X59949698Y-19879138D01*
X59807352Y-19666102D01*
X59709304Y-19429393D01*
X59659320Y-19178107D01*
X59659320Y-18921893D01*
X59709304Y-18670607D01*
X59807352Y-18433898D01*
X59949698Y-18220862D01*
X60130862Y-18039698D01*
X60343898Y-17897352D01*
X60580607Y-17799304D01*
X60831893Y-17749320D01*
X61088107Y-17749320D01*
X61339393Y-17799304D01*
X61339393Y-17799304D01*
G37*
G36*
X58450680Y-20350680D02*
X55849320Y-20350680D01*
X55849320Y-17749320D01*
X58450680Y-17749320D01*
X58450680Y-20350680D01*
X58450680Y-20350680D01*
G37*
G36*
X19429393Y-17799304D02*
X19666102Y-17897352D01*
X19879138Y-18039698D01*
X20060302Y-18220862D01*
X20202648Y-18433898D01*
X20300696Y-18670607D01*
X20350680Y-18921893D01*
X20350680Y-19178107D01*
X20300696Y-19429393D01*
X20202648Y-19666102D01*
X20060302Y-19879138D01*
X19879138Y-20060302D01*
X19666102Y-20202648D01*
X19429393Y-20300696D01*
X19178107Y-20350680D01*
X18921893Y-20350680D01*
X18670607Y-20300696D01*
X18433898Y-20202648D01*
X18220862Y-20060302D01*
X18039698Y-19879138D01*
X17897352Y-19666102D01*
X17799304Y-19429393D01*
X17749320Y-19178107D01*
X17749320Y-18921893D01*
X17799304Y-18670607D01*
X17897352Y-18433898D01*
X18039698Y-18220862D01*
X18220862Y-18039698D01*
X18433898Y-17897352D01*
X18670607Y-17799304D01*
X18921893Y-17749320D01*
X19178107Y-17749320D01*
X19429393Y-17799304D01*
X19429393Y-17799304D01*
G37*
G36*
X24160680Y-20350680D02*
X21559320Y-20350680D01*
X21559320Y-17749320D01*
X24160680Y-17749320D01*
X24160680Y-20350680D01*
X24160680Y-20350680D01*
G37*
M02*
