M48
;DRILL file {KiCad 5.0.2-bee76a0~70~ubuntu18.04.1} date Wed 20 Mar 2019 04:51:11 PM EDT
;FORMAT={-:-/ absolute / inch / decimal}
FMAT,2
INCH,TZ
T1C0.0197
T2C0.0315
T3C0.0394
T4C0.0433
%
G90
G05
T1
X0.9Y-1.4
X1.05Y-1.4
T2
X0.65Y-1.95
X1.05Y-1.95
X1.2Y-1.95
X1.6Y-1.95
X1.75Y-2.2
X2.15Y-2.2
X2.15Y-1.
X2.15Y-1.1
X2.15Y-1.2
X2.15Y-1.3
X2.45Y-1.
X2.45Y-1.1
X2.45Y-1.2
X2.45Y-1.3
X0.65Y-2.2
X1.05Y-2.2
X1.2Y-2.2
X1.6Y-2.2
X1.75Y-1.95
X2.15Y-1.95
T3
X1.2Y-0.75
X1.325Y-0.75
X1.45Y-0.75
X2.25Y-0.75
X2.4Y-0.75
X0.75Y-0.75
X0.9Y-0.75
X1.8Y-0.75
X1.95Y-0.75
T4
X0.65Y-1.1
X0.65Y-1.7
X0.75Y-1.1
X0.75Y-1.2
X0.75Y-1.7
X0.85Y-1.1
X0.85Y-1.7
X0.95Y-1.1
X0.95Y-1.2
X0.95Y-1.7
X1.05Y-1.1
X1.05Y-1.2
X1.05Y-1.7
X1.15Y-1.1
X1.15Y-1.2
X1.15Y-1.7
X1.25Y-1.1
X1.25Y-1.3
X1.25Y-1.4
X1.25Y-1.7
X1.35Y-1.1
X1.35Y-1.3
X1.35Y-1.4
X1.35Y-1.7
X1.45Y-1.1
X1.45Y-1.3
X1.45Y-1.4
X1.45Y-1.7
X1.55Y-1.1
X1.55Y-1.3
X1.55Y-1.4
X1.55Y-1.7
X1.65Y-1.1
X1.65Y-1.3
X1.65Y-1.4
X1.65Y-1.7
X1.75Y-1.1
X1.75Y-1.3
X1.75Y-1.4
X1.75Y-1.7
X1.85Y-1.1
X1.85Y-1.3
X1.85Y-1.4
X1.85Y-1.7
X1.95Y-1.1
X1.95Y-1.2
X1.95Y-1.3
X1.95Y-1.4
X1.95Y-1.5
X1.95Y-1.6
X1.95Y-1.7
T0
M30
