G04 #@! TF.FileFunction,Soldermask,Top*
%FSLAX46Y46*%
G04 Gerber Fmt 4.6, Leading zero omitted, Abs format (unit mm)*
G04 Created by KiCad (PCBNEW 4.0.7) date 03/20/19 22:06:34*
%MOMM*%
%LPD*%
G01*
G04 APERTURE LIST*
%ADD10C,0.100000*%
%ADD11C,2.000000*%
%ADD12O,2.000000X2.000000*%
%ADD13R,2.000000X2.000000*%
%ADD14R,2.800000X2.800000*%
%ADD15O,2.800000X2.800000*%
%ADD16O,1.900000X1.300000*%
%ADD17R,1.900000X1.300000*%
%ADD18R,2.398980X2.398980*%
%ADD19C,2.398980*%
G04 APERTURE END LIST*
D10*
D11*
X92075000Y-110490000D03*
D12*
X82075000Y-110490000D03*
D11*
X121920000Y-111125000D03*
D12*
X131920000Y-111125000D03*
D11*
X132080000Y-118745000D03*
D12*
X122080000Y-118745000D03*
D13*
X74930000Y-105410000D03*
D11*
X74930000Y-107910000D03*
X155575000Y-113665000D03*
X150575000Y-113665000D03*
D14*
X138430000Y-112395000D03*
D15*
X138430000Y-109855000D03*
D14*
X138430000Y-118110000D03*
D15*
X138430000Y-120650000D03*
D16*
X101600000Y-109855000D03*
X101600000Y-108585000D03*
D17*
X101600000Y-111125000D03*
D16*
X114935000Y-109855000D03*
X114935000Y-111125000D03*
D17*
X114935000Y-108585000D03*
D16*
X146050000Y-113030000D03*
X146050000Y-111760000D03*
D17*
X146050000Y-114300000D03*
D11*
X95250000Y-97155000D03*
D12*
X95250000Y-107315000D03*
D11*
X95250000Y-114935000D03*
D12*
X95250000Y-125095000D03*
D11*
X108585000Y-97155000D03*
D12*
X108585000Y-107315000D03*
D11*
X102235000Y-114935000D03*
D12*
X102235000Y-125095000D03*
D11*
X121920000Y-97155000D03*
D12*
X121920000Y-107315000D03*
D11*
X114935000Y-114935000D03*
D12*
X114935000Y-125095000D03*
D11*
X146050000Y-103505000D03*
D12*
X135890000Y-103505000D03*
D11*
X146685000Y-125095000D03*
D12*
X136525000Y-125095000D03*
D11*
X152400000Y-95250000D03*
D12*
X152400000Y-105410000D03*
D11*
X151130000Y-122555000D03*
D12*
X151130000Y-132715000D03*
D11*
X157480000Y-122555000D03*
D12*
X157480000Y-132715000D03*
D11*
X163830000Y-122555000D03*
D12*
X163830000Y-132715000D03*
D11*
X83185000Y-114935000D03*
D12*
X83185000Y-125095000D03*
D18*
X75565000Y-124460000D03*
D19*
X75565000Y-121285000D03*
X75565000Y-118110000D03*
X75565000Y-114935000D03*
X84455000Y-97790000D03*
X76835000Y-130175000D03*
X160655000Y-116840000D03*
M02*
