G04 #@! TF.FileFunction,Copper,L1,Top,Signal*
%FSLAX46Y46*%
G04 Gerber Fmt 4.6, Leading zero omitted, Abs format (unit mm)*
G04 Created by KiCad (PCBNEW 4.0.7) date 03/20/19 22:06:33*
%MOMM*%
%LPD*%
G01*
G04 APERTURE LIST*
%ADD10C,0.100000*%
%ADD11C,1.600000*%
%ADD12O,1.600000X1.600000*%
%ADD13R,1.600000X1.600000*%
%ADD14R,2.400000X2.400000*%
%ADD15O,2.400000X2.400000*%
%ADD16O,1.500000X0.900000*%
%ADD17R,1.500000X0.900000*%
%ADD18R,1.998980X1.998980*%
%ADD19C,1.998980*%
%ADD20C,0.250000*%
G04 APERTURE END LIST*
D10*
D11*
X92075000Y-110490000D03*
D12*
X82075000Y-110490000D03*
D11*
X121920000Y-111125000D03*
D12*
X131920000Y-111125000D03*
D11*
X132080000Y-118745000D03*
D12*
X122080000Y-118745000D03*
D13*
X74930000Y-105410000D03*
D11*
X74930000Y-107910000D03*
X155575000Y-113665000D03*
X150575000Y-113665000D03*
D14*
X138430000Y-112395000D03*
D15*
X138430000Y-109855000D03*
D14*
X138430000Y-118110000D03*
D15*
X138430000Y-120650000D03*
D16*
X101600000Y-109855000D03*
X101600000Y-108585000D03*
D17*
X101600000Y-111125000D03*
D16*
X114935000Y-109855000D03*
X114935000Y-111125000D03*
D17*
X114935000Y-108585000D03*
D16*
X146050000Y-113030000D03*
X146050000Y-111760000D03*
D17*
X146050000Y-114300000D03*
D11*
X95250000Y-97155000D03*
D12*
X95250000Y-107315000D03*
D11*
X95250000Y-114935000D03*
D12*
X95250000Y-125095000D03*
D11*
X108585000Y-97155000D03*
D12*
X108585000Y-107315000D03*
D11*
X102235000Y-114935000D03*
D12*
X102235000Y-125095000D03*
D11*
X121920000Y-97155000D03*
D12*
X121920000Y-107315000D03*
D11*
X114935000Y-114935000D03*
D12*
X114935000Y-125095000D03*
D11*
X146050000Y-103505000D03*
D12*
X135890000Y-103505000D03*
D11*
X146685000Y-125095000D03*
D12*
X136525000Y-125095000D03*
D11*
X152400000Y-95250000D03*
D12*
X152400000Y-105410000D03*
D11*
X151130000Y-122555000D03*
D12*
X151130000Y-132715000D03*
D11*
X157480000Y-122555000D03*
D12*
X157480000Y-132715000D03*
D11*
X163830000Y-122555000D03*
D12*
X163830000Y-132715000D03*
D11*
X83185000Y-114935000D03*
D12*
X83185000Y-125095000D03*
D18*
X75565000Y-124460000D03*
D19*
X75565000Y-121285000D03*
X75565000Y-118110000D03*
X75565000Y-114935000D03*
X84455000Y-97790000D03*
X76835000Y-130175000D03*
X160655000Y-116840000D03*
D20*
X95250000Y-114935000D02*
X95250000Y-107315000D01*
X95250000Y-107315000D02*
X95885000Y-107315000D01*
X95885000Y-107315000D02*
X98425000Y-109855000D01*
X98425000Y-109855000D02*
X101600000Y-109855000D01*
X92075000Y-110490000D02*
X95250000Y-107315000D01*
X83185000Y-114935000D02*
X81915000Y-114935000D01*
X81915000Y-114935000D02*
X75565000Y-121285000D01*
X83185000Y-114935000D02*
X83185000Y-111600000D01*
X83185000Y-111600000D02*
X82075000Y-110490000D01*
X81915000Y-110650000D02*
X82075000Y-110490000D01*
X121920000Y-107315000D02*
X121920000Y-111125000D01*
X121920000Y-107315000D02*
X116205000Y-107315000D01*
X116205000Y-107315000D02*
X114935000Y-108585000D01*
X138430000Y-109855000D02*
X133190000Y-109855000D01*
X133190000Y-109855000D02*
X131920000Y-111125000D01*
X135890000Y-103505000D02*
X135890000Y-107315000D01*
X135890000Y-107315000D02*
X138430000Y-109855000D01*
X138430000Y-120650000D02*
X133985000Y-120650000D01*
X133985000Y-120650000D02*
X132080000Y-118745000D01*
X136525000Y-125095000D02*
X136525000Y-122555000D01*
X136525000Y-122555000D02*
X138430000Y-120650000D01*
X114935000Y-114935000D02*
X118270000Y-114935000D01*
X118270000Y-114935000D02*
X122080000Y-118745000D01*
X114935000Y-111125000D02*
X114935000Y-114935000D01*
X160655000Y-116840000D02*
X160655000Y-119380000D01*
X160655000Y-119380000D02*
X163830000Y-122555000D01*
X155575000Y-113665000D02*
X157480000Y-113665000D01*
X157480000Y-113665000D02*
X160655000Y-116840000D01*
X150575000Y-115650000D02*
X157480000Y-122555000D01*
X150575000Y-113665000D02*
X150575000Y-115650000D01*
X146050000Y-114300000D02*
X149940000Y-114300000D01*
X149940000Y-114300000D02*
X150575000Y-113665000D01*
X138430000Y-118110000D02*
X138430000Y-112395000D01*
X146050000Y-113030000D02*
X139065000Y-113030000D01*
X139065000Y-113030000D02*
X138430000Y-112395000D01*
X75565000Y-118110000D02*
X76200000Y-118110000D01*
X76200000Y-118110000D02*
X77470000Y-116840000D01*
X77470000Y-116840000D02*
X75565000Y-114935000D01*
X114935000Y-109855000D02*
X111125000Y-109855000D01*
X111125000Y-109855000D02*
X108585000Y-107315000D01*
X101600000Y-108585000D02*
X107315000Y-108585000D01*
X107315000Y-108585000D02*
X108585000Y-107315000D01*
X151130000Y-122555000D02*
X151130000Y-127635000D01*
X164465000Y-105410000D02*
X152400000Y-105410000D01*
X168275000Y-109220000D02*
X164465000Y-105410000D01*
X168275000Y-127635000D02*
X168275000Y-109220000D01*
X151130000Y-127635000D02*
X168275000Y-127635000D01*
X149225000Y-122555000D02*
X146685000Y-125095000D01*
X151130000Y-122555000D02*
X149225000Y-122555000D01*
X146050000Y-103505000D02*
X150495000Y-103505000D01*
X150495000Y-103505000D02*
X152400000Y-105410000D01*
X102235000Y-114935000D02*
X102235000Y-111760000D01*
X102235000Y-111760000D02*
X101600000Y-111125000D01*
X84455000Y-97790000D02*
X82550000Y-97790000D01*
X82550000Y-97790000D02*
X74930000Y-105410000D01*
X84455000Y-97790000D02*
X94615000Y-97790000D01*
X94615000Y-97790000D02*
X95250000Y-97155000D01*
X142240000Y-99695000D02*
X124460000Y-99695000D01*
X124460000Y-99695000D02*
X121920000Y-97155000D01*
X146050000Y-111760000D02*
X146050000Y-109855000D01*
X146685000Y-95250000D02*
X152400000Y-95250000D01*
X142240000Y-99695000D02*
X146685000Y-95250000D01*
X142240000Y-106045000D02*
X142240000Y-99695000D01*
X146050000Y-109855000D02*
X142240000Y-106045000D01*
X121920000Y-97155000D02*
X108585000Y-97155000D01*
X95250000Y-97155000D02*
X108585000Y-97155000D01*
X76835000Y-130175000D02*
X75565000Y-130175000D01*
X73660000Y-126365000D02*
X75565000Y-124460000D01*
X73660000Y-128270000D02*
X73660000Y-126365000D01*
X75565000Y-130175000D02*
X73660000Y-128270000D01*
X163830000Y-132715000D02*
X157480000Y-132715000D01*
X157480000Y-132715000D02*
X151130000Y-132715000D01*
X137160000Y-132715000D02*
X151130000Y-132715000D01*
X129540000Y-125095000D02*
X137160000Y-132715000D01*
X114935000Y-125095000D02*
X129540000Y-125095000D01*
X74930000Y-107910000D02*
X74930000Y-111125000D01*
X72390000Y-121285000D02*
X75565000Y-124460000D01*
X72390000Y-113665000D02*
X72390000Y-121285000D01*
X74930000Y-111125000D02*
X72390000Y-113665000D01*
X83185000Y-125095000D02*
X78105000Y-125095000D01*
X78105000Y-125095000D02*
X77470000Y-124460000D01*
X75565000Y-124460000D02*
X77470000Y-124460000D01*
X92075000Y-128270000D02*
X95250000Y-125095000D01*
X81280000Y-128270000D02*
X92075000Y-128270000D01*
X77470000Y-124460000D02*
X81280000Y-128270000D01*
X114935000Y-125095000D02*
X102235000Y-125095000D01*
X95250000Y-125095000D02*
X102235000Y-125095000D01*
M02*
