G04 #@! TF.FileFunction,Legend,Top*
%FSLAX46Y46*%
G04 Gerber Fmt 4.6, Leading zero omitted, Abs format (unit mm)*
G04 Created by KiCad (PCBNEW 4.0.7) date 03/20/19 22:06:33*
%MOMM*%
%LPD*%
G01*
G04 APERTURE LIST*
%ADD10C,0.100000*%
%ADD11C,0.120000*%
%ADD12C,0.150000*%
G04 APERTURE END LIST*
D10*
D11*
X89035000Y-111850000D02*
X89035000Y-109130000D01*
X89035000Y-109130000D02*
X85115000Y-109130000D01*
X85115000Y-109130000D02*
X85115000Y-111850000D01*
X85115000Y-111850000D02*
X89035000Y-111850000D01*
X91095000Y-110490000D02*
X89035000Y-110490000D01*
X83055000Y-110490000D02*
X85115000Y-110490000D01*
X124960000Y-109765000D02*
X124960000Y-112485000D01*
X124960000Y-112485000D02*
X128880000Y-112485000D01*
X128880000Y-112485000D02*
X128880000Y-109765000D01*
X128880000Y-109765000D02*
X124960000Y-109765000D01*
X122900000Y-111125000D02*
X124960000Y-111125000D01*
X130940000Y-111125000D02*
X128880000Y-111125000D01*
X129040000Y-120105000D02*
X129040000Y-117385000D01*
X129040000Y-117385000D02*
X125120000Y-117385000D01*
X125120000Y-117385000D02*
X125120000Y-120105000D01*
X125120000Y-120105000D02*
X129040000Y-120105000D01*
X131100000Y-118745000D02*
X129040000Y-118745000D01*
X123060000Y-118745000D02*
X125120000Y-118745000D01*
X78770000Y-106660000D02*
G75*
G03X78770000Y-106660000I-3840000J0D01*
G01*
X78730000Y-106660000D02*
X71130000Y-106660000D01*
X78730000Y-106700000D02*
X71130000Y-106700000D01*
X78730000Y-106740000D02*
X71130000Y-106740000D01*
X78729000Y-106780000D02*
X71131000Y-106780000D01*
X78727000Y-106820000D02*
X71133000Y-106820000D01*
X78725000Y-106860000D02*
X71135000Y-106860000D01*
X78723000Y-106900000D02*
X71137000Y-106900000D01*
X78720000Y-106940000D02*
X75910000Y-106940000D01*
X73950000Y-106940000D02*
X71140000Y-106940000D01*
X78717000Y-106980000D02*
X75910000Y-106980000D01*
X73950000Y-106980000D02*
X71143000Y-106980000D01*
X78714000Y-107020000D02*
X75910000Y-107020000D01*
X73950000Y-107020000D02*
X71146000Y-107020000D01*
X78710000Y-107060000D02*
X75910000Y-107060000D01*
X73950000Y-107060000D02*
X71150000Y-107060000D01*
X78705000Y-107100000D02*
X75910000Y-107100000D01*
X73950000Y-107100000D02*
X71155000Y-107100000D01*
X78700000Y-107140000D02*
X75910000Y-107140000D01*
X73950000Y-107140000D02*
X71160000Y-107140000D01*
X78695000Y-107180000D02*
X75910000Y-107180000D01*
X73950000Y-107180000D02*
X71165000Y-107180000D01*
X78689000Y-107220000D02*
X75910000Y-107220000D01*
X73950000Y-107220000D02*
X71171000Y-107220000D01*
X78683000Y-107260000D02*
X75910000Y-107260000D01*
X73950000Y-107260000D02*
X71177000Y-107260000D01*
X78677000Y-107300000D02*
X75910000Y-107300000D01*
X73950000Y-107300000D02*
X71183000Y-107300000D01*
X78670000Y-107340000D02*
X75910000Y-107340000D01*
X73950000Y-107340000D02*
X71190000Y-107340000D01*
X78662000Y-107381000D02*
X75910000Y-107381000D01*
X73950000Y-107381000D02*
X71198000Y-107381000D01*
X78655000Y-107421000D02*
X75910000Y-107421000D01*
X73950000Y-107421000D02*
X71205000Y-107421000D01*
X78646000Y-107461000D02*
X75910000Y-107461000D01*
X73950000Y-107461000D02*
X71214000Y-107461000D01*
X78637000Y-107501000D02*
X75910000Y-107501000D01*
X73950000Y-107501000D02*
X71223000Y-107501000D01*
X78628000Y-107541000D02*
X75910000Y-107541000D01*
X73950000Y-107541000D02*
X71232000Y-107541000D01*
X78619000Y-107581000D02*
X75910000Y-107581000D01*
X73950000Y-107581000D02*
X71241000Y-107581000D01*
X78609000Y-107621000D02*
X75910000Y-107621000D01*
X73950000Y-107621000D02*
X71251000Y-107621000D01*
X78598000Y-107661000D02*
X75910000Y-107661000D01*
X73950000Y-107661000D02*
X71262000Y-107661000D01*
X78587000Y-107701000D02*
X75910000Y-107701000D01*
X73950000Y-107701000D02*
X71273000Y-107701000D01*
X78575000Y-107741000D02*
X75910000Y-107741000D01*
X73950000Y-107741000D02*
X71285000Y-107741000D01*
X78564000Y-107781000D02*
X75910000Y-107781000D01*
X73950000Y-107781000D02*
X71296000Y-107781000D01*
X78551000Y-107821000D02*
X75910000Y-107821000D01*
X73950000Y-107821000D02*
X71309000Y-107821000D01*
X78538000Y-107861000D02*
X75910000Y-107861000D01*
X73950000Y-107861000D02*
X71322000Y-107861000D01*
X78525000Y-107901000D02*
X75910000Y-107901000D01*
X73950000Y-107901000D02*
X71335000Y-107901000D01*
X78511000Y-107941000D02*
X75910000Y-107941000D01*
X73950000Y-107941000D02*
X71349000Y-107941000D01*
X78496000Y-107981000D02*
X75910000Y-107981000D01*
X73950000Y-107981000D02*
X71364000Y-107981000D01*
X78482000Y-108021000D02*
X75910000Y-108021000D01*
X73950000Y-108021000D02*
X71378000Y-108021000D01*
X78466000Y-108061000D02*
X75910000Y-108061000D01*
X73950000Y-108061000D02*
X71394000Y-108061000D01*
X78450000Y-108101000D02*
X75910000Y-108101000D01*
X73950000Y-108101000D02*
X71410000Y-108101000D01*
X78434000Y-108141000D02*
X75910000Y-108141000D01*
X73950000Y-108141000D02*
X71426000Y-108141000D01*
X78417000Y-108181000D02*
X75910000Y-108181000D01*
X73950000Y-108181000D02*
X71443000Y-108181000D01*
X78399000Y-108221000D02*
X75910000Y-108221000D01*
X73950000Y-108221000D02*
X71461000Y-108221000D01*
X78381000Y-108261000D02*
X75910000Y-108261000D01*
X73950000Y-108261000D02*
X71479000Y-108261000D01*
X78363000Y-108301000D02*
X75910000Y-108301000D01*
X73950000Y-108301000D02*
X71497000Y-108301000D01*
X78343000Y-108341000D02*
X75910000Y-108341000D01*
X73950000Y-108341000D02*
X71517000Y-108341000D01*
X78324000Y-108381000D02*
X75910000Y-108381000D01*
X73950000Y-108381000D02*
X71536000Y-108381000D01*
X78303000Y-108421000D02*
X75910000Y-108421000D01*
X73950000Y-108421000D02*
X71557000Y-108421000D01*
X78282000Y-108461000D02*
X75910000Y-108461000D01*
X73950000Y-108461000D02*
X71578000Y-108461000D01*
X78261000Y-108501000D02*
X75910000Y-108501000D01*
X73950000Y-108501000D02*
X71599000Y-108501000D01*
X78239000Y-108541000D02*
X75910000Y-108541000D01*
X73950000Y-108541000D02*
X71621000Y-108541000D01*
X78216000Y-108581000D02*
X75910000Y-108581000D01*
X73950000Y-108581000D02*
X71644000Y-108581000D01*
X78193000Y-108621000D02*
X75910000Y-108621000D01*
X73950000Y-108621000D02*
X71667000Y-108621000D01*
X78169000Y-108661000D02*
X75910000Y-108661000D01*
X73950000Y-108661000D02*
X71691000Y-108661000D01*
X78144000Y-108701000D02*
X75910000Y-108701000D01*
X73950000Y-108701000D02*
X71716000Y-108701000D01*
X78118000Y-108741000D02*
X75910000Y-108741000D01*
X73950000Y-108741000D02*
X71742000Y-108741000D01*
X78092000Y-108781000D02*
X75910000Y-108781000D01*
X73950000Y-108781000D02*
X71768000Y-108781000D01*
X78065000Y-108821000D02*
X75910000Y-108821000D01*
X73950000Y-108821000D02*
X71795000Y-108821000D01*
X78038000Y-108861000D02*
X75910000Y-108861000D01*
X73950000Y-108861000D02*
X71822000Y-108861000D01*
X78009000Y-108901000D02*
X71851000Y-108901000D01*
X77980000Y-108941000D02*
X71880000Y-108941000D01*
X77950000Y-108981000D02*
X71910000Y-108981000D01*
X77920000Y-109021000D02*
X71940000Y-109021000D01*
X77888000Y-109061000D02*
X71972000Y-109061000D01*
X77856000Y-109101000D02*
X72004000Y-109101000D01*
X77822000Y-109141000D02*
X72038000Y-109141000D01*
X77788000Y-109181000D02*
X72072000Y-109181000D01*
X77753000Y-109221000D02*
X72107000Y-109221000D01*
X77716000Y-109261000D02*
X72144000Y-109261000D01*
X77679000Y-109301000D02*
X72181000Y-109301000D01*
X77641000Y-109341000D02*
X72219000Y-109341000D01*
X77601000Y-109381000D02*
X72259000Y-109381000D01*
X77560000Y-109421000D02*
X72300000Y-109421000D01*
X77518000Y-109461000D02*
X72342000Y-109461000D01*
X77475000Y-109501000D02*
X72385000Y-109501000D01*
X77430000Y-109541000D02*
X72430000Y-109541000D01*
X77384000Y-109581000D02*
X72476000Y-109581000D01*
X77337000Y-109621000D02*
X72523000Y-109621000D01*
X77287000Y-109661000D02*
X72573000Y-109661000D01*
X77237000Y-109701000D02*
X72623000Y-109701000D01*
X77184000Y-109741000D02*
X72676000Y-109741000D01*
X77129000Y-109781000D02*
X72731000Y-109781000D01*
X77072000Y-109821000D02*
X72788000Y-109821000D01*
X77013000Y-109861000D02*
X72847000Y-109861000D01*
X76952000Y-109901000D02*
X72908000Y-109901000D01*
X76887000Y-109941000D02*
X72973000Y-109941000D01*
X76820000Y-109981000D02*
X73040000Y-109981000D01*
X76750000Y-110021000D02*
X73110000Y-110021000D01*
X76675000Y-110061000D02*
X73185000Y-110061000D01*
X76597000Y-110101000D02*
X73263000Y-110101000D01*
X76514000Y-110141000D02*
X73346000Y-110141000D01*
X76425000Y-110181000D02*
X73435000Y-110181000D01*
X76330000Y-110221000D02*
X73530000Y-110221000D01*
X76227000Y-110261000D02*
X73633000Y-110261000D01*
X76114000Y-110301000D02*
X73746000Y-110301000D01*
X75987000Y-110341000D02*
X73873000Y-110341000D01*
X75843000Y-110381000D02*
X74017000Y-110381000D01*
X75670000Y-110421000D02*
X74190000Y-110421000D01*
X75443000Y-110461000D02*
X74417000Y-110461000D01*
X74930000Y-103210000D02*
X74930000Y-104410000D01*
X75580000Y-103810000D02*
X74280000Y-103810000D01*
X156885000Y-116975000D02*
X149265000Y-116975000D01*
X156885000Y-110355000D02*
X149265000Y-110355000D01*
X156885000Y-116975000D02*
X156885000Y-110355000D01*
X149265000Y-116975000D02*
X149265000Y-110355000D01*
X139810000Y-110998000D02*
X140699000Y-110998000D01*
X140254500Y-110998000D02*
X139810000Y-110405333D01*
X139810000Y-110405333D02*
X140699000Y-110405333D01*
X140699000Y-110405333D02*
X140254500Y-110998000D01*
X139663840Y-111220408D02*
G75*
G03X137230000Y-111250242I-1233840J1365408D01*
G01*
X137050000Y-119507000D02*
X136161000Y-119507000D01*
X136605500Y-119507000D02*
X137050000Y-120099667D01*
X137050000Y-120099667D02*
X136161000Y-120099667D01*
X136161000Y-120099667D02*
X136605500Y-119507000D01*
X137196160Y-119284592D02*
G75*
G03X139630000Y-119254758I1233840J-1365408D01*
G01*
X103450000Y-111655000D02*
X103450000Y-108055000D01*
X103438478Y-111693478D02*
G75*
G02X99000000Y-109855000I-1838478J1838478D01*
G01*
X103438478Y-108016522D02*
G75*
G03X99000000Y-109855000I-1838478J-1838478D01*
G01*
X113085000Y-108055000D02*
X113085000Y-111655000D01*
X113096522Y-108016522D02*
G75*
G02X117535000Y-109855000I1838478J-1838478D01*
G01*
X113096522Y-111693478D02*
G75*
G03X117535000Y-109855000I1838478J1838478D01*
G01*
X147900000Y-114830000D02*
X147900000Y-111230000D01*
X147888478Y-114868478D02*
G75*
G02X143450000Y-113030000I-1838478J1838478D01*
G01*
X147888478Y-111191522D02*
G75*
G03X143450000Y-113030000I-1838478J-1838478D01*
G01*
X96560000Y-99025000D02*
X93940000Y-99025000D01*
X93940000Y-99025000D02*
X93940000Y-105445000D01*
X93940000Y-105445000D02*
X96560000Y-105445000D01*
X96560000Y-105445000D02*
X96560000Y-99025000D01*
X95250000Y-98135000D02*
X95250000Y-99025000D01*
X95250000Y-106335000D02*
X95250000Y-105445000D01*
X96560000Y-116805000D02*
X93940000Y-116805000D01*
X93940000Y-116805000D02*
X93940000Y-123225000D01*
X93940000Y-123225000D02*
X96560000Y-123225000D01*
X96560000Y-123225000D02*
X96560000Y-116805000D01*
X95250000Y-115915000D02*
X95250000Y-116805000D01*
X95250000Y-124115000D02*
X95250000Y-123225000D01*
X109895000Y-99025000D02*
X107275000Y-99025000D01*
X107275000Y-99025000D02*
X107275000Y-105445000D01*
X107275000Y-105445000D02*
X109895000Y-105445000D01*
X109895000Y-105445000D02*
X109895000Y-99025000D01*
X108585000Y-98135000D02*
X108585000Y-99025000D01*
X108585000Y-106335000D02*
X108585000Y-105445000D01*
X103545000Y-116805000D02*
X100925000Y-116805000D01*
X100925000Y-116805000D02*
X100925000Y-123225000D01*
X100925000Y-123225000D02*
X103545000Y-123225000D01*
X103545000Y-123225000D02*
X103545000Y-116805000D01*
X102235000Y-115915000D02*
X102235000Y-116805000D01*
X102235000Y-124115000D02*
X102235000Y-123225000D01*
X123230000Y-99025000D02*
X120610000Y-99025000D01*
X120610000Y-99025000D02*
X120610000Y-105445000D01*
X120610000Y-105445000D02*
X123230000Y-105445000D01*
X123230000Y-105445000D02*
X123230000Y-99025000D01*
X121920000Y-98135000D02*
X121920000Y-99025000D01*
X121920000Y-106335000D02*
X121920000Y-105445000D01*
X116245000Y-116805000D02*
X113625000Y-116805000D01*
X113625000Y-116805000D02*
X113625000Y-123225000D01*
X113625000Y-123225000D02*
X116245000Y-123225000D01*
X116245000Y-123225000D02*
X116245000Y-116805000D01*
X114935000Y-115915000D02*
X114935000Y-116805000D01*
X114935000Y-124115000D02*
X114935000Y-123225000D01*
X144180000Y-104815000D02*
X144180000Y-102195000D01*
X144180000Y-102195000D02*
X137760000Y-102195000D01*
X137760000Y-102195000D02*
X137760000Y-104815000D01*
X137760000Y-104815000D02*
X144180000Y-104815000D01*
X145070000Y-103505000D02*
X144180000Y-103505000D01*
X136870000Y-103505000D02*
X137760000Y-103505000D01*
X144815000Y-126405000D02*
X144815000Y-123785000D01*
X144815000Y-123785000D02*
X138395000Y-123785000D01*
X138395000Y-123785000D02*
X138395000Y-126405000D01*
X138395000Y-126405000D02*
X144815000Y-126405000D01*
X145705000Y-125095000D02*
X144815000Y-125095000D01*
X137505000Y-125095000D02*
X138395000Y-125095000D01*
X153710000Y-97120000D02*
X151090000Y-97120000D01*
X151090000Y-97120000D02*
X151090000Y-103540000D01*
X151090000Y-103540000D02*
X153710000Y-103540000D01*
X153710000Y-103540000D02*
X153710000Y-97120000D01*
X152400000Y-96230000D02*
X152400000Y-97120000D01*
X152400000Y-104430000D02*
X152400000Y-103540000D01*
X152440000Y-124425000D02*
X149820000Y-124425000D01*
X149820000Y-124425000D02*
X149820000Y-130845000D01*
X149820000Y-130845000D02*
X152440000Y-130845000D01*
X152440000Y-130845000D02*
X152440000Y-124425000D01*
X151130000Y-123535000D02*
X151130000Y-124425000D01*
X151130000Y-131735000D02*
X151130000Y-130845000D01*
X158790000Y-124425000D02*
X156170000Y-124425000D01*
X156170000Y-124425000D02*
X156170000Y-130845000D01*
X156170000Y-130845000D02*
X158790000Y-130845000D01*
X158790000Y-130845000D02*
X158790000Y-124425000D01*
X157480000Y-123535000D02*
X157480000Y-124425000D01*
X157480000Y-131735000D02*
X157480000Y-130845000D01*
X165140000Y-124425000D02*
X162520000Y-124425000D01*
X162520000Y-124425000D02*
X162520000Y-130845000D01*
X162520000Y-130845000D02*
X165140000Y-130845000D01*
X165140000Y-130845000D02*
X165140000Y-124425000D01*
X163830000Y-123535000D02*
X163830000Y-124425000D01*
X163830000Y-131735000D02*
X163830000Y-130845000D01*
X84495000Y-116805000D02*
X81875000Y-116805000D01*
X81875000Y-116805000D02*
X81875000Y-123225000D01*
X81875000Y-123225000D02*
X84495000Y-123225000D01*
X84495000Y-123225000D02*
X84495000Y-116805000D01*
X83185000Y-115915000D02*
X83185000Y-116805000D01*
X83185000Y-124115000D02*
X83185000Y-123225000D01*
D12*
X86908334Y-113207143D02*
X86860715Y-113254762D01*
X86717858Y-113302381D01*
X86622620Y-113302381D01*
X86479762Y-113254762D01*
X86384524Y-113159524D01*
X86336905Y-113064286D01*
X86289286Y-112873810D01*
X86289286Y-112730952D01*
X86336905Y-112540476D01*
X86384524Y-112445238D01*
X86479762Y-112350000D01*
X86622620Y-112302381D01*
X86717858Y-112302381D01*
X86860715Y-112350000D01*
X86908334Y-112397619D01*
X87860715Y-113302381D02*
X87289286Y-113302381D01*
X87575000Y-113302381D02*
X87575000Y-112302381D01*
X87479762Y-112445238D01*
X87384524Y-112540476D01*
X87289286Y-112588095D01*
X126753334Y-109122143D02*
X126705715Y-109169762D01*
X126562858Y-109217381D01*
X126467620Y-109217381D01*
X126324762Y-109169762D01*
X126229524Y-109074524D01*
X126181905Y-108979286D01*
X126134286Y-108788810D01*
X126134286Y-108645952D01*
X126181905Y-108455476D01*
X126229524Y-108360238D01*
X126324762Y-108265000D01*
X126467620Y-108217381D01*
X126562858Y-108217381D01*
X126705715Y-108265000D01*
X126753334Y-108312619D01*
X127134286Y-108312619D02*
X127181905Y-108265000D01*
X127277143Y-108217381D01*
X127515239Y-108217381D01*
X127610477Y-108265000D01*
X127658096Y-108312619D01*
X127705715Y-108407857D01*
X127705715Y-108503095D01*
X127658096Y-108645952D01*
X127086667Y-109217381D01*
X127705715Y-109217381D01*
X126913334Y-121462143D02*
X126865715Y-121509762D01*
X126722858Y-121557381D01*
X126627620Y-121557381D01*
X126484762Y-121509762D01*
X126389524Y-121414524D01*
X126341905Y-121319286D01*
X126294286Y-121128810D01*
X126294286Y-120985952D01*
X126341905Y-120795476D01*
X126389524Y-120700238D01*
X126484762Y-120605000D01*
X126627620Y-120557381D01*
X126722858Y-120557381D01*
X126865715Y-120605000D01*
X126913334Y-120652619D01*
X127246667Y-120557381D02*
X127865715Y-120557381D01*
X127532381Y-120938333D01*
X127675239Y-120938333D01*
X127770477Y-120985952D01*
X127818096Y-121033571D01*
X127865715Y-121128810D01*
X127865715Y-121366905D01*
X127818096Y-121462143D01*
X127770477Y-121509762D01*
X127675239Y-121557381D01*
X127389524Y-121557381D01*
X127294286Y-121509762D01*
X127246667Y-121462143D01*
X80347143Y-106826666D02*
X80394762Y-106874285D01*
X80442381Y-107017142D01*
X80442381Y-107112380D01*
X80394762Y-107255238D01*
X80299524Y-107350476D01*
X80204286Y-107398095D01*
X80013810Y-107445714D01*
X79870952Y-107445714D01*
X79680476Y-107398095D01*
X79585238Y-107350476D01*
X79490000Y-107255238D01*
X79442381Y-107112380D01*
X79442381Y-107017142D01*
X79490000Y-106874285D01*
X79537619Y-106826666D01*
X79775714Y-105969523D02*
X80442381Y-105969523D01*
X79394762Y-106207619D02*
X80109048Y-106445714D01*
X80109048Y-105826666D01*
X152908334Y-118582143D02*
X152860715Y-118629762D01*
X152717858Y-118677381D01*
X152622620Y-118677381D01*
X152479762Y-118629762D01*
X152384524Y-118534524D01*
X152336905Y-118439286D01*
X152289286Y-118248810D01*
X152289286Y-118105952D01*
X152336905Y-117915476D01*
X152384524Y-117820238D01*
X152479762Y-117725000D01*
X152622620Y-117677381D01*
X152717858Y-117677381D01*
X152860715Y-117725000D01*
X152908334Y-117772619D01*
X153813096Y-117677381D02*
X153336905Y-117677381D01*
X153289286Y-118153571D01*
X153336905Y-118105952D01*
X153432143Y-118058333D01*
X153670239Y-118058333D01*
X153765477Y-118105952D01*
X153813096Y-118153571D01*
X153860715Y-118248810D01*
X153860715Y-118486905D01*
X153813096Y-118582143D01*
X153765477Y-118629762D01*
X153670239Y-118677381D01*
X153432143Y-118677381D01*
X153336905Y-118629762D01*
X153289286Y-118582143D01*
X136022381Y-111863095D02*
X135022381Y-111863095D01*
X135022381Y-111625000D01*
X135070000Y-111482142D01*
X135165238Y-111386904D01*
X135260476Y-111339285D01*
X135450952Y-111291666D01*
X135593810Y-111291666D01*
X135784286Y-111339285D01*
X135879524Y-111386904D01*
X135974762Y-111482142D01*
X136022381Y-111625000D01*
X136022381Y-111863095D01*
X136022381Y-110339285D02*
X136022381Y-110910714D01*
X136022381Y-110625000D02*
X135022381Y-110625000D01*
X135165238Y-110720238D01*
X135260476Y-110815476D01*
X135308095Y-110910714D01*
X141742381Y-120118095D02*
X140742381Y-120118095D01*
X140742381Y-119880000D01*
X140790000Y-119737142D01*
X140885238Y-119641904D01*
X140980476Y-119594285D01*
X141170952Y-119546666D01*
X141313810Y-119546666D01*
X141504286Y-119594285D01*
X141599524Y-119641904D01*
X141694762Y-119737142D01*
X141742381Y-119880000D01*
X141742381Y-120118095D01*
X140837619Y-119165714D02*
X140790000Y-119118095D01*
X140742381Y-119022857D01*
X140742381Y-118784761D01*
X140790000Y-118689523D01*
X140837619Y-118641904D01*
X140932857Y-118594285D01*
X141028095Y-118594285D01*
X141170952Y-118641904D01*
X141742381Y-119213333D01*
X141742381Y-118594285D01*
X98587619Y-109950238D02*
X98540000Y-110045476D01*
X98444762Y-110140714D01*
X98301905Y-110283571D01*
X98254286Y-110378810D01*
X98254286Y-110474048D01*
X98492381Y-110426429D02*
X98444762Y-110521667D01*
X98349524Y-110616905D01*
X98159048Y-110664524D01*
X97825714Y-110664524D01*
X97635238Y-110616905D01*
X97540000Y-110521667D01*
X97492381Y-110426429D01*
X97492381Y-110235952D01*
X97540000Y-110140714D01*
X97635238Y-110045476D01*
X97825714Y-109997857D01*
X98159048Y-109997857D01*
X98349524Y-110045476D01*
X98444762Y-110140714D01*
X98492381Y-110235952D01*
X98492381Y-110426429D01*
X98492381Y-109045476D02*
X98492381Y-109616905D01*
X98492381Y-109331191D02*
X97492381Y-109331191D01*
X97635238Y-109426429D01*
X97730476Y-109521667D01*
X97778095Y-109616905D01*
X119042619Y-109950238D02*
X118995000Y-110045476D01*
X118899762Y-110140714D01*
X118756905Y-110283571D01*
X118709286Y-110378810D01*
X118709286Y-110474048D01*
X118947381Y-110426429D02*
X118899762Y-110521667D01*
X118804524Y-110616905D01*
X118614048Y-110664524D01*
X118280714Y-110664524D01*
X118090238Y-110616905D01*
X117995000Y-110521667D01*
X117947381Y-110426429D01*
X117947381Y-110235952D01*
X117995000Y-110140714D01*
X118090238Y-110045476D01*
X118280714Y-109997857D01*
X118614048Y-109997857D01*
X118804524Y-110045476D01*
X118899762Y-110140714D01*
X118947381Y-110235952D01*
X118947381Y-110426429D01*
X118042619Y-109616905D02*
X117995000Y-109569286D01*
X117947381Y-109474048D01*
X117947381Y-109235952D01*
X117995000Y-109140714D01*
X118042619Y-109093095D01*
X118137857Y-109045476D01*
X118233095Y-109045476D01*
X118375952Y-109093095D01*
X118947381Y-109664524D01*
X118947381Y-109045476D01*
X143037619Y-113125238D02*
X142990000Y-113220476D01*
X142894762Y-113315714D01*
X142751905Y-113458571D01*
X142704286Y-113553810D01*
X142704286Y-113649048D01*
X142942381Y-113601429D02*
X142894762Y-113696667D01*
X142799524Y-113791905D01*
X142609048Y-113839524D01*
X142275714Y-113839524D01*
X142085238Y-113791905D01*
X141990000Y-113696667D01*
X141942381Y-113601429D01*
X141942381Y-113410952D01*
X141990000Y-113315714D01*
X142085238Y-113220476D01*
X142275714Y-113172857D01*
X142609048Y-113172857D01*
X142799524Y-113220476D01*
X142894762Y-113315714D01*
X142942381Y-113410952D01*
X142942381Y-113601429D01*
X141942381Y-112839524D02*
X141942381Y-112220476D01*
X142323333Y-112553810D01*
X142323333Y-112410952D01*
X142370952Y-112315714D01*
X142418571Y-112268095D01*
X142513810Y-112220476D01*
X142751905Y-112220476D01*
X142847143Y-112268095D01*
X142894762Y-112315714D01*
X142942381Y-112410952D01*
X142942381Y-112696667D01*
X142894762Y-112791905D01*
X142847143Y-112839524D01*
X98012381Y-102401666D02*
X97536190Y-102735000D01*
X98012381Y-102973095D02*
X97012381Y-102973095D01*
X97012381Y-102592142D01*
X97060000Y-102496904D01*
X97107619Y-102449285D01*
X97202857Y-102401666D01*
X97345714Y-102401666D01*
X97440952Y-102449285D01*
X97488571Y-102496904D01*
X97536190Y-102592142D01*
X97536190Y-102973095D01*
X98012381Y-101449285D02*
X98012381Y-102020714D01*
X98012381Y-101735000D02*
X97012381Y-101735000D01*
X97155238Y-101830238D01*
X97250476Y-101925476D01*
X97298095Y-102020714D01*
X98012381Y-120181666D02*
X97536190Y-120515000D01*
X98012381Y-120753095D02*
X97012381Y-120753095D01*
X97012381Y-120372142D01*
X97060000Y-120276904D01*
X97107619Y-120229285D01*
X97202857Y-120181666D01*
X97345714Y-120181666D01*
X97440952Y-120229285D01*
X97488571Y-120276904D01*
X97536190Y-120372142D01*
X97536190Y-120753095D01*
X97107619Y-119800714D02*
X97060000Y-119753095D01*
X97012381Y-119657857D01*
X97012381Y-119419761D01*
X97060000Y-119324523D01*
X97107619Y-119276904D01*
X97202857Y-119229285D01*
X97298095Y-119229285D01*
X97440952Y-119276904D01*
X98012381Y-119848333D01*
X98012381Y-119229285D01*
X111347381Y-102401666D02*
X110871190Y-102735000D01*
X111347381Y-102973095D02*
X110347381Y-102973095D01*
X110347381Y-102592142D01*
X110395000Y-102496904D01*
X110442619Y-102449285D01*
X110537857Y-102401666D01*
X110680714Y-102401666D01*
X110775952Y-102449285D01*
X110823571Y-102496904D01*
X110871190Y-102592142D01*
X110871190Y-102973095D01*
X110347381Y-102068333D02*
X110347381Y-101449285D01*
X110728333Y-101782619D01*
X110728333Y-101639761D01*
X110775952Y-101544523D01*
X110823571Y-101496904D01*
X110918810Y-101449285D01*
X111156905Y-101449285D01*
X111252143Y-101496904D01*
X111299762Y-101544523D01*
X111347381Y-101639761D01*
X111347381Y-101925476D01*
X111299762Y-102020714D01*
X111252143Y-102068333D01*
X104997381Y-120181666D02*
X104521190Y-120515000D01*
X104997381Y-120753095D02*
X103997381Y-120753095D01*
X103997381Y-120372142D01*
X104045000Y-120276904D01*
X104092619Y-120229285D01*
X104187857Y-120181666D01*
X104330714Y-120181666D01*
X104425952Y-120229285D01*
X104473571Y-120276904D01*
X104521190Y-120372142D01*
X104521190Y-120753095D01*
X104330714Y-119324523D02*
X104997381Y-119324523D01*
X103949762Y-119562619D02*
X104664048Y-119800714D01*
X104664048Y-119181666D01*
X124682381Y-102401666D02*
X124206190Y-102735000D01*
X124682381Y-102973095D02*
X123682381Y-102973095D01*
X123682381Y-102592142D01*
X123730000Y-102496904D01*
X123777619Y-102449285D01*
X123872857Y-102401666D01*
X124015714Y-102401666D01*
X124110952Y-102449285D01*
X124158571Y-102496904D01*
X124206190Y-102592142D01*
X124206190Y-102973095D01*
X123682381Y-101496904D02*
X123682381Y-101973095D01*
X124158571Y-102020714D01*
X124110952Y-101973095D01*
X124063333Y-101877857D01*
X124063333Y-101639761D01*
X124110952Y-101544523D01*
X124158571Y-101496904D01*
X124253810Y-101449285D01*
X124491905Y-101449285D01*
X124587143Y-101496904D01*
X124634762Y-101544523D01*
X124682381Y-101639761D01*
X124682381Y-101877857D01*
X124634762Y-101973095D01*
X124587143Y-102020714D01*
X117697381Y-120181666D02*
X117221190Y-120515000D01*
X117697381Y-120753095D02*
X116697381Y-120753095D01*
X116697381Y-120372142D01*
X116745000Y-120276904D01*
X116792619Y-120229285D01*
X116887857Y-120181666D01*
X117030714Y-120181666D01*
X117125952Y-120229285D01*
X117173571Y-120276904D01*
X117221190Y-120372142D01*
X117221190Y-120753095D01*
X116697381Y-119324523D02*
X116697381Y-119515000D01*
X116745000Y-119610238D01*
X116792619Y-119657857D01*
X116935476Y-119753095D01*
X117125952Y-119800714D01*
X117506905Y-119800714D01*
X117602143Y-119753095D01*
X117649762Y-119705476D01*
X117697381Y-119610238D01*
X117697381Y-119419761D01*
X117649762Y-119324523D01*
X117602143Y-119276904D01*
X117506905Y-119229285D01*
X117268810Y-119229285D01*
X117173571Y-119276904D01*
X117125952Y-119324523D01*
X117078333Y-119419761D01*
X117078333Y-119610238D01*
X117125952Y-119705476D01*
X117173571Y-119753095D01*
X117268810Y-119800714D01*
X140803334Y-106267381D02*
X140470000Y-105791190D01*
X140231905Y-106267381D02*
X140231905Y-105267381D01*
X140612858Y-105267381D01*
X140708096Y-105315000D01*
X140755715Y-105362619D01*
X140803334Y-105457857D01*
X140803334Y-105600714D01*
X140755715Y-105695952D01*
X140708096Y-105743571D01*
X140612858Y-105791190D01*
X140231905Y-105791190D01*
X141136667Y-105267381D02*
X141803334Y-105267381D01*
X141374762Y-106267381D01*
X141438334Y-127857381D02*
X141105000Y-127381190D01*
X140866905Y-127857381D02*
X140866905Y-126857381D01*
X141247858Y-126857381D01*
X141343096Y-126905000D01*
X141390715Y-126952619D01*
X141438334Y-127047857D01*
X141438334Y-127190714D01*
X141390715Y-127285952D01*
X141343096Y-127333571D01*
X141247858Y-127381190D01*
X140866905Y-127381190D01*
X142009762Y-127285952D02*
X141914524Y-127238333D01*
X141866905Y-127190714D01*
X141819286Y-127095476D01*
X141819286Y-127047857D01*
X141866905Y-126952619D01*
X141914524Y-126905000D01*
X142009762Y-126857381D01*
X142200239Y-126857381D01*
X142295477Y-126905000D01*
X142343096Y-126952619D01*
X142390715Y-127047857D01*
X142390715Y-127095476D01*
X142343096Y-127190714D01*
X142295477Y-127238333D01*
X142200239Y-127285952D01*
X142009762Y-127285952D01*
X141914524Y-127333571D01*
X141866905Y-127381190D01*
X141819286Y-127476429D01*
X141819286Y-127666905D01*
X141866905Y-127762143D01*
X141914524Y-127809762D01*
X142009762Y-127857381D01*
X142200239Y-127857381D01*
X142295477Y-127809762D01*
X142343096Y-127762143D01*
X142390715Y-127666905D01*
X142390715Y-127476429D01*
X142343096Y-127381190D01*
X142295477Y-127333571D01*
X142200239Y-127285952D01*
X155162381Y-100496666D02*
X154686190Y-100830000D01*
X155162381Y-101068095D02*
X154162381Y-101068095D01*
X154162381Y-100687142D01*
X154210000Y-100591904D01*
X154257619Y-100544285D01*
X154352857Y-100496666D01*
X154495714Y-100496666D01*
X154590952Y-100544285D01*
X154638571Y-100591904D01*
X154686190Y-100687142D01*
X154686190Y-101068095D01*
X155162381Y-100020476D02*
X155162381Y-99830000D01*
X155114762Y-99734761D01*
X155067143Y-99687142D01*
X154924286Y-99591904D01*
X154733810Y-99544285D01*
X154352857Y-99544285D01*
X154257619Y-99591904D01*
X154210000Y-99639523D01*
X154162381Y-99734761D01*
X154162381Y-99925238D01*
X154210000Y-100020476D01*
X154257619Y-100068095D01*
X154352857Y-100115714D01*
X154590952Y-100115714D01*
X154686190Y-100068095D01*
X154733810Y-100020476D01*
X154781429Y-99925238D01*
X154781429Y-99734761D01*
X154733810Y-99639523D01*
X154686190Y-99591904D01*
X154590952Y-99544285D01*
X153892381Y-128277857D02*
X153416190Y-128611191D01*
X153892381Y-128849286D02*
X152892381Y-128849286D01*
X152892381Y-128468333D01*
X152940000Y-128373095D01*
X152987619Y-128325476D01*
X153082857Y-128277857D01*
X153225714Y-128277857D01*
X153320952Y-128325476D01*
X153368571Y-128373095D01*
X153416190Y-128468333D01*
X153416190Y-128849286D01*
X153892381Y-127325476D02*
X153892381Y-127896905D01*
X153892381Y-127611191D02*
X152892381Y-127611191D01*
X153035238Y-127706429D01*
X153130476Y-127801667D01*
X153178095Y-127896905D01*
X152892381Y-126706429D02*
X152892381Y-126611190D01*
X152940000Y-126515952D01*
X152987619Y-126468333D01*
X153082857Y-126420714D01*
X153273333Y-126373095D01*
X153511429Y-126373095D01*
X153701905Y-126420714D01*
X153797143Y-126468333D01*
X153844762Y-126515952D01*
X153892381Y-126611190D01*
X153892381Y-126706429D01*
X153844762Y-126801667D01*
X153797143Y-126849286D01*
X153701905Y-126896905D01*
X153511429Y-126944524D01*
X153273333Y-126944524D01*
X153082857Y-126896905D01*
X152987619Y-126849286D01*
X152940000Y-126801667D01*
X152892381Y-126706429D01*
X160242381Y-128277857D02*
X159766190Y-128611191D01*
X160242381Y-128849286D02*
X159242381Y-128849286D01*
X159242381Y-128468333D01*
X159290000Y-128373095D01*
X159337619Y-128325476D01*
X159432857Y-128277857D01*
X159575714Y-128277857D01*
X159670952Y-128325476D01*
X159718571Y-128373095D01*
X159766190Y-128468333D01*
X159766190Y-128849286D01*
X160242381Y-127325476D02*
X160242381Y-127896905D01*
X160242381Y-127611191D02*
X159242381Y-127611191D01*
X159385238Y-127706429D01*
X159480476Y-127801667D01*
X159528095Y-127896905D01*
X160242381Y-126373095D02*
X160242381Y-126944524D01*
X160242381Y-126658810D02*
X159242381Y-126658810D01*
X159385238Y-126754048D01*
X159480476Y-126849286D01*
X159528095Y-126944524D01*
X166592381Y-128277857D02*
X166116190Y-128611191D01*
X166592381Y-128849286D02*
X165592381Y-128849286D01*
X165592381Y-128468333D01*
X165640000Y-128373095D01*
X165687619Y-128325476D01*
X165782857Y-128277857D01*
X165925714Y-128277857D01*
X166020952Y-128325476D01*
X166068571Y-128373095D01*
X166116190Y-128468333D01*
X166116190Y-128849286D01*
X166592381Y-127325476D02*
X166592381Y-127896905D01*
X166592381Y-127611191D02*
X165592381Y-127611191D01*
X165735238Y-127706429D01*
X165830476Y-127801667D01*
X165878095Y-127896905D01*
X165687619Y-126944524D02*
X165640000Y-126896905D01*
X165592381Y-126801667D01*
X165592381Y-126563571D01*
X165640000Y-126468333D01*
X165687619Y-126420714D01*
X165782857Y-126373095D01*
X165878095Y-126373095D01*
X166020952Y-126420714D01*
X166592381Y-126992143D01*
X166592381Y-126373095D01*
X85947381Y-120657857D02*
X85471190Y-120991191D01*
X85947381Y-121229286D02*
X84947381Y-121229286D01*
X84947381Y-120848333D01*
X84995000Y-120753095D01*
X85042619Y-120705476D01*
X85137857Y-120657857D01*
X85280714Y-120657857D01*
X85375952Y-120705476D01*
X85423571Y-120753095D01*
X85471190Y-120848333D01*
X85471190Y-121229286D01*
X85947381Y-119705476D02*
X85947381Y-120276905D01*
X85947381Y-119991191D02*
X84947381Y-119991191D01*
X85090238Y-120086429D01*
X85185476Y-120181667D01*
X85233095Y-120276905D01*
X84947381Y-119372143D02*
X84947381Y-118753095D01*
X85328333Y-119086429D01*
X85328333Y-118943571D01*
X85375952Y-118848333D01*
X85423571Y-118800714D01*
X85518810Y-118753095D01*
X85756905Y-118753095D01*
X85852143Y-118800714D01*
X85899762Y-118848333D01*
X85947381Y-118943571D01*
X85947381Y-119229286D01*
X85899762Y-119324524D01*
X85852143Y-119372143D01*
X71842381Y-120030833D02*
X72556667Y-120030833D01*
X72699524Y-120078453D01*
X72794762Y-120173691D01*
X72842381Y-120316548D01*
X72842381Y-120411786D01*
X72842381Y-119030833D02*
X72842381Y-119602262D01*
X72842381Y-119316548D02*
X71842381Y-119316548D01*
X71985238Y-119411786D01*
X72080476Y-119507024D01*
X72128095Y-119602262D01*
X82645476Y-94702381D02*
X82978809Y-95702381D01*
X83312143Y-94702381D01*
X84216905Y-95607143D02*
X84169286Y-95654762D01*
X84026429Y-95702381D01*
X83931191Y-95702381D01*
X83788333Y-95654762D01*
X83693095Y-95559524D01*
X83645476Y-95464286D01*
X83597857Y-95273810D01*
X83597857Y-95130952D01*
X83645476Y-94940476D01*
X83693095Y-94845238D01*
X83788333Y-94750000D01*
X83931191Y-94702381D01*
X84026429Y-94702381D01*
X84169286Y-94750000D01*
X84216905Y-94797619D01*
X85216905Y-95607143D02*
X85169286Y-95654762D01*
X85026429Y-95702381D01*
X84931191Y-95702381D01*
X84788333Y-95654762D01*
X84693095Y-95559524D01*
X84645476Y-95464286D01*
X84597857Y-95273810D01*
X84597857Y-95130952D01*
X84645476Y-94940476D01*
X84693095Y-94845238D01*
X84788333Y-94750000D01*
X84931191Y-94702381D01*
X85026429Y-94702381D01*
X85169286Y-94750000D01*
X85216905Y-94797619D01*
X86169286Y-95702381D02*
X85597857Y-95702381D01*
X85883571Y-95702381D02*
X85883571Y-94702381D01*
X85788333Y-94845238D01*
X85693095Y-94940476D01*
X85597857Y-94988095D01*
X75596905Y-127135000D02*
X75501667Y-127087381D01*
X75358810Y-127087381D01*
X75215952Y-127135000D01*
X75120714Y-127230238D01*
X75073095Y-127325476D01*
X75025476Y-127515952D01*
X75025476Y-127658810D01*
X75073095Y-127849286D01*
X75120714Y-127944524D01*
X75215952Y-128039762D01*
X75358810Y-128087381D01*
X75454048Y-128087381D01*
X75596905Y-128039762D01*
X75644524Y-127992143D01*
X75644524Y-127658810D01*
X75454048Y-127658810D01*
X76073095Y-128087381D02*
X76073095Y-127087381D01*
X76644524Y-128087381D01*
X76644524Y-127087381D01*
X77120714Y-128087381D02*
X77120714Y-127087381D01*
X77358809Y-127087381D01*
X77501667Y-127135000D01*
X77596905Y-127230238D01*
X77644524Y-127325476D01*
X77692143Y-127515952D01*
X77692143Y-127658810D01*
X77644524Y-127849286D01*
X77596905Y-127944524D01*
X77501667Y-128039762D01*
X77358809Y-128087381D01*
X77120714Y-128087381D01*
X78644524Y-128087381D02*
X78073095Y-128087381D01*
X78358809Y-128087381D02*
X78358809Y-127087381D01*
X78263571Y-127230238D01*
X78168333Y-127325476D01*
X78073095Y-127373095D01*
X158154999Y-113752381D02*
X158345476Y-113752381D01*
X158440714Y-113800000D01*
X158535952Y-113895238D01*
X158583571Y-114085714D01*
X158583571Y-114419048D01*
X158535952Y-114609524D01*
X158440714Y-114704762D01*
X158345476Y-114752381D01*
X158154999Y-114752381D01*
X158059761Y-114704762D01*
X157964523Y-114609524D01*
X157916904Y-114419048D01*
X157916904Y-114085714D01*
X157964523Y-113895238D01*
X158059761Y-113800000D01*
X158154999Y-113752381D01*
X159440714Y-114085714D02*
X159440714Y-114752381D01*
X159012142Y-114085714D02*
X159012142Y-114609524D01*
X159059761Y-114704762D01*
X159154999Y-114752381D01*
X159297857Y-114752381D01*
X159393095Y-114704762D01*
X159440714Y-114657143D01*
X159774047Y-114085714D02*
X160154999Y-114085714D01*
X159916904Y-113752381D02*
X159916904Y-114609524D01*
X159964523Y-114704762D01*
X160059761Y-114752381D01*
X160154999Y-114752381D01*
X160488333Y-114085714D02*
X160488333Y-115085714D01*
X160488333Y-114133333D02*
X160583571Y-114085714D01*
X160774048Y-114085714D01*
X160869286Y-114133333D01*
X160916905Y-114180952D01*
X160964524Y-114276190D01*
X160964524Y-114561905D01*
X160916905Y-114657143D01*
X160869286Y-114704762D01*
X160774048Y-114752381D01*
X160583571Y-114752381D01*
X160488333Y-114704762D01*
X161821667Y-114085714D02*
X161821667Y-114752381D01*
X161393095Y-114085714D02*
X161393095Y-114609524D01*
X161440714Y-114704762D01*
X161535952Y-114752381D01*
X161678810Y-114752381D01*
X161774048Y-114704762D01*
X161821667Y-114657143D01*
X162155000Y-114085714D02*
X162535952Y-114085714D01*
X162297857Y-113752381D02*
X162297857Y-114609524D01*
X162345476Y-114704762D01*
X162440714Y-114752381D01*
X162535952Y-114752381D01*
X163393096Y-114752381D02*
X162821667Y-114752381D01*
X163107381Y-114752381D02*
X163107381Y-113752381D01*
X163012143Y-113895238D01*
X162916905Y-113990476D01*
X162821667Y-114038095D01*
M02*
