G04 #@! TF.FileFunction,Soldermask,Bot*
%FSLAX46Y46*%
G04 Gerber Fmt 4.6, Leading zero omitted, Abs format (unit mm)*
G04 Created by KiCad (PCBNEW 4.0.7) date 03/22/19 11:19:21*
%MOMM*%
%LPD*%
G01*
G04 APERTURE LIST*
%ADD10C,0.100000*%
%ADD11R,2.000000X2.000000*%
%ADD12O,2.000000X2.000000*%
%ADD13C,2.000000*%
%ADD14R,2.398980X2.398980*%
%ADD15C,2.398980*%
%ADD16C,3.400000*%
%ADD17R,3.400000X3.400000*%
%ADD18C,2.400000*%
%ADD19O,1.900000X1.300000*%
%ADD20R,1.900000X1.300000*%
%ADD21R,2.400000X2.400000*%
G04 APERTURE END LIST*
D10*
D11*
X177800000Y-109220000D03*
D12*
X185420000Y-124460000D03*
X177800000Y-111760000D03*
X185420000Y-121920000D03*
X177800000Y-114300000D03*
X185420000Y-119380000D03*
X177800000Y-116840000D03*
X185420000Y-116840000D03*
X177800000Y-119380000D03*
X185420000Y-114300000D03*
X177800000Y-121920000D03*
X185420000Y-111760000D03*
X177800000Y-124460000D03*
X185420000Y-109220000D03*
D13*
X135890000Y-120650000D03*
D12*
X135890000Y-130810000D03*
D13*
X140970000Y-92710000D03*
D12*
X140970000Y-102870000D03*
D14*
X245110000Y-109220000D03*
D15*
X245110000Y-112395000D03*
X245110000Y-115570000D03*
D14*
X245110000Y-96520000D03*
D15*
X245110000Y-93345000D03*
X245110000Y-90170000D03*
D16*
X133350000Y-152400000D03*
X138430000Y-152400000D03*
D17*
X128270000Y-152400000D03*
D16*
X143510000Y-152400000D03*
X148590000Y-152400000D03*
X153670000Y-152400000D03*
D15*
X100330000Y-143510000D03*
X100330000Y-120650000D03*
X245110000Y-102870000D03*
D13*
X134620000Y-102870000D03*
D12*
X134620000Y-92710000D03*
D13*
X166370000Y-102870000D03*
D12*
X166370000Y-113030000D03*
D13*
X166370000Y-121920000D03*
D12*
X166370000Y-132080000D03*
D13*
X204470000Y-146050000D03*
D12*
X204470000Y-135890000D03*
D13*
X222250000Y-135890000D03*
D12*
X222250000Y-146050000D03*
D13*
X237490000Y-83820000D03*
D12*
X237490000Y-93980000D03*
D13*
X195580000Y-114300000D03*
D12*
X195580000Y-124460000D03*
D13*
X226060000Y-99060000D03*
D12*
X226060000Y-109220000D03*
D13*
X203200000Y-93980000D03*
D12*
X203200000Y-83820000D03*
D13*
X213360000Y-135890000D03*
D12*
X213360000Y-146050000D03*
D15*
X100330000Y-104140000D03*
D18*
X125730000Y-120650000D03*
X125730000Y-130650000D03*
X199390000Y-132080000D03*
X189390000Y-132080000D03*
X233680000Y-127000000D03*
X233680000Y-117000000D03*
X233680000Y-135890000D03*
X233680000Y-145890000D03*
X223520000Y-93980000D03*
X223520000Y-83980000D03*
D19*
X111760000Y-93980000D03*
X111760000Y-92710000D03*
D20*
X111760000Y-95250000D03*
D21*
X111760000Y-119380000D03*
D18*
X111760000Y-126880000D03*
D11*
X157480000Y-86360000D03*
D13*
X157480000Y-91360000D03*
D21*
X176530000Y-83820000D03*
D18*
X176530000Y-91320000D03*
D11*
X213360000Y-102870000D03*
D13*
X213360000Y-97870000D03*
M02*
