M48
;DRILL file {KiCad 5.0.2-bee76a0~70~ubuntu18.04.1} date Wed 27 Mar 2019 10:37:52 AM EDT
;FORMAT={-:-/ absolute / metric / decimal}
FMAT,2
METRIC,TZ
T1C0.500
T2C0.800
T3C1.001
T4C1.100
%
G90
G05
T1
X22.86Y-35.56
X26.67Y-35.56
T2
X44.45Y-55.88
X54.61Y-55.88
X30.48Y-49.53
X40.64Y-49.53
X16.51Y-55.88
X26.67Y-55.88
X54.61Y-25.4
X54.61Y-27.94
X54.61Y-30.48
X54.61Y-33.02
X62.23Y-25.4
X62.23Y-27.94
X62.23Y-30.48
X62.23Y-33.02
X30.48Y-55.88
X40.64Y-55.88
X44.45Y-49.53
X54.61Y-49.53
X16.51Y-49.53
X26.67Y-49.53
T3
X57.15Y-19.05
X60.96Y-19.05
X45.72Y-19.05
X49.53Y-19.05
X30.48Y-19.05
X33.655Y-19.05
X36.83Y-19.05
X19.05Y-19.05
X22.86Y-19.05
T4
X16.51Y-27.94
X16.51Y-43.18
X19.05Y-27.94
X19.05Y-30.48
X19.05Y-43.18
X21.59Y-27.94
X21.59Y-43.18
X24.13Y-27.94
X24.13Y-30.48
X24.13Y-43.18
X26.67Y-27.94
X26.67Y-30.48
X26.67Y-43.18
X29.21Y-27.94
X29.21Y-30.48
X29.21Y-43.18
X31.75Y-27.94
X31.75Y-33.02
X31.75Y-35.56
X31.75Y-43.18
X34.29Y-27.94
X34.29Y-33.02
X34.29Y-35.56
X34.29Y-43.18
X36.83Y-27.94
X36.83Y-33.02
X36.83Y-35.56
X36.83Y-43.18
X39.37Y-27.94
X39.37Y-33.02
X39.37Y-35.56
X39.37Y-43.18
X41.91Y-27.94
X41.91Y-33.02
X41.91Y-35.56
X41.91Y-43.18
X44.45Y-27.94
X44.45Y-33.02
X44.45Y-35.56
X44.45Y-43.18
X46.99Y-27.94
X46.99Y-33.02
X46.99Y-35.56
X46.99Y-43.18
X49.53Y-27.94
X49.53Y-30.48
X49.53Y-33.02
X49.53Y-35.56
X49.53Y-38.1
X49.53Y-40.64
X49.53Y-43.18
T0
M30
