G04 #@! TF.GenerationSoftware,KiCad,Pcbnew,5.0.2-bee76a0~70~ubuntu18.04.1*
G04 #@! TF.CreationDate,2019-03-20T17:07:28-04:00*
G04 #@! TF.ProjectId,Fuzz,46757a7a-2e6b-4696-9361-645f70636258,rev?*
G04 #@! TF.SameCoordinates,Original*
G04 #@! TF.FileFunction,Soldermask,Bot*
G04 #@! TF.FilePolarity,Negative*
%FSLAX46Y46*%
G04 Gerber Fmt 4.6, Leading zero omitted, Abs format (unit mm)*
G04 Created by KiCad (PCBNEW 5.0.2-bee76a0~70~ubuntu18.04.1) date Wed 20 Mar 2019 05:07:28 PM EDT*
%MOMM*%
%LPD*%
G01*
G04 APERTURE LIST*
%ADD10C,0.100000*%
G04 APERTURE END LIST*
D10*
G36*
X50061060Y-46251060D02*
X46458940Y-46251060D01*
X46458940Y-42648940D01*
X50061060Y-42648940D01*
X50061060Y-46251060D01*
X50061060Y-46251060D01*
G37*
G36*
X52931905Y-42658789D02*
X53230350Y-42718153D01*
X53558122Y-42853921D01*
X53853109Y-43051025D01*
X54103975Y-43301891D01*
X54301079Y-43596878D01*
X54436847Y-43924650D01*
X54506060Y-44272611D01*
X54506060Y-44627389D01*
X54436847Y-44975350D01*
X54301079Y-45303122D01*
X54103975Y-45598109D01*
X53853109Y-45848975D01*
X53558122Y-46046079D01*
X53230350Y-46181847D01*
X52931905Y-46241211D01*
X52882390Y-46251060D01*
X52527610Y-46251060D01*
X52478095Y-46241211D01*
X52179650Y-46181847D01*
X51851878Y-46046079D01*
X51556891Y-45848975D01*
X51306025Y-45598109D01*
X51108921Y-45303122D01*
X50973153Y-44975350D01*
X50903940Y-44627389D01*
X50903940Y-44272611D01*
X50973153Y-43924650D01*
X51108921Y-43596878D01*
X51306025Y-43301891D01*
X51556891Y-43051025D01*
X51851878Y-42853921D01*
X52179650Y-42718153D01*
X52478095Y-42658789D01*
X52527610Y-42648940D01*
X52882390Y-42648940D01*
X52931905Y-42658789D01*
X52931905Y-42658789D01*
G37*
G36*
X57376905Y-42658789D02*
X57675350Y-42718153D01*
X58003122Y-42853921D01*
X58298109Y-43051025D01*
X58548975Y-43301891D01*
X58746079Y-43596878D01*
X58881847Y-43924650D01*
X58951060Y-44272611D01*
X58951060Y-44627389D01*
X58881847Y-44975350D01*
X58746079Y-45303122D01*
X58548975Y-45598109D01*
X58298109Y-45848975D01*
X58003122Y-46046079D01*
X57675350Y-46181847D01*
X57376905Y-46241211D01*
X57327390Y-46251060D01*
X56972610Y-46251060D01*
X56923095Y-46241211D01*
X56624650Y-46181847D01*
X56296878Y-46046079D01*
X56001891Y-45848975D01*
X55751025Y-45598109D01*
X55553921Y-45303122D01*
X55418153Y-44975350D01*
X55348940Y-44627389D01*
X55348940Y-44272611D01*
X55418153Y-43924650D01*
X55553921Y-43596878D01*
X55751025Y-43301891D01*
X56001891Y-43051025D01*
X56296878Y-42853921D01*
X56624650Y-42718153D01*
X56923095Y-42658789D01*
X56972610Y-42648940D01*
X57327390Y-42648940D01*
X57376905Y-42658789D01*
X57376905Y-42658789D01*
G37*
G36*
X66346565Y-34469389D02*
X66537834Y-34548615D01*
X66709976Y-34663637D01*
X66856363Y-34810024D01*
X66971385Y-34982166D01*
X67050611Y-35173435D01*
X67091000Y-35376484D01*
X67091000Y-35583516D01*
X67050611Y-35786565D01*
X66971385Y-35977834D01*
X66856363Y-36149976D01*
X66709976Y-36296363D01*
X66537834Y-36411385D01*
X66346565Y-36490611D01*
X66143516Y-36531000D01*
X65936484Y-36531000D01*
X65733435Y-36490611D01*
X65542166Y-36411385D01*
X65370024Y-36296363D01*
X65223637Y-36149976D01*
X65108615Y-35977834D01*
X65029389Y-35786565D01*
X64989000Y-35583516D01*
X64989000Y-35376484D01*
X65029389Y-35173435D01*
X65108615Y-34982166D01*
X65223637Y-34810024D01*
X65370024Y-34663637D01*
X65542166Y-34548615D01*
X65733435Y-34469389D01*
X65936484Y-34429000D01*
X66143516Y-34429000D01*
X66346565Y-34469389D01*
X66346565Y-34469389D01*
G37*
G36*
X31916821Y-34721313D02*
X31916824Y-34721314D01*
X31916825Y-34721314D01*
X32077239Y-34769975D01*
X32077241Y-34769976D01*
X32077244Y-34769977D01*
X32225078Y-34848995D01*
X32354659Y-34955341D01*
X32461005Y-35084922D01*
X32540023Y-35232756D01*
X32588687Y-35393179D01*
X32605117Y-35560000D01*
X32588687Y-35726821D01*
X32540023Y-35887244D01*
X32461005Y-36035078D01*
X32354659Y-36164659D01*
X32225078Y-36271005D01*
X32077244Y-36350023D01*
X32077241Y-36350024D01*
X32077239Y-36350025D01*
X31916825Y-36398686D01*
X31916824Y-36398686D01*
X31916821Y-36398687D01*
X31791804Y-36411000D01*
X31708196Y-36411000D01*
X31583179Y-36398687D01*
X31583176Y-36398686D01*
X31583175Y-36398686D01*
X31422761Y-36350025D01*
X31422759Y-36350024D01*
X31422756Y-36350023D01*
X31274922Y-36271005D01*
X31145341Y-36164659D01*
X31038995Y-36035078D01*
X30959977Y-35887244D01*
X30911313Y-35726821D01*
X30894883Y-35560000D01*
X30911313Y-35393179D01*
X30959977Y-35232756D01*
X31038995Y-35084922D01*
X31145341Y-34955341D01*
X31274922Y-34848995D01*
X31422756Y-34769977D01*
X31422759Y-34769976D01*
X31422761Y-34769975D01*
X31583175Y-34721314D01*
X31583176Y-34721314D01*
X31583179Y-34721313D01*
X31708196Y-34709000D01*
X31791804Y-34709000D01*
X31916821Y-34721313D01*
X31916821Y-34721313D01*
G37*
G36*
X24296821Y-34721313D02*
X24296824Y-34721314D01*
X24296825Y-34721314D01*
X24457239Y-34769975D01*
X24457241Y-34769976D01*
X24457244Y-34769977D01*
X24605078Y-34848995D01*
X24734659Y-34955341D01*
X24841005Y-35084922D01*
X24920023Y-35232756D01*
X24968687Y-35393179D01*
X24985117Y-35560000D01*
X24968687Y-35726821D01*
X24920023Y-35887244D01*
X24841005Y-36035078D01*
X24734659Y-36164659D01*
X24605078Y-36271005D01*
X24457244Y-36350023D01*
X24457241Y-36350024D01*
X24457239Y-36350025D01*
X24296825Y-36398686D01*
X24296824Y-36398686D01*
X24296821Y-36398687D01*
X24171804Y-36411000D01*
X24088196Y-36411000D01*
X23963179Y-36398687D01*
X23963176Y-36398686D01*
X23963175Y-36398686D01*
X23802761Y-36350025D01*
X23802759Y-36350024D01*
X23802756Y-36350023D01*
X23654922Y-36271005D01*
X23525341Y-36164659D01*
X23418995Y-36035078D01*
X23339977Y-35887244D01*
X23291313Y-35726821D01*
X23274883Y-35560000D01*
X23291313Y-35393179D01*
X23339977Y-35232756D01*
X23418995Y-35084922D01*
X23525341Y-34955341D01*
X23654922Y-34848995D01*
X23802756Y-34769977D01*
X23802759Y-34769976D01*
X23802761Y-34769975D01*
X23963175Y-34721314D01*
X23963176Y-34721314D01*
X23963179Y-34721313D01*
X24088196Y-34709000D01*
X24171804Y-34709000D01*
X24296821Y-34721313D01*
X24296821Y-34721313D01*
G37*
G36*
X58668228Y-33471703D02*
X58823100Y-33535853D01*
X58962481Y-33628985D01*
X59081015Y-33747519D01*
X59174147Y-33886900D01*
X59238297Y-34041772D01*
X59271000Y-34206184D01*
X59271000Y-34373816D01*
X59238297Y-34538228D01*
X59174147Y-34693100D01*
X59081015Y-34832481D01*
X58962481Y-34951015D01*
X58823100Y-35044147D01*
X58668228Y-35108297D01*
X58503816Y-35141000D01*
X58336184Y-35141000D01*
X58171772Y-35108297D01*
X58016900Y-35044147D01*
X57877519Y-34951015D01*
X57758985Y-34832481D01*
X57665853Y-34693100D01*
X57601703Y-34538228D01*
X57569000Y-34373816D01*
X57569000Y-34206184D01*
X57601703Y-34041772D01*
X57665853Y-33886900D01*
X57758985Y-33747519D01*
X57877519Y-33628985D01*
X58016900Y-33535853D01*
X58171772Y-33471703D01*
X58336184Y-33439000D01*
X58503816Y-33439000D01*
X58668228Y-33471703D01*
X58668228Y-33471703D01*
G37*
G36*
X48426821Y-33451313D02*
X48426824Y-33451314D01*
X48426825Y-33451314D01*
X48587239Y-33499975D01*
X48587241Y-33499976D01*
X48587244Y-33499977D01*
X48735078Y-33578995D01*
X48864659Y-33685341D01*
X48971005Y-33814922D01*
X49050023Y-33962756D01*
X49050024Y-33962759D01*
X49050025Y-33962761D01*
X49082859Y-34071000D01*
X49098687Y-34123179D01*
X49115117Y-34290000D01*
X49098687Y-34456821D01*
X49098686Y-34456824D01*
X49098686Y-34456825D01*
X49070842Y-34548616D01*
X49050023Y-34617244D01*
X48971005Y-34765078D01*
X48864659Y-34894659D01*
X48735078Y-35001005D01*
X48587244Y-35080023D01*
X48587241Y-35080024D01*
X48587239Y-35080025D01*
X48426825Y-35128686D01*
X48426824Y-35128686D01*
X48426821Y-35128687D01*
X48301804Y-35141000D01*
X48218196Y-35141000D01*
X48093179Y-35128687D01*
X48093176Y-35128686D01*
X48093175Y-35128686D01*
X47932761Y-35080025D01*
X47932759Y-35080024D01*
X47932756Y-35080023D01*
X47784922Y-35001005D01*
X47655341Y-34894659D01*
X47548995Y-34765078D01*
X47469977Y-34617244D01*
X47449159Y-34548616D01*
X47421314Y-34456825D01*
X47421314Y-34456824D01*
X47421313Y-34456821D01*
X47404883Y-34290000D01*
X47421313Y-34123179D01*
X47437141Y-34071000D01*
X47469975Y-33962761D01*
X47469976Y-33962759D01*
X47469977Y-33962756D01*
X47548995Y-33814922D01*
X47655341Y-33685341D01*
X47784922Y-33578995D01*
X47932756Y-33499977D01*
X47932759Y-33499976D01*
X47932761Y-33499975D01*
X48093175Y-33451314D01*
X48093176Y-33451314D01*
X48093179Y-33451313D01*
X48218196Y-33439000D01*
X48301804Y-33439000D01*
X48426821Y-33451313D01*
X48426821Y-33451313D01*
G37*
G36*
X44231000Y-34071000D02*
X42129000Y-34071000D01*
X42129000Y-31969000D01*
X44231000Y-31969000D01*
X44231000Y-34071000D01*
X44231000Y-34071000D01*
G37*
G36*
X38486565Y-32009389D02*
X38677834Y-32088615D01*
X38849976Y-32203637D01*
X38996363Y-32350024D01*
X39111385Y-32522166D01*
X39190611Y-32713435D01*
X39231000Y-32916484D01*
X39231000Y-33123516D01*
X39190611Y-33326565D01*
X39111385Y-33517834D01*
X38996363Y-33689976D01*
X38849976Y-33836363D01*
X38677834Y-33951385D01*
X38486565Y-34030611D01*
X38283516Y-34071000D01*
X38076484Y-34071000D01*
X37873435Y-34030611D01*
X37682166Y-33951385D01*
X37510024Y-33836363D01*
X37363637Y-33689976D01*
X37248615Y-33517834D01*
X37169389Y-33326565D01*
X37129000Y-33123516D01*
X37129000Y-32916484D01*
X37169389Y-32713435D01*
X37248615Y-32522166D01*
X37363637Y-32350024D01*
X37510024Y-32203637D01*
X37682166Y-32088615D01*
X37873435Y-32009389D01*
X38076484Y-31969000D01*
X38283516Y-31969000D01*
X38486565Y-32009389D01*
X38486565Y-32009389D01*
G37*
G36*
X31916821Y-32181313D02*
X31916824Y-32181314D01*
X31916825Y-32181314D01*
X32077239Y-32229975D01*
X32077241Y-32229976D01*
X32077244Y-32229977D01*
X32225078Y-32308995D01*
X32354659Y-32415341D01*
X32461005Y-32544922D01*
X32540023Y-32692756D01*
X32588687Y-32853179D01*
X32605117Y-33020000D01*
X32588687Y-33186821D01*
X32540023Y-33347244D01*
X32461005Y-33495078D01*
X32354659Y-33624659D01*
X32225078Y-33731005D01*
X32077244Y-33810023D01*
X32077241Y-33810024D01*
X32077239Y-33810025D01*
X31916825Y-33858686D01*
X31916824Y-33858686D01*
X31916821Y-33858687D01*
X31791804Y-33871000D01*
X31708196Y-33871000D01*
X31583179Y-33858687D01*
X31583176Y-33858686D01*
X31583175Y-33858686D01*
X31422761Y-33810025D01*
X31422759Y-33810024D01*
X31422756Y-33810023D01*
X31274922Y-33731005D01*
X31145341Y-33624659D01*
X31038995Y-33495078D01*
X30959977Y-33347244D01*
X30911313Y-33186821D01*
X30894883Y-33020000D01*
X30911313Y-32853179D01*
X30959977Y-32692756D01*
X31038995Y-32544922D01*
X31145341Y-32415341D01*
X31274922Y-32308995D01*
X31422756Y-32229977D01*
X31422759Y-32229976D01*
X31422761Y-32229975D01*
X31583175Y-32181314D01*
X31583176Y-32181314D01*
X31583179Y-32181313D01*
X31708196Y-32169000D01*
X31791804Y-32169000D01*
X31916821Y-32181313D01*
X31916821Y-32181313D01*
G37*
G36*
X24296821Y-32181313D02*
X24296824Y-32181314D01*
X24296825Y-32181314D01*
X24457239Y-32229975D01*
X24457241Y-32229976D01*
X24457244Y-32229977D01*
X24605078Y-32308995D01*
X24734659Y-32415341D01*
X24841005Y-32544922D01*
X24920023Y-32692756D01*
X24968687Y-32853179D01*
X24985117Y-33020000D01*
X24968687Y-33186821D01*
X24920023Y-33347244D01*
X24841005Y-33495078D01*
X24734659Y-33624659D01*
X24605078Y-33731005D01*
X24457244Y-33810023D01*
X24457241Y-33810024D01*
X24457239Y-33810025D01*
X24296825Y-33858686D01*
X24296824Y-33858686D01*
X24296821Y-33858687D01*
X24171804Y-33871000D01*
X24088196Y-33871000D01*
X23963179Y-33858687D01*
X23963176Y-33858686D01*
X23963175Y-33858686D01*
X23802761Y-33810025D01*
X23802759Y-33810024D01*
X23802756Y-33810023D01*
X23654922Y-33731005D01*
X23525341Y-33624659D01*
X23418995Y-33495078D01*
X23339977Y-33347244D01*
X23291313Y-33186821D01*
X23274883Y-33020000D01*
X23291313Y-32853179D01*
X23339977Y-32692756D01*
X23418995Y-32544922D01*
X23525341Y-32415341D01*
X23654922Y-32308995D01*
X23802756Y-32229977D01*
X23802759Y-32229976D01*
X23802761Y-32229975D01*
X23963175Y-32181314D01*
X23963176Y-32181314D01*
X23963179Y-32181313D01*
X24088196Y-32169000D01*
X24171804Y-32169000D01*
X24296821Y-32181313D01*
X24296821Y-32181313D01*
G37*
G36*
X67091000Y-31531000D02*
X64989000Y-31531000D01*
X64989000Y-29429000D01*
X67091000Y-29429000D01*
X67091000Y-31531000D01*
X67091000Y-31531000D01*
G37*
G36*
X31916821Y-29641313D02*
X31916824Y-29641314D01*
X31916825Y-29641314D01*
X32077239Y-29689975D01*
X32077241Y-29689976D01*
X32077244Y-29689977D01*
X32225078Y-29768995D01*
X32354659Y-29875341D01*
X32461005Y-30004922D01*
X32540023Y-30152756D01*
X32588687Y-30313179D01*
X32605117Y-30480000D01*
X32588687Y-30646821D01*
X32540023Y-30807244D01*
X32461005Y-30955078D01*
X32354659Y-31084659D01*
X32225078Y-31191005D01*
X32077244Y-31270023D01*
X32077241Y-31270024D01*
X32077239Y-31270025D01*
X31916825Y-31318686D01*
X31916824Y-31318686D01*
X31916821Y-31318687D01*
X31791804Y-31331000D01*
X31708196Y-31331000D01*
X31583179Y-31318687D01*
X31583176Y-31318686D01*
X31583175Y-31318686D01*
X31422761Y-31270025D01*
X31422759Y-31270024D01*
X31422756Y-31270023D01*
X31274922Y-31191005D01*
X31145341Y-31084659D01*
X31038995Y-30955078D01*
X30959977Y-30807244D01*
X30911313Y-30646821D01*
X30894883Y-30480000D01*
X30911313Y-30313179D01*
X30959977Y-30152756D01*
X31038995Y-30004922D01*
X31145341Y-29875341D01*
X31274922Y-29768995D01*
X31422756Y-29689977D01*
X31422759Y-29689976D01*
X31422761Y-29689975D01*
X31583175Y-29641314D01*
X31583176Y-29641314D01*
X31583179Y-29641313D01*
X31708196Y-29629000D01*
X31791804Y-29629000D01*
X31916821Y-29641313D01*
X31916821Y-29641313D01*
G37*
G36*
X24296821Y-29641313D02*
X24296824Y-29641314D01*
X24296825Y-29641314D01*
X24457239Y-29689975D01*
X24457241Y-29689976D01*
X24457244Y-29689977D01*
X24605078Y-29768995D01*
X24734659Y-29875341D01*
X24841005Y-30004922D01*
X24920023Y-30152756D01*
X24968687Y-30313179D01*
X24985117Y-30480000D01*
X24968687Y-30646821D01*
X24920023Y-30807244D01*
X24841005Y-30955078D01*
X24734659Y-31084659D01*
X24605078Y-31191005D01*
X24457244Y-31270023D01*
X24457241Y-31270024D01*
X24457239Y-31270025D01*
X24296825Y-31318686D01*
X24296824Y-31318686D01*
X24296821Y-31318687D01*
X24171804Y-31331000D01*
X24088196Y-31331000D01*
X23963179Y-31318687D01*
X23963176Y-31318686D01*
X23963175Y-31318686D01*
X23802761Y-31270025D01*
X23802759Y-31270024D01*
X23802756Y-31270023D01*
X23654922Y-31191005D01*
X23525341Y-31084659D01*
X23418995Y-30955078D01*
X23339977Y-30807244D01*
X23291313Y-30646821D01*
X23274883Y-30480000D01*
X23291313Y-30313179D01*
X23339977Y-30152756D01*
X23418995Y-30004922D01*
X23525341Y-29875341D01*
X23654922Y-29768995D01*
X23802756Y-29689977D01*
X23802759Y-29689976D01*
X23802761Y-29689975D01*
X23963175Y-29641314D01*
X23963176Y-29641314D01*
X23963179Y-29641313D01*
X24088196Y-29629000D01*
X24171804Y-29629000D01*
X24296821Y-29641313D01*
X24296821Y-29641313D01*
G37*
G36*
X18006905Y-26148789D02*
X18305350Y-26208153D01*
X18633122Y-26343921D01*
X18928109Y-26541025D01*
X19178975Y-26791891D01*
X19376079Y-27086878D01*
X19511847Y-27414650D01*
X19581060Y-27762611D01*
X19581060Y-28117389D01*
X19511847Y-28465350D01*
X19376079Y-28793122D01*
X19178975Y-29088109D01*
X18928109Y-29338975D01*
X18633122Y-29536079D01*
X18305350Y-29671847D01*
X18006905Y-29731211D01*
X17957390Y-29741060D01*
X17602610Y-29741060D01*
X17553095Y-29731211D01*
X17254650Y-29671847D01*
X16926878Y-29536079D01*
X16631891Y-29338975D01*
X16381025Y-29088109D01*
X16183921Y-28793122D01*
X16048153Y-28465350D01*
X15978940Y-28117389D01*
X15978940Y-27762611D01*
X16048153Y-27414650D01*
X16183921Y-27086878D01*
X16381025Y-26791891D01*
X16631891Y-26541025D01*
X16926878Y-26343921D01*
X17254650Y-26208153D01*
X17553095Y-26148789D01*
X17602610Y-26138940D01*
X17957390Y-26138940D01*
X18006905Y-26148789D01*
X18006905Y-26148789D01*
G37*
G36*
X49657617Y-27098420D02*
X49729851Y-27120332D01*
X49780332Y-27135645D01*
X49840782Y-27167957D01*
X49893425Y-27196095D01*
X49893427Y-27196096D01*
X49893426Y-27196096D01*
X49988786Y-27274355D01*
X49992553Y-27277447D01*
X50073905Y-27376574D01*
X50073906Y-27376576D01*
X50134355Y-27489667D01*
X50141002Y-27511580D01*
X50171580Y-27612382D01*
X50181000Y-27708027D01*
X50181000Y-28171972D01*
X50171580Y-28267618D01*
X50146763Y-28349427D01*
X50134355Y-28390333D01*
X50121128Y-28415078D01*
X50073905Y-28503426D01*
X49992553Y-28602553D01*
X49893426Y-28683905D01*
X49893424Y-28683906D01*
X49780333Y-28744355D01*
X49739427Y-28756763D01*
X49657618Y-28781580D01*
X49530000Y-28794149D01*
X49402383Y-28781580D01*
X49320574Y-28756763D01*
X49279668Y-28744355D01*
X49166577Y-28683906D01*
X49166575Y-28683905D01*
X49067448Y-28602553D01*
X48986095Y-28503426D01*
X48938872Y-28415078D01*
X48925645Y-28390333D01*
X48913237Y-28349427D01*
X48888420Y-28267618D01*
X48879000Y-28171973D01*
X48879000Y-27708028D01*
X48888420Y-27612383D01*
X48925645Y-27489669D01*
X48925645Y-27489668D01*
X48965743Y-27414651D01*
X48986095Y-27376575D01*
X49067447Y-27277447D01*
X49166574Y-27196095D01*
X49179509Y-27189181D01*
X49279667Y-27135645D01*
X49330148Y-27120332D01*
X49402382Y-27098420D01*
X49530000Y-27085851D01*
X49657617Y-27098420D01*
X49657617Y-27098420D01*
G37*
G36*
X24981000Y-28791000D02*
X23279000Y-28791000D01*
X23279000Y-27089000D01*
X24981000Y-27089000D01*
X24981000Y-28791000D01*
X24981000Y-28791000D01*
G37*
G36*
X31916821Y-27101313D02*
X31916824Y-27101314D01*
X31916825Y-27101314D01*
X32077239Y-27149975D01*
X32077241Y-27149976D01*
X32077244Y-27149977D01*
X32225078Y-27228995D01*
X32354659Y-27335341D01*
X32461005Y-27464922D01*
X32540023Y-27612756D01*
X32540024Y-27612759D01*
X32540025Y-27612761D01*
X32568924Y-27708028D01*
X32588687Y-27773179D01*
X32605117Y-27940000D01*
X32588687Y-28106821D01*
X32588686Y-28106824D01*
X32588686Y-28106825D01*
X32540377Y-28266079D01*
X32540023Y-28267244D01*
X32461005Y-28415078D01*
X32354659Y-28544659D01*
X32225078Y-28651005D01*
X32077244Y-28730023D01*
X32077241Y-28730024D01*
X32077239Y-28730025D01*
X31916825Y-28778686D01*
X31916824Y-28778686D01*
X31916821Y-28778687D01*
X31791804Y-28791000D01*
X31708196Y-28791000D01*
X31583179Y-28778687D01*
X31583176Y-28778686D01*
X31583175Y-28778686D01*
X31422761Y-28730025D01*
X31422759Y-28730024D01*
X31422756Y-28730023D01*
X31274922Y-28651005D01*
X31145341Y-28544659D01*
X31038995Y-28415078D01*
X30959977Y-28267244D01*
X30959624Y-28266079D01*
X30911314Y-28106825D01*
X30911314Y-28106824D01*
X30911313Y-28106821D01*
X30894883Y-27940000D01*
X30911313Y-27773179D01*
X30931076Y-27708028D01*
X30959975Y-27612761D01*
X30959976Y-27612759D01*
X30959977Y-27612756D01*
X31038995Y-27464922D01*
X31145341Y-27335341D01*
X31274922Y-27228995D01*
X31422756Y-27149977D01*
X31422759Y-27149976D01*
X31422761Y-27149975D01*
X31583175Y-27101314D01*
X31583176Y-27101314D01*
X31583179Y-27101313D01*
X31708196Y-27089000D01*
X31791804Y-27089000D01*
X31916821Y-27101313D01*
X31916821Y-27101313D01*
G37*
G36*
X77696905Y-24878789D02*
X77995350Y-24938153D01*
X78323122Y-25073921D01*
X78618109Y-25271025D01*
X78868975Y-25521891D01*
X79066079Y-25816878D01*
X79201847Y-26144650D01*
X79271060Y-26492611D01*
X79271060Y-26847389D01*
X79201847Y-27195350D01*
X79066079Y-27523122D01*
X78868975Y-27818109D01*
X78618109Y-28068975D01*
X78323122Y-28266079D01*
X77995350Y-28401847D01*
X77696905Y-28461211D01*
X77647390Y-28471060D01*
X77292610Y-28471060D01*
X77243095Y-28461211D01*
X76944650Y-28401847D01*
X76616878Y-28266079D01*
X76321891Y-28068975D01*
X76071025Y-27818109D01*
X75873921Y-27523122D01*
X75738153Y-27195350D01*
X75668940Y-26847389D01*
X75668940Y-26492611D01*
X75738153Y-26144650D01*
X75873921Y-25816878D01*
X76071025Y-25521891D01*
X76321891Y-25271025D01*
X76616878Y-25073921D01*
X76944650Y-24938153D01*
X77243095Y-24878789D01*
X77292610Y-24868940D01*
X77647390Y-24868940D01*
X77696905Y-24878789D01*
X77696905Y-24878789D01*
G37*
G36*
X58547617Y-25828420D02*
X58629426Y-25853237D01*
X58670332Y-25865645D01*
X58730782Y-25897957D01*
X58783425Y-25926095D01*
X58783427Y-25926096D01*
X58783426Y-25926096D01*
X58878786Y-26004355D01*
X58882553Y-26007447D01*
X58963905Y-26106574D01*
X58963906Y-26106576D01*
X59024355Y-26219667D01*
X59036763Y-26260573D01*
X59061580Y-26342382D01*
X59071000Y-26438027D01*
X59071000Y-26901972D01*
X59061580Y-26997618D01*
X59036763Y-27079427D01*
X59024355Y-27120333D01*
X58984258Y-27195349D01*
X58963905Y-27233426D01*
X58882553Y-27332553D01*
X58783426Y-27413905D01*
X58783424Y-27413906D01*
X58670333Y-27474355D01*
X58629427Y-27486763D01*
X58547618Y-27511580D01*
X58420000Y-27524149D01*
X58292383Y-27511580D01*
X58210574Y-27486763D01*
X58169668Y-27474355D01*
X58056577Y-27413906D01*
X58056575Y-27413905D01*
X57957448Y-27332553D01*
X57876095Y-27233426D01*
X57855742Y-27195349D01*
X57815645Y-27120333D01*
X57803237Y-27079427D01*
X57778420Y-26997618D01*
X57769000Y-26901973D01*
X57769000Y-26438028D01*
X57778420Y-26342383D01*
X57815645Y-26219669D01*
X57815645Y-26219668D01*
X57855743Y-26144651D01*
X57876095Y-26106575D01*
X57940235Y-26028420D01*
X57957445Y-26007449D01*
X57957447Y-26007447D01*
X58056574Y-25926095D01*
X58069509Y-25919181D01*
X58169667Y-25865645D01*
X58210573Y-25853237D01*
X58292382Y-25828420D01*
X58420000Y-25815851D01*
X58547617Y-25828420D01*
X58547617Y-25828420D01*
G37*
G36*
X50863855Y-26022140D02*
X50927618Y-26028420D01*
X51002054Y-26051000D01*
X51050333Y-26065645D01*
X51126905Y-26106574D01*
X51163426Y-26126095D01*
X51262553Y-26207447D01*
X51343905Y-26306574D01*
X51343906Y-26306576D01*
X51404355Y-26419667D01*
X51416763Y-26460573D01*
X51441580Y-26542382D01*
X51454149Y-26670000D01*
X51441580Y-26797618D01*
X51426482Y-26847389D01*
X51404355Y-26920333D01*
X51363046Y-26997616D01*
X51343905Y-27033426D01*
X51262553Y-27132553D01*
X51163426Y-27213905D01*
X51163424Y-27213906D01*
X51050333Y-27274355D01*
X51009427Y-27286763D01*
X50927618Y-27311580D01*
X50863855Y-27317860D01*
X50831974Y-27321000D01*
X50768026Y-27321000D01*
X50736145Y-27317860D01*
X50672382Y-27311580D01*
X50590573Y-27286763D01*
X50549667Y-27274355D01*
X50436576Y-27213906D01*
X50436574Y-27213905D01*
X50337447Y-27132553D01*
X50256095Y-27033426D01*
X50236954Y-26997616D01*
X50195645Y-26920333D01*
X50173518Y-26847389D01*
X50158420Y-26797618D01*
X50145851Y-26670000D01*
X50158420Y-26542382D01*
X50183237Y-26460573D01*
X50195645Y-26419667D01*
X50256094Y-26306576D01*
X50256095Y-26306574D01*
X50337447Y-26207447D01*
X50436574Y-26126095D01*
X50473095Y-26106574D01*
X50549667Y-26065645D01*
X50597946Y-26051000D01*
X50672382Y-26028420D01*
X50736145Y-26022140D01*
X50768026Y-26019000D01*
X50831974Y-26019000D01*
X50863855Y-26022140D01*
X50863855Y-26022140D01*
G37*
G36*
X49593855Y-24752140D02*
X49657618Y-24758420D01*
X49732054Y-24781000D01*
X49780333Y-24795645D01*
X49880491Y-24849181D01*
X49893426Y-24856095D01*
X49992553Y-24937447D01*
X50073905Y-25036574D01*
X50073906Y-25036576D01*
X50134355Y-25149667D01*
X50134355Y-25149668D01*
X50171580Y-25272382D01*
X50184149Y-25400000D01*
X50171580Y-25527618D01*
X50146763Y-25609427D01*
X50134355Y-25650333D01*
X50080819Y-25750491D01*
X50073905Y-25763426D01*
X49992553Y-25862553D01*
X49893426Y-25943905D01*
X49893424Y-25943906D01*
X49780333Y-26004355D01*
X49739427Y-26016763D01*
X49657618Y-26041580D01*
X49593855Y-26047860D01*
X49561974Y-26051000D01*
X49498026Y-26051000D01*
X49466145Y-26047860D01*
X49402382Y-26041580D01*
X49320573Y-26016763D01*
X49279667Y-26004355D01*
X49166576Y-25943906D01*
X49166574Y-25943905D01*
X49067447Y-25862553D01*
X48986095Y-25763426D01*
X48979181Y-25750491D01*
X48925645Y-25650333D01*
X48913237Y-25609427D01*
X48888420Y-25527618D01*
X48875851Y-25400000D01*
X48888420Y-25272382D01*
X48925645Y-25149668D01*
X48925645Y-25149667D01*
X48986094Y-25036576D01*
X48986095Y-25036574D01*
X49067447Y-24937447D01*
X49166574Y-24856095D01*
X49179509Y-24849181D01*
X49279667Y-24795645D01*
X49327946Y-24781000D01*
X49402382Y-24758420D01*
X49466145Y-24752140D01*
X49498026Y-24749000D01*
X49561974Y-24749000D01*
X49593855Y-24752140D01*
X49593855Y-24752140D01*
G37*
G36*
X59753855Y-24752140D02*
X59817618Y-24758420D01*
X59892054Y-24781000D01*
X59940333Y-24795645D01*
X60040491Y-24849181D01*
X60053426Y-24856095D01*
X60152553Y-24937447D01*
X60233905Y-25036574D01*
X60233906Y-25036576D01*
X60294355Y-25149667D01*
X60294355Y-25149668D01*
X60331580Y-25272382D01*
X60344149Y-25400000D01*
X60331580Y-25527618D01*
X60306763Y-25609427D01*
X60294355Y-25650333D01*
X60240819Y-25750491D01*
X60233905Y-25763426D01*
X60152553Y-25862553D01*
X60053426Y-25943905D01*
X60053424Y-25943906D01*
X59940333Y-26004355D01*
X59899427Y-26016763D01*
X59817618Y-26041580D01*
X59753855Y-26047860D01*
X59721974Y-26051000D01*
X59658026Y-26051000D01*
X59626145Y-26047860D01*
X59562382Y-26041580D01*
X59480573Y-26016763D01*
X59439667Y-26004355D01*
X59326576Y-25943906D01*
X59326574Y-25943905D01*
X59227447Y-25862553D01*
X59146095Y-25763426D01*
X59139181Y-25750491D01*
X59085645Y-25650333D01*
X59073237Y-25609427D01*
X59048420Y-25527618D01*
X59035851Y-25400000D01*
X59048420Y-25272382D01*
X59085645Y-25149668D01*
X59085645Y-25149667D01*
X59146094Y-25036576D01*
X59146095Y-25036574D01*
X59227447Y-24937447D01*
X59326574Y-24856095D01*
X59339509Y-24849181D01*
X59439667Y-24795645D01*
X59487946Y-24781000D01*
X59562382Y-24758420D01*
X59626145Y-24752140D01*
X59658026Y-24749000D01*
X59721974Y-24749000D01*
X59753855Y-24752140D01*
X59753855Y-24752140D01*
G37*
G36*
X58483855Y-23482140D02*
X58547618Y-23488420D01*
X58629427Y-23513237D01*
X58670333Y-23525645D01*
X58770491Y-23579181D01*
X58783426Y-23586095D01*
X58882553Y-23667447D01*
X58963905Y-23766574D01*
X58963906Y-23766576D01*
X59024355Y-23879667D01*
X59024355Y-23879668D01*
X59061580Y-24002382D01*
X59074149Y-24130000D01*
X59061580Y-24257618D01*
X59036763Y-24339427D01*
X59024355Y-24380333D01*
X58970819Y-24480491D01*
X58963905Y-24493426D01*
X58882553Y-24592553D01*
X58783426Y-24673905D01*
X58783424Y-24673906D01*
X58670333Y-24734355D01*
X58629427Y-24746763D01*
X58547618Y-24771580D01*
X58483855Y-24777860D01*
X58451974Y-24781000D01*
X58388026Y-24781000D01*
X58356145Y-24777860D01*
X58292382Y-24771580D01*
X58210573Y-24746763D01*
X58169667Y-24734355D01*
X58056576Y-24673906D01*
X58056574Y-24673905D01*
X57957447Y-24592553D01*
X57876095Y-24493426D01*
X57869181Y-24480491D01*
X57815645Y-24380333D01*
X57803237Y-24339427D01*
X57778420Y-24257618D01*
X57765851Y-24130000D01*
X57778420Y-24002382D01*
X57815645Y-23879668D01*
X57815645Y-23879667D01*
X57876094Y-23766576D01*
X57876095Y-23766574D01*
X57957447Y-23667447D01*
X58056574Y-23586095D01*
X58069509Y-23579181D01*
X58169667Y-23525645D01*
X58210573Y-23513237D01*
X58292382Y-23488420D01*
X58356145Y-23482140D01*
X58388026Y-23479000D01*
X58451974Y-23479000D01*
X58483855Y-23482140D01*
X58483855Y-23482140D01*
G37*
G36*
X19581060Y-24661060D02*
X15978940Y-24661060D01*
X15978940Y-21058940D01*
X19581060Y-21058940D01*
X19581060Y-24661060D01*
X19581060Y-24661060D01*
G37*
G36*
X79271060Y-23391060D02*
X75668940Y-23391060D01*
X75668940Y-19788940D01*
X79271060Y-19788940D01*
X79271060Y-23391060D01*
X79271060Y-23391060D01*
G37*
G36*
X35808228Y-20771703D02*
X35963100Y-20835853D01*
X36102481Y-20928985D01*
X36221015Y-21047519D01*
X36314147Y-21186900D01*
X36378297Y-21341772D01*
X36411000Y-21506184D01*
X36411000Y-21673816D01*
X36378297Y-21838228D01*
X36314147Y-21993100D01*
X36221015Y-22132481D01*
X36102481Y-22251015D01*
X35963100Y-22344147D01*
X35808228Y-22408297D01*
X35643816Y-22441000D01*
X35476184Y-22441000D01*
X35311772Y-22408297D01*
X35156900Y-22344147D01*
X35017519Y-22251015D01*
X34898985Y-22132481D01*
X34805853Y-21993100D01*
X34741703Y-21838228D01*
X34709000Y-21673816D01*
X34709000Y-21506184D01*
X34741703Y-21341772D01*
X34805853Y-21186900D01*
X34898985Y-21047519D01*
X35017519Y-20928985D01*
X35156900Y-20835853D01*
X35311772Y-20771703D01*
X35476184Y-20739000D01*
X35643816Y-20739000D01*
X35808228Y-20771703D01*
X35808228Y-20771703D01*
G37*
G36*
X45886821Y-20751313D02*
X45886824Y-20751314D01*
X45886825Y-20751314D01*
X46047239Y-20799975D01*
X46047241Y-20799976D01*
X46047244Y-20799977D01*
X46195078Y-20878995D01*
X46324659Y-20985341D01*
X46431005Y-21114922D01*
X46510023Y-21262756D01*
X46510024Y-21262759D01*
X46510025Y-21262761D01*
X46558686Y-21423175D01*
X46558687Y-21423179D01*
X46575117Y-21590000D01*
X46558687Y-21756821D01*
X46558686Y-21756824D01*
X46558686Y-21756825D01*
X46533993Y-21838228D01*
X46510023Y-21917244D01*
X46431005Y-22065078D01*
X46324659Y-22194659D01*
X46195078Y-22301005D01*
X46047244Y-22380023D01*
X46047241Y-22380024D01*
X46047239Y-22380025D01*
X45886825Y-22428686D01*
X45886824Y-22428686D01*
X45886821Y-22428687D01*
X45761804Y-22441000D01*
X45678196Y-22441000D01*
X45553179Y-22428687D01*
X45553176Y-22428686D01*
X45553175Y-22428686D01*
X45392761Y-22380025D01*
X45392759Y-22380024D01*
X45392756Y-22380023D01*
X45244922Y-22301005D01*
X45115341Y-22194659D01*
X45008995Y-22065078D01*
X44929977Y-21917244D01*
X44906008Y-21838228D01*
X44881314Y-21756825D01*
X44881314Y-21756824D01*
X44881313Y-21756821D01*
X44864883Y-21590000D01*
X44881313Y-21423179D01*
X44881314Y-21423175D01*
X44929975Y-21262761D01*
X44929976Y-21262759D01*
X44929977Y-21262756D01*
X45008995Y-21114922D01*
X45115341Y-20985341D01*
X45244922Y-20878995D01*
X45392756Y-20799977D01*
X45392759Y-20799976D01*
X45392761Y-20799975D01*
X45553175Y-20751314D01*
X45553176Y-20751314D01*
X45553179Y-20751313D01*
X45678196Y-20739000D01*
X45761804Y-20739000D01*
X45886821Y-20751313D01*
X45886821Y-20751313D01*
G37*
G36*
X31780680Y-20350680D02*
X29179320Y-20350680D01*
X29179320Y-17749320D01*
X31780680Y-17749320D01*
X31780680Y-20350680D01*
X31780680Y-20350680D01*
G37*
G36*
X27049393Y-17799304D02*
X27286102Y-17897352D01*
X27499138Y-18039698D01*
X27680302Y-18220862D01*
X27822648Y-18433898D01*
X27920696Y-18670607D01*
X27970680Y-18921893D01*
X27970680Y-19178107D01*
X27920696Y-19429393D01*
X27822648Y-19666102D01*
X27680302Y-19879138D01*
X27499138Y-20060302D01*
X27286102Y-20202648D01*
X27049393Y-20300696D01*
X26798107Y-20350680D01*
X26541893Y-20350680D01*
X26290607Y-20300696D01*
X26053898Y-20202648D01*
X25840862Y-20060302D01*
X25659698Y-19879138D01*
X25517352Y-19666102D01*
X25419304Y-19429393D01*
X25369320Y-19178107D01*
X25369320Y-18921893D01*
X25419304Y-18670607D01*
X25517352Y-18433898D01*
X25659698Y-18220862D01*
X25840862Y-18039698D01*
X26053898Y-17897352D01*
X26290607Y-17799304D01*
X26541893Y-17749320D01*
X26798107Y-17749320D01*
X27049393Y-17799304D01*
X27049393Y-17799304D01*
G37*
G36*
X63828228Y-16961703D02*
X63983100Y-17025853D01*
X64122481Y-17118985D01*
X64241015Y-17237519D01*
X64334147Y-17376900D01*
X64398297Y-17531772D01*
X64431000Y-17696184D01*
X64431000Y-17863816D01*
X64398297Y-18028228D01*
X64334147Y-18183100D01*
X64241015Y-18322481D01*
X64122481Y-18441015D01*
X63983100Y-18534147D01*
X63828228Y-18598297D01*
X63663816Y-18631000D01*
X63496184Y-18631000D01*
X63331772Y-18598297D01*
X63176900Y-18534147D01*
X63037519Y-18441015D01*
X62918985Y-18322481D01*
X62825853Y-18183100D01*
X62761703Y-18028228D01*
X62729000Y-17863816D01*
X62729000Y-17696184D01*
X62761703Y-17531772D01*
X62825853Y-17376900D01*
X62918985Y-17237519D01*
X63037519Y-17118985D01*
X63176900Y-17025853D01*
X63331772Y-16961703D01*
X63496184Y-16929000D01*
X63663816Y-16929000D01*
X63828228Y-16961703D01*
X63828228Y-16961703D01*
G37*
G36*
X68828228Y-16961703D02*
X68983100Y-17025853D01*
X69122481Y-17118985D01*
X69241015Y-17237519D01*
X69334147Y-17376900D01*
X69398297Y-17531772D01*
X69431000Y-17696184D01*
X69431000Y-17863816D01*
X69398297Y-18028228D01*
X69334147Y-18183100D01*
X69241015Y-18322481D01*
X69122481Y-18441015D01*
X68983100Y-18534147D01*
X68828228Y-18598297D01*
X68663816Y-18631000D01*
X68496184Y-18631000D01*
X68331772Y-18598297D01*
X68176900Y-18534147D01*
X68037519Y-18441015D01*
X67918985Y-18322481D01*
X67825853Y-18183100D01*
X67761703Y-18028228D01*
X67729000Y-17863816D01*
X67729000Y-17696184D01*
X67761703Y-17531772D01*
X67825853Y-17376900D01*
X67918985Y-17237519D01*
X68037519Y-17118985D01*
X68176900Y-17025853D01*
X68331772Y-16961703D01*
X68496184Y-16929000D01*
X68663816Y-16929000D01*
X68828228Y-16961703D01*
X68828228Y-16961703D01*
G37*
G36*
X35726821Y-16941313D02*
X35726824Y-16941314D01*
X35726825Y-16941314D01*
X35887239Y-16989975D01*
X35887241Y-16989976D01*
X35887244Y-16989977D01*
X36035078Y-17068995D01*
X36164659Y-17175341D01*
X36271005Y-17304922D01*
X36350023Y-17452756D01*
X36350024Y-17452759D01*
X36350025Y-17452761D01*
X36398686Y-17613175D01*
X36398687Y-17613179D01*
X36415117Y-17780000D01*
X36398687Y-17946821D01*
X36398686Y-17946824D01*
X36398686Y-17946825D01*
X36373993Y-18028228D01*
X36350023Y-18107244D01*
X36271005Y-18255078D01*
X36164659Y-18384659D01*
X36035078Y-18491005D01*
X35887244Y-18570023D01*
X35887241Y-18570024D01*
X35887239Y-18570025D01*
X35726825Y-18618686D01*
X35726824Y-18618686D01*
X35726821Y-18618687D01*
X35601804Y-18631000D01*
X35518196Y-18631000D01*
X35393179Y-18618687D01*
X35393176Y-18618686D01*
X35393175Y-18618686D01*
X35232761Y-18570025D01*
X35232759Y-18570024D01*
X35232756Y-18570023D01*
X35084922Y-18491005D01*
X34955341Y-18384659D01*
X34848995Y-18255078D01*
X34769977Y-18107244D01*
X34746008Y-18028228D01*
X34721314Y-17946825D01*
X34721314Y-17946824D01*
X34721313Y-17946821D01*
X34704883Y-17780000D01*
X34721313Y-17613179D01*
X34721314Y-17613175D01*
X34769975Y-17452761D01*
X34769976Y-17452759D01*
X34769977Y-17452756D01*
X34848995Y-17304922D01*
X34955341Y-17175341D01*
X35084922Y-17068995D01*
X35232756Y-16989977D01*
X35232759Y-16989976D01*
X35232761Y-16989975D01*
X35393175Y-16941314D01*
X35393176Y-16941314D01*
X35393179Y-16941313D01*
X35518196Y-16929000D01*
X35601804Y-16929000D01*
X35726821Y-16941313D01*
X35726821Y-16941313D01*
G37*
G36*
X45968228Y-16961703D02*
X46123100Y-17025853D01*
X46262481Y-17118985D01*
X46381015Y-17237519D01*
X46474147Y-17376900D01*
X46538297Y-17531772D01*
X46571000Y-17696184D01*
X46571000Y-17863816D01*
X46538297Y-18028228D01*
X46474147Y-18183100D01*
X46381015Y-18322481D01*
X46262481Y-18441015D01*
X46123100Y-18534147D01*
X45968228Y-18598297D01*
X45803816Y-18631000D01*
X45636184Y-18631000D01*
X45471772Y-18598297D01*
X45316900Y-18534147D01*
X45177519Y-18441015D01*
X45058985Y-18322481D01*
X44965853Y-18183100D01*
X44901703Y-18028228D01*
X44869000Y-17863816D01*
X44869000Y-17696184D01*
X44901703Y-17531772D01*
X44965853Y-17376900D01*
X45058985Y-17237519D01*
X45177519Y-17118985D01*
X45316900Y-17025853D01*
X45471772Y-16961703D01*
X45636184Y-16929000D01*
X45803816Y-16929000D01*
X45968228Y-16961703D01*
X45968228Y-16961703D01*
G37*
G36*
X49778228Y-16961703D02*
X49933100Y-17025853D01*
X50072481Y-17118985D01*
X50191015Y-17237519D01*
X50284147Y-17376900D01*
X50348297Y-17531772D01*
X50381000Y-17696184D01*
X50381000Y-17863816D01*
X50348297Y-18028228D01*
X50284147Y-18183100D01*
X50191015Y-18322481D01*
X50072481Y-18441015D01*
X49933100Y-18534147D01*
X49778228Y-18598297D01*
X49613816Y-18631000D01*
X49446184Y-18631000D01*
X49281772Y-18598297D01*
X49126900Y-18534147D01*
X48987519Y-18441015D01*
X48868985Y-18322481D01*
X48775853Y-18183100D01*
X48711703Y-18028228D01*
X48679000Y-17863816D01*
X48679000Y-17696184D01*
X48711703Y-17531772D01*
X48775853Y-17376900D01*
X48868985Y-17237519D01*
X48987519Y-17118985D01*
X49126900Y-17025853D01*
X49281772Y-16961703D01*
X49446184Y-16929000D01*
X49613816Y-16929000D01*
X49778228Y-16961703D01*
X49778228Y-16961703D01*
G37*
G36*
X59856821Y-16941313D02*
X59856824Y-16941314D01*
X59856825Y-16941314D01*
X60017239Y-16989975D01*
X60017241Y-16989976D01*
X60017244Y-16989977D01*
X60165078Y-17068995D01*
X60294659Y-17175341D01*
X60401005Y-17304922D01*
X60480023Y-17452756D01*
X60480024Y-17452759D01*
X60480025Y-17452761D01*
X60528686Y-17613175D01*
X60528687Y-17613179D01*
X60545117Y-17780000D01*
X60528687Y-17946821D01*
X60528686Y-17946824D01*
X60528686Y-17946825D01*
X60503993Y-18028228D01*
X60480023Y-18107244D01*
X60401005Y-18255078D01*
X60294659Y-18384659D01*
X60165078Y-18491005D01*
X60017244Y-18570023D01*
X60017241Y-18570024D01*
X60017239Y-18570025D01*
X59856825Y-18618686D01*
X59856824Y-18618686D01*
X59856821Y-18618687D01*
X59731804Y-18631000D01*
X59648196Y-18631000D01*
X59523179Y-18618687D01*
X59523176Y-18618686D01*
X59523175Y-18618686D01*
X59362761Y-18570025D01*
X59362759Y-18570024D01*
X59362756Y-18570023D01*
X59214922Y-18491005D01*
X59085341Y-18384659D01*
X58978995Y-18255078D01*
X58899977Y-18107244D01*
X58876008Y-18028228D01*
X58851314Y-17946825D01*
X58851314Y-17946824D01*
X58851313Y-17946821D01*
X58834883Y-17780000D01*
X58851313Y-17613179D01*
X58851314Y-17613175D01*
X58899975Y-17452761D01*
X58899976Y-17452759D01*
X58899977Y-17452756D01*
X58978995Y-17304922D01*
X59085341Y-17175341D01*
X59214922Y-17068995D01*
X59362756Y-16989977D01*
X59362759Y-16989976D01*
X59362761Y-16989975D01*
X59523175Y-16941314D01*
X59523176Y-16941314D01*
X59523179Y-16941313D01*
X59648196Y-16929000D01*
X59731804Y-16929000D01*
X59856821Y-16941313D01*
X59856821Y-16941313D01*
G37*
M02*
