M48
;DRILL file {KiCad 5.0.2-bee76a0~70~ubuntu18.04.1} date Wed 20 Mar 2019 05:07:37 PM EDT
;FORMAT={-:-/ absolute / inch / decimal}
FMAT,2
INCH,TZ
T1C0.0276
T2C0.0315
T3C0.0394
T4C0.0394
T5C0.0591
%
G90
G05
T1
X2.3Y-0.95
X2.3Y-1.05
X2.35Y-1.
X1.95Y-1.
X1.95Y-1.1
X2.Y-1.05
T2
X1.9Y-1.35
X2.3Y-1.35
X2.5031Y-0.7
X2.7Y-0.7
X1.95Y-0.7
X2.35Y-0.7
X1.4Y-0.85
X1.8Y-0.85
X0.95Y-1.1
X0.95Y-1.2
X0.95Y-1.3
X0.95Y-1.4
X1.25Y-1.1
X1.25Y-1.2
X1.25Y-1.3
X1.25Y-1.4
X1.4Y-0.7
X1.8Y-0.7
T3
X2.6Y-1.2
X2.6Y-1.3969
X1.5031Y-1.3
X1.7Y-1.3
T4
X1.05Y-0.75
X1.2Y-0.75
T5
X0.7Y-0.9
X0.7Y-1.1
X3.05Y-0.85
X3.05Y-1.05
X1.9Y-1.75
X2.075Y-1.75
X2.25Y-1.75
T0
M30
